<?xml version="1.0" standalone="no"?>
<!DOCTYPE svg PUBLIC "-//W3C//DTD SVG 1.1//EN" "http://www.w3.org/Graphics/SVG/1.1/DTD/svg11.dtd" >
<svg xmlns="http://www.w3.org/2000/svg" xmlns:xlink="http://www.w3.org/1999/xlink" version="1.1">
<metadata>
Created by FontForge 20161116 at Tue May 17 13:54:34 2016
 By Jimmy Wärting
Copyright \(c\) 2016 by Fontfabric LLC. All rights reserved.
</metadata>
<defs>
<font id="Phenomena-Light" horiz-adv-x="0" >
  <font-face 
    font-family="Phenomena Light"
    font-weight="300"
    font-stretch="normal"
    units-per-em="1000"
    panose-1="0 0 4 0 0 0 0 0 0 0"
    ascent="800"
    descent="-200"
    x-height="500"
    cap-height="700"
    bbox="-358.19 -226 827 921"
    underline-thickness="50"
    underline-position="-100"
    stemh="43"
    stemv="45"
    unicode-range="U+0020-25CA"
  />
<missing-glyph horiz-adv-x="500" 
d="M410 800v-1000h-317v1000h317zM333 733h-165v-33h65v-37h-66v-33h166v33h-66v37h66v33zM267 604h-100v-104h166v34h-66v70zM233 570v-36h-33v36h33zM333 473h-166v-33h66v-37h-66v-33h100v70h66v33zM333 413h-33v-66h-133v-34h166v100zM333 291h-100v-56h34v23h33v-47
h-100v80h-33v-113h166v113zM333 118h-166v-113h166v113zM300 85v-47h-100v47h100zM333 -18h-166v-33h70l-70 -47v-33h166v33h-102l70 47h32v33z" />
    <glyph glyph-name=".notdef" horiz-adv-x="500" 
d="M410 800v-1000h-317v1000h317zM333 733h-165v-33h65v-37h-66v-33h166v33h-66v37h66v33zM267 604h-100v-104h166v34h-66v70zM233 570v-36h-33v36h33zM333 473h-166v-33h66v-37h-66v-33h100v70h66v33zM333 413h-33v-66h-133v-34h166v100zM333 291h-100v-56h34v23h33v-47
h-100v80h-33v-113h166v113zM333 118h-166v-113h166v113zM300 85v-47h-100v47h100zM333 -18h-166v-33h70l-70 -47v-33h166v33h-102l70 47h32v33z" />
    <glyph glyph-name="A" unicode="A" horiz-adv-x="454" 
d="M74 0c-5 0 -9 3 -9 8v522c0 107 65 178 162 178c96 0 161 -71 161 -178v-522c1 -5 -3 -8 -8 -8h-30c-5 0 -8 3 -8 8v254h-230v-254c0 -5 -3 -8 -8 -8h-30zM112 305h230v225c0 84 -43 135 -115 135s-115 -51 -115 -135v-225z" />
    <glyph glyph-name="Aacute" unicode="&#xc1;" horiz-adv-x="454" 
d="M198 769c-7 0 -9 5 -5 10l70 91c2 4 6 5 10 5h35c7 0 10 -5 5 -10l-81 -91c-2 -3 -6 -5 -10 -5h-24zM74 0c-5 0 -9 3 -9 8v522c0 107 65 178 162 178c96 0 161 -71 161 -178v-522c1 -5 -3 -8 -8 -8h-30c-5 0 -8 3 -8 8v254h-230v-254c0 -5 -3 -8 -8 -8h-30zM112 305h230
v225c0 84 -43 135 -115 135s-115 -51 -115 -135v-225z" />
    <glyph glyph-name="Abreve" unicode="&#x102;" horiz-adv-x="454" 
d="M227 768c-61 0 -103 38 -107 96c0 5 3 9 8 9h25c5 0 8 -3 9 -9c3 -35 27 -56 65 -56c39 0 63 21 66 56c0 6 4 9 9 9h25c5 0 8 -3 8 -9c-4 -57 -45 -96 -108 -96zM74 0c-5 0 -9 3 -9 8v522c0 107 65 178 162 178c96 0 161 -71 161 -178v-522c1 -5 -3 -8 -8 -8h-30
c-5 0 -8 3 -8 8v254h-230v-254c0 -5 -3 -8 -8 -8h-30zM112 305h230v225c0 84 -43 135 -115 135s-115 -51 -115 -135v-225z" />
    <glyph glyph-name="Acircumflex" unicode="&#xc2;" horiz-adv-x="454" 
d="M332 779c4 -6 1 -10 -5 -10h-25c-4 0 -7 1 -10 4l-65 75l-65 -75c-3 -3 -6 -4 -10 -4h-25c-6 0 -9 4 -5 10l75 91c2 3 6 5 10 5h40c4 0 8 -2 10 -5zM74 0c-5 0 -9 3 -9 8v522c0 107 65 178 162 178c96 0 161 -71 161 -178v-522c1 -5 -3 -8 -8 -8h-30c-5 0 -8 3 -8 8v254
h-230v-254c0 -5 -3 -8 -8 -8h-30zM112 305h230v225c0 84 -43 135 -115 135s-115 -51 -115 -135v-225z" />
    <glyph glyph-name="Adieresis" unicode="&#xc4;" horiz-adv-x="454" 
d="M178 787c-19 0 -32 13 -32 32s13 32 32 32s32 -13 32 -32s-13 -32 -32 -32zM277 787c-19 0 -32 13 -32 32s13 32 32 32s32 -13 32 -32s-13 -32 -32 -32zM74 0c-5 0 -9 3 -9 8v522c0 107 65 178 162 178c96 0 161 -71 161 -178v-522c1 -5 -3 -8 -8 -8h-30c-5 0 -8 3 -8 8
v254h-230v-254c0 -5 -3 -8 -8 -8h-30zM112 305h230v225c0 84 -43 135 -115 135s-115 -51 -115 -135v-225z" />
    <glyph glyph-name="Agrave" unicode="&#xc0;" horiz-adv-x="454" 
d="M253 769h-24c-4 0 -8 2 -10 5l-81 91c-5 5 -2 10 5 10h35c4 0 8 -1 10 -5l70 -91c4 -5 2 -10 -5 -10zM74 0c-5 0 -9 3 -9 8v522c0 107 65 178 162 178c96 0 161 -71 161 -178v-522c1 -5 -3 -8 -8 -8h-30c-5 0 -8 3 -8 8v254h-230v-254c0 -5 -3 -8 -8 -8h-30zM112 305h230
v225c0 84 -43 135 -115 135s-115 -51 -115 -135v-225z" />
    <glyph glyph-name="Amacron" unicode="&#x100;" horiz-adv-x="454" 
d="M147 828c0 5 3 8 8 8h143c5 0 8 -3 8 -8v-24c0 -5 -3 -9 -8 -9h-143c-5 0 -8 4 -8 9v24zM74 0c-5 0 -9 3 -9 8v522c0 107 65 178 162 178c96 0 161 -71 161 -178v-522c1 -5 -3 -8 -8 -8h-30c-5 0 -8 3 -8 8v254h-230v-254c0 -5 -3 -8 -8 -8h-30zM112 305h230v225
c0 84 -43 135 -115 135s-115 -51 -115 -135v-225z" />
    <glyph glyph-name="Aogonek" unicode="&#x104;" horiz-adv-x="460" 
d="M364 -198c-61 0 -87 38 -87 78s25 79 62 120v262h-227v-254c0 -5 -3 -8 -8 -8h-30c-5 0 -9 3 -9 8v522c0 107 64 178 160 178s160 -71 160 -178v-524c0 -4 -1 -7 -5 -11c-36 -32 -60 -71 -60 -104c0 -31 22 -46 55 -46h11c5 0 9 -2 9 -7v-25c0 -5 -3 -8 -8 -9
c-8 -1 -16 -2 -23 -2zM112 305h227v225c0 84 -43 135 -114 135c-70 0 -113 -51 -113 -135v-225z" />
    <glyph glyph-name="Aring" unicode="&#xc5;" horiz-adv-x="454" 
d="M159 821c0 38 27 64 67 64s66 -26 66 -64c0 -39 -26 -65 -66 -65s-67 26 -67 65zM192 820c0 -21 12 -34 34 -34c20 0 34 13 34 34s-14 34 -34 34c-22 0 -34 -13 -34 -34zM74 0c-5 0 -9 3 -9 8v522c0 107 65 178 162 178c96 0 161 -71 161 -178v-522c1 -5 -3 -8 -8 -8h-30
c-5 0 -8 3 -8 8v254h-230v-254c0 -5 -3 -8 -8 -8h-30zM112 305h230v225c0 84 -43 135 -115 135s-115 -51 -115 -135v-225z" />
    <glyph glyph-name="Atilde" unicode="&#xc3;" horiz-adv-x="454" 
d="M187 814c-14 0 -22 -11 -24 -30c-1 -6 -4 -8 -9 -8h-24c-5 0 -8 3 -8 8c3 42 28 68 62 68c41 0 56 -39 81 -39c14 0 23 11 24 30c1 6 4 8 9 8h24c5 0 8 -3 8 -8c-3 -42 -29 -68 -62 -68c-39 0 -54 39 -81 39zM74 0c-5 0 -9 3 -9 8v522c0 107 65 178 162 178
c96 0 161 -71 161 -178v-522c1 -5 -3 -8 -8 -8h-30c-5 0 -8 3 -8 8v254h-230v-254c0 -5 -3 -8 -8 -8h-30zM112 305h230v225c0 84 -43 135 -115 135s-115 -51 -115 -135v-225z" />
    <glyph glyph-name="AE" unicode="&#xc6;" horiz-adv-x="616" 
d="M74 0c-5 0 -9 3 -9 8v530c0 100 60 170 152 170c58 0 103 -37 128 -87c26 48 73 83 137 83h81c5 0 8 -3 8 -8v-27c0 -5 -3 -9 -8 -9h-81c-72 0 -114 -46 -114 -120v-169h168c5 0 9 -4 9 -9v-27c0 -5 -4 -8 -9 -8h-168v-162c0 -75 42 -123 114 -123h88c5 0 8 -3 8 -8v-27
c0 -5 -3 -8 -8 -8h-88c-98 0 -161 68 -161 166v162h-209v-319c0 -5 -3 -8 -8 -8h-30zM112 371h209v168c0 75 -41 126 -104 126c-66 0 -105 -51 -105 -127v-167z" />
    <glyph glyph-name="B" unicode="B" horiz-adv-x="429" 
d="M288 361c61 -19 100 -75 100 -145v-54c0 -99 -64 -164 -160 -164h-139c-14 0 -24 9 -24 23v523c0 98 61 164 151 164c93 0 155 -66 155 -164v-46c0 -69 -33 -120 -83 -137zM112 544v-165h107c65 0 105 45 105 119v46c0 75 -41 121 -108 121c-64 0 -104 -46 -104 -121z
M341 162v54c0 73 -43 119 -113 119h-116v-293h116c70 0 113 46 113 120z" />
    <glyph glyph-name="C" unicode="C" horiz-adv-x="413" 
d="M215 -9c-96 0 -162 70 -162 170v378c0 100 66 170 162 170c92 0 157 -73 159 -177c0 -5 -3 -8 -8 -8h-30c-5 0 -8 3 -8 8c-3 82 -47 133 -113 133c-70 0 -115 -49 -115 -126v-378c0 -77 45 -126 115 -126c71 0 116 53 118 136c0 6 3 8 8 8h30c5 0 8 -2 8 -8
c-3 -106 -68 -180 -164 -180z" />
    <glyph glyph-name="Cacute" unicode="&#x106;" horiz-adv-x="413" 
d="M181 769c-7 0 -9 5 -5 10l70 91c2 4 6 5 10 5h35c7 0 10 -5 5 -10l-81 -91c-2 -3 -6 -5 -10 -5h-24zM215 -9c-96 0 -162 70 -162 170v378c0 100 66 170 162 170c92 0 157 -73 159 -177c0 -5 -3 -8 -8 -8h-30c-5 0 -8 3 -8 8c-3 82 -47 133 -113 133
c-70 0 -115 -49 -115 -126v-378c0 -77 45 -126 115 -126c71 0 116 53 118 136c0 6 3 8 8 8h30c5 0 8 -2 8 -8c-3 -106 -68 -180 -164 -180z" />
    <glyph glyph-name="Ccaron" unicode="&#x10c;" horiz-adv-x="413" 
d="M314 865l-75 -91c-2 -3 -6 -5 -10 -5h-40c-4 0 -8 2 -10 5l-75 91c-4 6 -1 10 5 10h25c4 0 7 -1 10 -4l65 -75l65 75c3 3 6 4 10 4h25c6 0 9 -4 5 -10zM215 -9c-96 0 -162 70 -162 170v378c0 100 66 170 162 170c92 0 157 -73 159 -177c0 -5 -3 -8 -8 -8h-30
c-5 0 -8 3 -8 8c-3 82 -47 133 -113 133c-70 0 -115 -49 -115 -126v-378c0 -77 45 -126 115 -126c71 0 116 53 118 136c0 6 3 8 8 8h30c5 0 8 -2 8 -8c-3 -106 -68 -180 -164 -180z" />
    <glyph glyph-name="Ccedilla" unicode="&#xc7;" horiz-adv-x="413" 
d="M379 171c-3 -102 -64 -175 -155 -180l-7 -41c4 1 9 1 13 1c42 -2 74 -31 74 -72c0 -48 -36 -77 -86 -77c-47 0 -82 26 -85 70c-1 5 2 8 7 8h22c5 0 7 -3 8 -8c4 -22 22 -35 48 -35c28 0 48 16 48 42c0 23 -19 40 -43 40c-13 0 -25 -3 -36 -6c-3 -1 -5 0 -7 2l-2 1
c-2 2 -3 4 -3 7l14 70c-82 12 -136 77 -136 168v378c0 100 66 170 162 170c92 0 157 -73 159 -177c0 -5 -3 -8 -8 -8h-30c-5 0 -8 3 -8 8c-3 82 -47 133 -113 133c-70 0 -115 -49 -115 -126v-378c0 -77 45 -126 115 -126c71 0 116 53 118 136c0 6 3 8 8 8h30c5 0 8 -2 8 -8z
" />
    <glyph glyph-name="Cdotaccent" unicode="&#x10a;" horiz-adv-x="413" 
d="M210 777c-20 0 -33 14 -33 33c0 20 13 33 33 33c19 0 33 -13 33 -33c0 -18 -14 -33 -33 -33zM215 -9c-96 0 -162 70 -162 170v378c0 100 66 170 162 170c92 0 157 -73 159 -177c0 -5 -3 -8 -8 -8h-30c-5 0 -8 3 -8 8c-3 82 -47 133 -113 133c-70 0 -115 -49 -115 -126
v-378c0 -77 45 -126 115 -126c71 0 116 53 118 136c0 6 3 8 8 8h30c5 0 8 -2 8 -8c-3 -106 -68 -180 -164 -180z" />
    <glyph glyph-name="D" unicode="D" horiz-adv-x="446" 
d="M97 -2c-14 0 -23 9 -23 23v658c0 14 9 23 23 23h134c98 0 161 -72 161 -167v-366c0 -96 -64 -171 -161 -171h-134zM121 42h110c69 0 115 55 115 127v366c0 71 -45 123 -115 123h-110v-616z" />
    <glyph glyph-name="Eth" unicode="&#xd0;" horiz-adv-x="489" 
d="M275 702c98 0 161 -72 161 -167v-366c0 -96 -64 -171 -161 -171h-134c-14 0 -23 9 -23 23v313h-61c-5 0 -8 3 -8 8v26c0 5 3 9 8 9h61v302c0 14 9 23 23 23h134zM390 169v366c0 71 -45 123 -115 123h-110v-281h79c5 0 8 -4 8 -9v-26c0 -5 -3 -8 -8 -8h-79v-292h110
c69 0 115 55 115 127z" />
    <glyph glyph-name="Dcaron" unicode="&#x10e;" horiz-adv-x="446" 
d="M315 865l-75 -91c-2 -3 -6 -5 -10 -5h-40c-4 0 -8 2 -10 5l-75 91c-4 6 -1 10 5 10h25c4 0 7 -1 10 -4l65 -75l65 75c3 3 6 4 10 4h25c6 0 9 -4 5 -10zM97 -2c-14 0 -23 9 -23 23v658c0 14 9 23 23 23h134c98 0 161 -72 161 -167v-366c0 -96 -64 -171 -161 -171h-134z
M121 42h110c69 0 115 55 115 127v366c0 71 -45 123 -115 123h-110v-616z" />
    <glyph glyph-name="Dcroat" unicode="&#x110;" horiz-adv-x="489" 
d="M275 702c98 0 161 -72 161 -167v-366c0 -96 -64 -171 -161 -171h-134c-14 0 -23 9 -23 23v313h-61c-5 0 -8 3 -8 8v26c0 5 3 9 8 9h61v302c0 14 9 23 23 23h134zM390 169v366c0 71 -45 123 -115 123h-110v-281h79c5 0 8 -4 8 -9v-26c0 -5 -3 -8 -8 -8h-79v-292h110
c69 0 115 55 115 127z" />
    <glyph glyph-name="E" unicode="E" horiz-adv-x="360" 
d="M214 -2c-96 0 -161 73 -161 170v364c0 97 65 170 161 170h99c5 0 8 -3 8 -8v-27c0 -5 -3 -9 -8 -9h-99c-69 0 -114 -53 -114 -126v-155h190c5 0 9 -3 9 -8v-27c0 -5 -4 -8 -9 -8h-190v-166c0 -73 45 -126 114 -126h99c5 0 8 -4 8 -9v-27c0 -5 -3 -8 -8 -8h-99z" />
    <glyph glyph-name="Eacute" unicode="&#xc9;" horiz-adv-x="361" 
d="M176 769c-7 0 -9 5 -5 10l70 91c2 4 6 5 10 5h35c7 0 10 -5 5 -10l-81 -91c-2 -3 -6 -5 -10 -5h-24zM214 -2c-96 0 -161 73 -161 170v364c0 97 65 170 161 170h99c5 0 8 -3 8 -8v-27c0 -5 -3 -9 -8 -9h-99c-69 0 -114 -53 -114 -126v-155h190c5 0 9 -3 9 -8v-27
c0 -5 -4 -8 -9 -8h-190v-166c0 -73 45 -126 114 -126h99c5 0 8 -4 8 -9v-27c0 -5 -3 -8 -8 -8h-99z" />
    <glyph glyph-name="Ecaron" unicode="&#x11a;" horiz-adv-x="360" 
d="M312 865l-75 -91c-2 -3 -6 -5 -10 -5h-40c-4 0 -8 2 -10 5l-75 91c-4 6 -1 10 5 10h25c4 0 7 -1 10 -4l65 -75l65 75c3 3 6 4 10 4h25c6 0 9 -4 5 -10zM214 -2c-96 0 -161 73 -161 170v364c0 97 65 170 161 170h99c5 0 8 -3 8 -8v-27c0 -5 -3 -9 -8 -9h-99
c-69 0 -114 -53 -114 -126v-155h190c5 0 9 -3 9 -8v-27c0 -5 -4 -8 -9 -8h-190v-166c0 -73 45 -126 114 -126h99c5 0 8 -4 8 -9v-27c0 -5 -3 -8 -8 -8h-99z" />
    <glyph glyph-name="Ecircumflex" unicode="&#xca;" horiz-adv-x="360" 
d="M313 779c4 -6 1 -10 -5 -10h-25c-4 0 -7 1 -10 4l-65 75l-65 -75c-3 -3 -6 -4 -10 -4h-25c-6 0 -9 4 -5 10l75 91c2 3 6 5 10 5h40c4 0 8 -2 10 -5zM214 -2c-96 0 -161 73 -161 170v364c0 97 65 170 161 170h99c5 0 8 -3 8 -8v-27c0 -5 -3 -9 -8 -9h-99
c-69 0 -114 -53 -114 -126v-155h190c5 0 9 -3 9 -8v-27c0 -5 -4 -8 -9 -8h-190v-166c0 -73 45 -126 114 -126h99c5 0 8 -4 8 -9v-27c0 -5 -3 -8 -8 -8h-99z" />
    <glyph glyph-name="Edieresis" unicode="&#xcb;" horiz-adv-x="360" 
d="M159 787c-19 0 -32 13 -32 32s13 32 32 32s32 -13 32 -32s-13 -32 -32 -32zM258 787c-19 0 -32 13 -32 32s13 32 32 32s32 -13 32 -32s-13 -32 -32 -32zM214 -2c-96 0 -161 73 -161 170v364c0 97 65 170 161 170h99c5 0 8 -3 8 -8v-27c0 -5 -3 -9 -8 -9h-99
c-69 0 -114 -53 -114 -126v-155h190c5 0 9 -3 9 -8v-27c0 -5 -4 -8 -9 -8h-190v-166c0 -73 45 -126 114 -126h99c5 0 8 -4 8 -9v-27c0 -5 -3 -8 -8 -8h-99z" />
    <glyph glyph-name="Edotaccent" unicode="&#x116;" horiz-adv-x="360" 
d="M208 777c-20 0 -33 14 -33 33c0 20 13 33 33 33c19 0 33 -13 33 -33c0 -18 -14 -33 -33 -33zM214 -2c-96 0 -161 73 -161 170v364c0 97 65 170 161 170h99c5 0 8 -3 8 -8v-27c0 -5 -3 -9 -8 -9h-99c-69 0 -114 -53 -114 -126v-155h190c5 0 9 -3 9 -8v-27
c0 -5 -4 -8 -9 -8h-190v-166c0 -73 45 -126 114 -126h99c5 0 8 -4 8 -9v-27c0 -5 -3 -8 -8 -8h-99z" />
    <glyph glyph-name="Egrave" unicode="&#xc8;" horiz-adv-x="361" 
d="M242 769h-24c-4 0 -8 2 -10 5l-81 91c-5 5 -2 10 5 10h35c4 0 8 -1 10 -5l70 -91c4 -5 2 -10 -5 -10zM214 -2c-96 0 -161 73 -161 170v364c0 97 65 170 161 170h99c5 0 8 -3 8 -8v-27c0 -5 -3 -9 -8 -9h-99c-69 0 -114 -53 -114 -126v-155h190c5 0 9 -3 9 -8v-27
c0 -5 -4 -8 -9 -8h-190v-166c0 -73 45 -126 114 -126h99c5 0 8 -4 8 -9v-27c0 -5 -3 -8 -8 -8h-99z" />
    <glyph glyph-name="Emacron" unicode="&#x112;" horiz-adv-x="360" 
d="M128 828c0 5 3 8 8 8h143c5 0 8 -3 8 -8v-24c0 -5 -3 -9 -8 -9h-143c-5 0 -8 4 -8 9v24zM214 -2c-96 0 -161 73 -161 170v364c0 97 65 170 161 170h99c5 0 8 -3 8 -8v-27c0 -5 -3 -9 -8 -9h-99c-69 0 -114 -53 -114 -126v-155h190c5 0 9 -3 9 -8v-27c0 -5 -4 -8 -9 -8
h-190v-166c0 -73 45 -126 114 -126h99c5 0 8 -4 8 -9v-27c0 -5 -3 -8 -8 -8h-99z" />
    <glyph glyph-name="Eogonek" unicode="&#x118;" horiz-adv-x="362" 
d="M214 658c-69 0 -114 -53 -114 -126v-155h190c5 0 9 -3 9 -8v-27c0 -5 -4 -8 -9 -8h-190v-166c0 -73 45 -126 114 -126h99c5 0 8 -4 8 -9v-27c0 -5 -3 -8 -8 -8h-31c-38 -34 -62 -74 -62 -107c0 -31 23 -46 56 -46h11c5 0 8 -2 8 -7v-25c0 -5 -2 -8 -7 -9
c-8 -1 -17 -2 -24 -2c-60 0 -86 38 -86 78c0 39 24 78 59 118h-23c-96 0 -161 73 -161 170v364c0 97 65 170 161 170h99c5 0 8 -3 8 -8v-27c0 -5 -3 -9 -8 -9h-99z" />
    <glyph glyph-name="F" unicode="F" horiz-adv-x="344" 
d="M74 0c-5 0 -9 3 -9 8v526c0 93 65 166 162 166h83c5 0 9 -3 9 -8v-27c0 -5 -4 -9 -9 -9h-83c-70 0 -115 -53 -115 -122v-166h178c5 0 9 -3 9 -8v-27c0 -5 -4 -8 -9 -8h-178v-317c0 -5 -3 -8 -8 -8h-30z" />
    <glyph glyph-name="G" unicode="G" horiz-adv-x="431" 
d="M220 -9c-96 0 -167 73 -167 176v360c0 109 68 182 165 182c95 0 160 -71 163 -167c0 -5 -3 -8 -8 -8h-30c-5 0 -8 3 -8 8c-4 72 -50 123 -117 123c-70 0 -118 -53 -118 -139v-359c0 -79 51 -132 120 -132c70 0 121 53 121 126v164h-107c-5 0 -8 3 -8 8v27c0 5 3 8 8 8
h130c15 0 23 -8 23 -23v-184c0 -97 -71 -170 -167 -170z" />
    <glyph glyph-name="Gbreve" unicode="&#x11e;" horiz-adv-x="431" 
d="M210 768c-61 0 -103 38 -107 96c0 5 3 9 8 9h25c5 0 8 -3 9 -9c3 -35 27 -56 65 -56c39 0 63 21 66 56c0 6 4 9 9 9h25c5 0 8 -3 8 -9c-4 -57 -45 -96 -108 -96zM220 -9c-96 0 -167 73 -167 176v360c0 109 68 182 165 182c95 0 160 -71 163 -167c0 -5 -3 -8 -8 -8h-30
c-5 0 -8 3 -8 8c-4 72 -50 123 -117 123c-70 0 -118 -53 -118 -139v-359c0 -79 51 -132 120 -132c70 0 121 53 121 126v164h-107c-5 0 -8 3 -8 8v27c0 5 3 8 8 8h130c15 0 23 -8 23 -23v-184c0 -97 -71 -170 -167 -170z" />
    <glyph glyph-name="Gcommaaccent" unicode="&#x122;" horiz-adv-x="431" 
d="M220 -9c-96 0 -167 73 -167 176v360c0 109 68 182 165 182c95 0 160 -71 163 -167c0 -5 -3 -8 -8 -8h-30c-5 0 -8 3 -8 8c-4 72 -50 123 -117 123c-70 0 -118 -53 -118 -139v-359c0 -79 51 -132 120 -132c70 0 121 53 121 126v164h-107c-5 0 -8 3 -8 8v27c0 5 3 8 8 8
h130c15 0 23 -8 23 -23v-184c0 -97 -71 -170 -167 -170zM189 -70c0 6 4 8 9 8h35c5 0 8 -3 7 -9l-26 -147c0 -5 -4 -8 -9 -8h-18c-5 0 -7 3 -7 9z" />
    <glyph glyph-name="Gdotaccent" unicode="&#x120;" horiz-adv-x="431" 
d="M210 777c-20 0 -33 14 -33 33c0 20 13 33 33 33c19 0 33 -13 33 -33c0 -18 -14 -33 -33 -33zM220 -9c-96 0 -167 73 -167 176v360c0 109 68 182 165 182c95 0 160 -71 163 -167c0 -5 -3 -8 -8 -8h-30c-5 0 -8 3 -8 8c-4 72 -50 123 -117 123c-70 0 -118 -53 -118 -139
v-359c0 -79 51 -132 120 -132c70 0 121 53 121 126v164h-107c-5 0 -8 3 -8 8v27c0 5 3 8 8 8h130c15 0 23 -8 23 -23v-184c0 -97 -71 -170 -167 -170z" />
    <glyph glyph-name="H" unicode="H" horiz-adv-x="459" 
d="M339 692c0 5 3 8 8 8h30c5 0 8 -3 8 -8v-684c0 -5 -3 -8 -8 -8h-30c-5 0 -8 3 -8 8v326h-218v-326c0 -5 -4 -8 -9 -8h-30c-5 0 -8 3 -8 8v684c0 5 3 8 8 8h30c5 0 9 -3 9 -8v-315h218v315z" />
    <glyph glyph-name="Hbar" unicode="&#x126;" horiz-adv-x="521" 
d="M464 561c5 0 8 -4 8 -9v-19c0 -5 -3 -9 -8 -9h-48v-516c0 -5 -4 -8 -9 -8h-30c-5 0 -8 3 -8 8v326h-217v-326c0 -5 -3 -8 -8 -8h-30c-5 0 -8 3 -8 8v516h-49c-5 0 -8 4 -8 9v19c0 5 3 9 8 9h49v131c0 5 3 8 8 8h30c5 0 8 -3 8 -8v-131h217v131c0 5 3 8 8 8h30
c5 0 9 -3 9 -8v-131h48zM369 377v147h-217v-147h217z" />
    <glyph glyph-name="I" unicode="I" horiz-adv-x="195" 
d="M74 692c0 5 3 8 8 8h30c5 0 9 -3 9 -8v-684c0 -5 -4 -8 -9 -8h-30c-5 0 -8 3 -8 8v684z" />
    <glyph glyph-name="Iacute" unicode="&#xcd;" horiz-adv-x="210" 
d="M77 769c-7 0 -9 5 -5 10l70 91c2 4 6 5 10 5h35c7 0 10 -5 5 -10l-81 -91c-2 -3 -6 -5 -10 -5h-24zM82 692c0 5 3 8 8 8h30c5 0 9 -3 9 -8v-684c0 -5 -4 -8 -9 -8h-30c-5 0 -8 3 -8 8v684z" />
    <glyph glyph-name="Icircumflex" unicode="&#xce;" horiz-adv-x="235" 
d="M222 779c4 -6 1 -10 -5 -10h-25c-4 0 -7 1 -10 4l-65 75l-65 -75c-3 -3 -6 -4 -10 -4h-25c-6 0 -9 4 -5 10l75 91c2 3 6 5 10 5h40c4 0 8 -2 10 -5zM94 692c0 5 3 8 8 8h30c5 0 9 -3 9 -8v-684c0 -5 -4 -8 -9 -8h-30c-5 0 -8 3 -8 8v684z" />
    <glyph glyph-name="Idieresis" unicode="&#xcf;" horiz-adv-x="195" 
d="M48 787c-19 0 -32 13 -32 32s13 32 32 32s32 -13 32 -32s-13 -32 -32 -32zM147 787c-19 0 -32 13 -32 32s13 32 32 32s32 -13 32 -32s-13 -32 -32 -32zM74 692c0 5 3 8 8 8h30c5 0 9 -3 9 -8v-684c0 -5 -4 -8 -9 -8h-30c-5 0 -8 3 -8 8v684z" />
    <glyph glyph-name="Idotaccent" unicode="&#x130;" horiz-adv-x="195" 
d="M97 777c-20 0 -33 14 -33 33c0 20 13 33 33 33c19 0 33 -13 33 -33c0 -18 -14 -33 -33 -33zM74 692c0 5 3 8 8 8h30c5 0 9 -3 9 -8v-684c0 -5 -4 -8 -9 -8h-30c-5 0 -8 3 -8 8v684z" />
    <glyph glyph-name="Igrave" unicode="&#xcc;" horiz-adv-x="195" 
d="M143 769h-24c-4 0 -8 2 -10 5l-81 91c-5 5 -2 10 5 10h35c4 0 8 -1 10 -5l70 -91c4 -5 2 -10 -5 -10zM74 692c0 5 3 8 8 8h30c5 0 9 -3 9 -8v-684c0 -5 -4 -8 -9 -8h-30c-5 0 -8 3 -8 8v684z" />
    <glyph glyph-name="Imacron" unicode="&#x12a;" horiz-adv-x="195" 
d="M17 828c0 5 3 8 8 8h143c5 0 8 -3 8 -8v-24c0 -5 -3 -9 -8 -9h-143c-5 0 -8 4 -8 9v24zM74 692c0 5 3 8 8 8h30c5 0 9 -3 9 -8v-684c0 -5 -4 -8 -9 -8h-30c-5 0 -8 3 -8 8v684z" />
    <glyph glyph-name="Iogonek" unicode="&#x12e;" horiz-adv-x="191" 
d="M136 -155c5 0 8 -2 8 -7v-25c0 -5 -2 -8 -7 -9c-8 -1 -17 -2 -24 -2c-65 0 -92 39 -92 79s23 83 57 119c-3 0 -6 3 -6 8v684c0 5 4 8 9 8h30c5 0 8 -3 8 -8v-684c0 -5 -3 -8 -6 -8c-32 -33 -51 -73 -51 -106c0 -34 26 -49 63 -49h11z" />
    <glyph glyph-name="J" unicode="J" horiz-adv-x="405" 
d="M180 -9c-96 0 -157 75 -160 180c0 5 3 8 8 8h30c5 0 9 -2 9 -8c2 -81 43 -136 114 -136c75 0 112 53 112 141v516c0 5 3 8 8 8h30c5 0 8 -3 8 -8v-516c0 -112 -53 -185 -159 -185z" />
    <glyph glyph-name="K" unicode="K" horiz-adv-x="449" 
d="M82 0c-5 0 -8 3 -8 8v684c0 5 3 8 8 8h30c5 0 9 -3 9 -8v-313h109l119 314c1 4 6 7 10 7h30c6 0 8 -4 6 -9l-121 -319c70 -19 115 -85 115 -168v-196c0 -5 -3 -8 -8 -8h-30c-5 0 -8 3 -8 8v196c0 76 -48 131 -114 131h-108v-327c0 -5 -4 -8 -9 -8h-30z" />
    <glyph glyph-name="Kcommaaccent" unicode="&#x136;" horiz-adv-x="449" 
d="M82 0c-5 0 -8 3 -8 8v684c0 5 3 8 8 8h30c5 0 9 -3 9 -8v-313h109l119 314c1 4 6 7 10 7h30c6 0 8 -4 6 -9l-121 -319c70 -19 115 -85 115 -168v-196c0 -5 -3 -8 -8 -8h-30c-5 0 -8 3 -8 8v196c0 76 -48 131 -114 131h-108v-327c0 -5 -4 -8 -9 -8h-30zM211 -70
c0 6 4 8 9 8h35c5 0 8 -3 7 -9l-26 -147c0 -5 -4 -8 -9 -8h-18c-5 0 -7 3 -7 9z" />
    <glyph glyph-name="L" unicode="L" horiz-adv-x="337" 
d="M224 42h85c5 0 8 -3 8 -8v-27c0 -5 -3 -8 -8 -8h-85c-94 0 -159 74 -159 169v524c0 5 4 8 9 8h30c5 0 8 -3 8 -8v-524c0 -70 45 -126 112 -126z" />
    <glyph glyph-name="Lacute" unicode="&#x139;" horiz-adv-x="337" 
d="M63 769c-7 0 -9 5 -5 10l70 91c2 4 6 5 10 5h35c7 0 10 -5 5 -10l-81 -91c-2 -3 -6 -5 -10 -5h-24zM224 42h85c5 0 8 -3 8 -8v-27c0 -5 -3 -8 -8 -8h-85c-94 0 -159 74 -159 169v524c0 5 4 8 9 8h30c5 0 8 -3 8 -8v-524c0 -70 45 -126 112 -126z" />
    <glyph glyph-name="Lcaron" unicode="&#x13d;" horiz-adv-x="330" 
d="M199 556c-5 0 -7 3 -7 9l8 129c0 6 4 8 9 8h35c5 0 8 -4 7 -9l-23 -129c-1 -5 -5 -8 -10 -8h-19zM220 0c-94 0 -158 75 -158 169v523c0 5 3 8 8 8h30c5 0 8 -3 8 -8v-523c0 -70 45 -125 112 -125h85c5 0 8 -4 8 -9v-27c0 -5 -3 -8 -8 -8h-85z" />
    <glyph glyph-name="Lcommaaccent" unicode="&#x13b;" horiz-adv-x="337" 
d="M224 42h85c5 0 8 -3 8 -8v-27c0 -5 -3 -8 -8 -8h-85c-94 0 -159 74 -159 169v524c0 5 4 8 9 8h30c5 0 8 -3 8 -8v-524c0 -70 45 -126 112 -126zM150 -70c0 6 4 8 9 8h35c5 0 8 -3 7 -9l-26 -147c0 -5 -4 -8 -9 -8h-18c-5 0 -7 3 -7 9z" />
    <glyph glyph-name="Lslash" unicode="&#x141;" horiz-adv-x="403" 
d="M382 42c5 0 8 -3 8 -8v-27c0 -5 -3 -8 -8 -8h-85c-94 0 -159 74 -159 169v166l-88 -34c-5 -2 -10 1 -10 7v30c0 4 3 7 7 9l91 35v311c0 5 4 8 9 8h30c5 0 8 -3 8 -8v-293l116 44c6 3 10 -1 10 -6v-30c0 -4 -3 -8 -7 -10l-119 -45v-184c0 -70 45 -126 112 -126h85z" />
    <glyph glyph-name="M" unicode="M" horiz-adv-x="684" 
d="M468 709c94 0 151 -71 151 -176v-525c0 -5 -4 -8 -9 -8h-30c-5 0 -8 3 -8 8v525c0 82 -37 132 -104 132c-61 0 -103 -51 -103 -132v-525c0 -5 -3 -8 -8 -8h-30c-5 0 -8 3 -8 8v525c0 81 -43 132 -103 132c-68 0 -104 -50 -104 -132v-525c0 -5 -3 -8 -8 -8h-30
c-5 0 -9 3 -9 8v525c0 105 56 176 151 176c64 0 102 -38 126 -90c24 52 63 90 126 90z" />
    <glyph glyph-name="N" unicode="N" horiz-adv-x="453" 
d="M74 0c-5 0 -9 3 -9 8v523c0 105 64 178 162 178c97 0 161 -73 161 -178v-523c0 -5 -3 -8 -8 -8h-30c-5 0 -9 3 -9 8v523c0 81 -45 134 -114 134c-70 0 -115 -53 -115 -134v-523c0 -5 -3 -8 -8 -8h-30z" />
    <glyph glyph-name="Nacute" unicode="&#x143;" horiz-adv-x="453" 
d="M200 769c-7 0 -9 5 -5 10l70 91c2 4 6 5 10 5h35c7 0 10 -5 5 -10l-81 -91c-2 -3 -6 -5 -10 -5h-24zM74 0c-5 0 -9 3 -9 8v523c0 105 64 178 162 178c97 0 161 -73 161 -178v-523c0 -5 -3 -8 -8 -8h-30c-5 0 -9 3 -9 8v523c0 81 -45 134 -114 134
c-70 0 -115 -53 -115 -134v-523c0 -5 -3 -8 -8 -8h-30z" />
    <glyph glyph-name="Ncaron" unicode="&#x147;" horiz-adv-x="453" 
d="M333 865l-75 -91c-2 -3 -6 -5 -10 -5h-40c-4 0 -8 2 -10 5l-75 91c-4 6 -1 10 5 10h25c4 0 7 -1 10 -4l65 -75l65 75c3 3 6 4 10 4h25c6 0 9 -4 5 -10zM74 0c-5 0 -9 3 -9 8v523c0 105 64 178 162 178c97 0 161 -73 161 -178v-523c0 -5 -3 -8 -8 -8h-30c-5 0 -9 3 -9 8
v523c0 81 -45 134 -114 134c-70 0 -115 -53 -115 -134v-523c0 -5 -3 -8 -8 -8h-30z" />
    <glyph glyph-name="Ncommaaccent" unicode="&#x145;" horiz-adv-x="453" 
d="M74 0c-5 0 -9 3 -9 8v523c0 105 64 178 162 178c97 0 161 -73 161 -178v-523c0 -5 -3 -8 -8 -8h-30c-5 0 -9 3 -9 8v523c0 81 -45 134 -114 134c-70 0 -115 -53 -115 -134v-523c0 -5 -3 -8 -8 -8h-30zM209 -70c0 6 4 8 9 8h35c5 0 8 -3 7 -9l-26 -147c0 -5 -4 -8 -9 -8
h-18c-5 0 -7 3 -7 9z" />
    <glyph glyph-name="Eng" unicode="&#x14a;" horiz-adv-x="453" 
d="M240 -204c-5 0 -9 3 -9 8v30c0 5 3 8 9 8c73 3 101 49 101 124v565c0 81 -45 134 -114 134c-70 0 -115 -53 -115 -134v-523c0 -5 -3 -8 -8 -8h-30c-5 0 -9 3 -9 8v523c0 105 64 178 162 178c97 0 161 -73 161 -178v-565c0 -100 -48 -167 -148 -170z" />
    <glyph glyph-name="Ntilde" unicode="&#xd1;" horiz-adv-x="453" 
d="M189 814c-14 0 -22 -11 -24 -30c-1 -6 -4 -8 -9 -8h-24c-5 0 -8 3 -8 8c3 42 28 68 62 68c41 0 56 -39 81 -39c14 0 23 11 24 30c1 6 4 8 9 8h24c5 0 8 -3 8 -8c-3 -42 -29 -68 -62 -68c-39 0 -54 39 -81 39zM74 0c-5 0 -9 3 -9 8v523c0 105 64 178 162 178
c97 0 161 -73 161 -178v-523c0 -5 -3 -8 -8 -8h-30c-5 0 -9 3 -9 8v523c0 81 -45 134 -114 134c-70 0 -115 -53 -115 -134v-523c0 -5 -3 -8 -8 -8h-30z" />
    <glyph glyph-name="O" unicode="O" horiz-adv-x="441" 
d="M220 -8c-99 0 -167 72 -167 184v347c0 113 68 185 167 185c100 0 167 -72 167 -178v-360c0 -106 -67 -178 -167 -178zM220 35c72 0 121 54 121 135v360c0 81 -49 135 -121 135s-120 -54 -120 -142v-347c0 -87 48 -141 120 -141z" />
    <glyph glyph-name="Oacute" unicode="&#xd3;" horiz-adv-x="441" 
d="M191 769c-7 0 -9 5 -5 10l70 91c2 4 6 5 10 5h35c7 0 10 -5 5 -10l-81 -91c-2 -3 -6 -5 -10 -5h-24zM220 -8c-99 0 -167 72 -167 184v347c0 113 68 185 167 185c100 0 167 -72 167 -178v-360c0 -106 -67 -178 -167 -178zM220 35c72 0 121 54 121 135v360
c0 81 -49 135 -121 135s-120 -54 -120 -142v-347c0 -87 48 -141 120 -141z" />
    <glyph glyph-name="Ocircumflex" unicode="&#xd4;" horiz-adv-x="441" 
d="M325 779c4 -6 1 -10 -5 -10h-25c-4 0 -7 1 -10 4l-65 75l-65 -75c-3 -3 -6 -4 -10 -4h-25c-6 0 -9 4 -5 10l75 91c2 3 6 5 10 5h40c4 0 8 -2 10 -5zM220 -8c-99 0 -167 72 -167 184v347c0 113 68 185 167 185c100 0 167 -72 167 -178v-360c0 -106 -67 -178 -167 -178z
M220 35c72 0 121 54 121 135v360c0 81 -49 135 -121 135s-120 -54 -120 -142v-347c0 -87 48 -141 120 -141z" />
    <glyph glyph-name="Odieresis" unicode="&#xd6;" horiz-adv-x="441" 
d="M171 787c-19 0 -32 13 -32 32s13 32 32 32s32 -13 32 -32s-13 -32 -32 -32zM270 787c-19 0 -32 13 -32 32s13 32 32 32s32 -13 32 -32s-13 -32 -32 -32zM220 -8c-99 0 -167 72 -167 184v347c0 113 68 185 167 185c100 0 167 -72 167 -178v-360c0 -106 -67 -178 -167 -178
zM220 35c72 0 121 54 121 135v360c0 81 -49 135 -121 135s-120 -54 -120 -142v-347c0 -87 48 -141 120 -141z" />
    <glyph glyph-name="Ograve" unicode="&#xd2;" horiz-adv-x="441" 
d="M266 769h-24c-4 0 -8 2 -10 5l-81 91c-5 5 -2 10 5 10h35c4 0 8 -1 10 -5l70 -91c4 -5 2 -10 -5 -10zM220 -8c-99 0 -167 72 -167 184v347c0 113 68 185 167 185c100 0 167 -72 167 -178v-360c0 -106 -67 -178 -167 -178zM220 35c72 0 121 54 121 135v360
c0 81 -49 135 -121 135s-120 -54 -120 -142v-347c0 -87 48 -141 120 -141z" />
    <glyph glyph-name="Ohungarumlaut" unicode="&#x150;" horiz-adv-x="441" 
d="M126 769c-7 0 -9 5 -5 10l70 91c2 4 6 5 10 5h35c7 0 10 -5 5 -10l-81 -91c-2 -3 -6 -5 -10 -5h-24zM226 769c-7 0 -9 5 -5 10l70 91c2 4 6 5 10 5h35c7 0 10 -5 5 -10l-81 -91c-2 -3 -6 -5 -10 -5h-24zM220 -8c-99 0 -167 72 -167 184v347c0 113 68 185 167 185
c100 0 167 -72 167 -178v-360c0 -106 -67 -178 -167 -178zM220 35c72 0 121 54 121 135v360c0 81 -49 135 -121 135s-120 -54 -120 -142v-347c0 -87 48 -141 120 -141z" />
    <glyph glyph-name="Omacron" unicode="&#x14c;" horiz-adv-x="441" 
d="M140 828c0 5 3 8 8 8h143c5 0 8 -3 8 -8v-24c0 -5 -3 -9 -8 -9h-143c-5 0 -8 4 -8 9v24zM220 -8c-99 0 -167 72 -167 184v347c0 113 68 185 167 185c100 0 167 -72 167 -178v-360c0 -106 -67 -178 -167 -178zM220 35c72 0 121 54 121 135v360c0 81 -49 135 -121 135
s-120 -54 -120 -142v-347c0 -87 48 -141 120 -141z" />
    <glyph glyph-name="Oslash" unicode="&#xd8;" horiz-adv-x="442" 
d="M88 -45c-6 0 -9 3 -8 9l22 75c-31 33 -49 80 -49 137v347c0 113 68 185 168 185c26 0 50 -4 71 -14l13 44c2 4 4 7 9 7h27c5 0 9 -3 7 -9l-19 -66c37 -30 60 -79 60 -140v-360c0 -106 -68 -178 -168 -178c-31 0 -60 7 -83 21l-15 -51c-2 -4 -4 -7 -9 -7h-26zM119 97
l160 554c-16 8 -36 14 -58 14c-72 0 -120 -54 -120 -142v-347c0 -31 6 -58 18 -79zM221 35c72 0 120 54 120 135v360c0 36 -10 66 -28 85l-162 -557c19 -15 42 -23 70 -23z" />
    <glyph glyph-name="Otilde" unicode="&#xd5;" horiz-adv-x="441" 
d="M180 814c-14 0 -22 -11 -24 -30c-1 -6 -4 -8 -9 -8h-24c-5 0 -8 3 -8 8c3 42 28 68 62 68c41 0 56 -39 81 -39c14 0 23 11 24 30c1 6 4 8 9 8h24c5 0 8 -3 8 -8c-3 -42 -29 -68 -62 -68c-39 0 -54 39 -81 39zM220 -8c-99 0 -167 72 -167 184v347c0 113 68 185 167 185
c100 0 167 -72 167 -178v-360c0 -106 -67 -178 -167 -178zM220 35c72 0 121 54 121 135v360c0 81 -49 135 -121 135s-120 -54 -120 -142v-347c0 -87 48 -141 120 -141z" />
    <glyph glyph-name="OE" unicode="&#x152;" horiz-adv-x="620" 
d="M208 -8c-91 0 -155 72 -155 171v374c0 99 64 171 155 171c64 0 112 -36 134 -93c23 53 69 87 132 87h99c5 0 8 -3 8 -8v-27c0 -5 -3 -8 -8 -8h-99c-67 0 -111 -56 -111 -130v-152h179c5 0 8 -3 8 -8v-26c0 -5 -3 -9 -8 -9h-179v-163c0 -74 44 -129 111 -129h99
c5 0 8 -4 8 -9v-27c0 -5 -3 -8 -8 -8h-99c-63 0 -109 34 -132 87c-22 -57 -70 -93 -134 -93zM208 36c65 0 109 55 109 133v362c0 78 -44 133 -109 133c-64 0 -108 -52 -108 -127v-374c0 -75 44 -127 108 -127z" />
    <glyph glyph-name="P" unicode="P" horiz-adv-x="416" 
d="M74 0c-5 0 -9 3 -9 8v526c0 102 60 175 157 175s158 -73 158 -175v-104c0 -95 -65 -163 -158 -163h-110v-259c0 -5 -3 -8 -8 -8h-30zM112 311h110c65 0 111 47 111 119v104c0 78 -42 131 -111 131c-68 0 -110 -53 -110 -131v-223z" />
    <glyph glyph-name="Thorn" unicode="&#xde;" horiz-adv-x="415" 
d="M82 0c-5 0 -8 3 -8 8v684c0 5 3 9 8 9h30c5 0 9 -4 9 -9v-128h105c84 0 153 -70 153 -158v-111c0 -88 -69 -158 -153 -158h-105v-129c0 -5 -4 -8 -9 -8h-30zM121 180h105c58 0 106 48 106 112v116c0 64 -48 112 -106 112h-105v-340z" />
    <glyph glyph-name="Q" unicode="Q" horiz-adv-x="446" 
d="M390 8c4 -4 3 -9 0 -12l-16 -17c-4 -3 -9 -3 -12 0l-42 43c-27 -19 -61 -30 -99 -30c-100 0 -168 72 -168 178v360c0 106 68 178 168 178s168 -72 168 -178v-360c0 -49 -14 -90 -40 -121zM221 35c26 0 48 7 67 19l-53 54c-4 3 -3 8 0 12l16 16c4 4 9 3 12 0l53 -54
c16 23 25 53 25 88v360c0 81 -48 135 -120 135s-120 -54 -120 -135v-360c0 -81 48 -135 120 -135z" />
    <glyph glyph-name="R" unicode="R" horiz-adv-x="437" 
d="M74 0c-5 0 -9 3 -9 8v526c0 102 66 175 160 175s160 -73 160 -175v-73c0 -86 -50 -148 -112 -165l125 -286c2 -6 -1 -10 -7 -10h-33c-4 0 -7 2 -9 7l-120 281h-117v-280c0 -5 -3 -8 -8 -8h-30zM112 332h113c68 0 114 53 114 129v73c0 78 -46 131 -114 131
c-67 0 -113 -53 -113 -131v-202z" />
    <glyph glyph-name="Racute" unicode="&#x154;" horiz-adv-x="437" 
d="M191 769c-7 0 -9 5 -5 10l70 91c2 4 6 5 10 5h35c7 0 10 -5 5 -10l-81 -91c-2 -3 -6 -5 -10 -5h-24zM74 0c-5 0 -9 3 -9 8v526c0 102 66 175 160 175s160 -73 160 -175v-73c0 -86 -50 -148 -112 -165l125 -286c2 -6 -1 -10 -7 -10h-33c-4 0 -7 2 -9 7l-120 281h-117v-280
c0 -5 -3 -8 -8 -8h-30zM112 332h113c68 0 114 53 114 129v73c0 78 -46 131 -114 131c-67 0 -113 -53 -113 -131v-202z" />
    <glyph glyph-name="Rcaron" unicode="&#x158;" horiz-adv-x="437" 
d="M324 865l-75 -91c-2 -3 -6 -5 -10 -5h-40c-4 0 -8 2 -10 5l-75 91c-4 6 -1 10 5 10h25c4 0 7 -1 10 -4l65 -75l65 75c3 3 6 4 10 4h25c6 0 9 -4 5 -10zM74 0c-5 0 -9 3 -9 8v526c0 102 66 175 160 175s160 -73 160 -175v-73c0 -86 -50 -148 -112 -165l125 -286
c2 -6 -1 -10 -7 -10h-33c-4 0 -7 2 -9 7l-120 281h-117v-280c0 -5 -3 -8 -8 -8h-30zM112 332h113c68 0 114 53 114 129v73c0 78 -46 131 -114 131c-67 0 -113 -53 -113 -131v-202z" />
    <glyph glyph-name="Rcommaaccent" unicode="&#x156;" horiz-adv-x="437" 
d="M74 0c-5 0 -9 3 -9 8v526c0 102 66 175 160 175s160 -73 160 -175v-73c0 -86 -50 -148 -112 -165l125 -286c2 -6 -1 -10 -7 -10h-33c-4 0 -7 2 -9 7l-120 281h-117v-280c0 -5 -3 -8 -8 -8h-30zM112 332h113c68 0 114 53 114 129v73c0 78 -46 131 -114 131
c-67 0 -113 -53 -113 -131v-202zM200 -70c0 6 4 8 9 8h35c5 0 8 -3 7 -9l-26 -147c0 -5 -4 -8 -9 -8h-18c-5 0 -7 3 -7 9z" />
    <glyph glyph-name="S" unicode="S" horiz-adv-x="407" 
d="M204 -9c-97 0 -162 73 -164 180c0 5 4 8 9 8h30c5 0 8 -3 8 -8c3 -86 44 -136 117 -136c75 0 116 44 116 115c0 179 -275 209 -275 404c0 93 64 155 158 155c89 0 153 -70 156 -177c0 -5 -3 -8 -8 -8h-30c-5 0 -9 3 -9 8c-3 89 -44 133 -109 133
c-69 0 -111 -40 -111 -111c0 -167 275 -198 275 -404c0 -93 -64 -159 -163 -159z" />
    <glyph glyph-name="Sacute" unicode="&#x15a;" horiz-adv-x="407" 
d="M179 769c-7 0 -9 5 -5 10l70 91c2 4 6 5 10 5h35c7 0 10 -5 5 -10l-81 -91c-2 -3 -6 -5 -10 -5h-24zM204 -9c-97 0 -162 73 -164 180c0 5 4 8 9 8h30c5 0 8 -3 8 -8c3 -86 44 -136 117 -136c75 0 116 44 116 115c0 179 -275 209 -275 404c0 93 64 155 158 155
c89 0 153 -70 156 -177c0 -5 -3 -8 -8 -8h-30c-5 0 -9 3 -9 8c-3 89 -44 133 -109 133c-69 0 -111 -40 -111 -111c0 -167 275 -198 275 -404c0 -93 -64 -159 -163 -159z" />
    <glyph glyph-name="Scaron" unicode="&#x160;" horiz-adv-x="407" 
d="M312 865l-75 -91c-2 -3 -6 -5 -10 -5h-40c-4 0 -8 2 -10 5l-75 91c-4 6 -1 10 5 10h25c4 0 7 -1 10 -4l65 -75l65 75c3 3 6 4 10 4h25c6 0 9 -4 5 -10zM204 -9c-97 0 -162 73 -164 180c0 5 4 8 9 8h30c5 0 8 -3 8 -8c3 -86 44 -136 117 -136c75 0 116 44 116 115
c0 179 -275 209 -275 404c0 93 64 155 158 155c89 0 153 -70 156 -177c0 -5 -3 -8 -8 -8h-30c-5 0 -9 3 -9 8c-3 89 -44 133 -109 133c-69 0 -111 -40 -111 -111c0 -167 275 -198 275 -404c0 -93 -64 -159 -163 -159z" />
    <glyph glyph-name="Scedilla" unicode="&#x15e;" horiz-adv-x="407" 
d="M367 150c0 -88 -57 -151 -147 -158l-7 -42c4 1 9 1 13 1c42 -2 74 -31 74 -72c0 -48 -36 -77 -86 -77c-47 0 -82 26 -85 70c-1 5 2 8 7 8h22c5 0 7 -3 8 -8c4 -22 22 -35 48 -35c28 0 48 16 48 42c0 23 -19 40 -43 40c-13 0 -25 -3 -36 -6c-3 -1 -5 0 -7 2l-2 1
c-2 2 -3 4 -3 7l13 69c-86 9 -142 79 -144 179c0 5 4 8 9 8h30c5 0 8 -3 8 -8c3 -86 44 -136 117 -136c75 0 116 44 116 115c0 179 -275 209 -275 404c0 93 64 155 158 155c89 0 153 -70 156 -177c0 -5 -3 -8 -8 -8h-30c-5 0 -9 3 -9 8c-3 89 -44 133 -109 133
c-69 0 -111 -40 -111 -111c0 -167 275 -198 275 -404z" />
    <glyph glyph-name="Scommaaccent" unicode="&#x218;" horiz-adv-x="407" 
d="M204 -9c-97 0 -162 73 -164 180c0 5 4 8 9 8h30c5 0 8 -3 8 -8c3 -86 44 -136 117 -136c75 0 116 44 116 115c0 179 -275 209 -275 404c0 93 64 155 158 155c89 0 153 -70 156 -177c0 -5 -3 -8 -8 -8h-30c-5 0 -9 3 -9 8c-3 89 -44 133 -109 133
c-69 0 -111 -40 -111 -111c0 -167 275 -198 275 -404c0 -93 -64 -159 -163 -159zM198 -70c0 6 4 8 9 8h35c5 0 8 -3 7 -9l-26 -147c0 -5 -4 -8 -9 -8h-18c-5 0 -7 3 -7 9z" />
    <glyph glyph-name="T" unicode="T" horiz-adv-x="353" 
d="M325 700c5 0 8 -3 8 -8v-27c0 -5 -3 -9 -8 -9h-125v-648c0 -5 -3 -8 -8 -8h-30c-5 0 -9 3 -9 8v648h-125c-5 0 -8 4 -8 9v27c0 5 3 8 8 8h297z" />
    <glyph glyph-name="Tbar" unicode="&#x166;" horiz-adv-x="353" 
d="M325 700c5 0 8 -3 8 -8v-27c0 -5 -3 -8 -8 -8h-125v-255h75c5 0 8 -4 8 -9v-22c0 -5 -3 -8 -8 -8h-75v-355c0 -5 -3 -8 -8 -8h-30c-5 0 -9 3 -9 8v355h-75c-5 0 -8 3 -8 8v22c0 5 3 9 8 9h75v255h-125c-5 0 -8 3 -8 8v27c0 5 3 8 8 8h297z" />
    <glyph glyph-name="Tcaron" unicode="&#x164;" horiz-adv-x="353" 
d="M281 865l-75 -91c-2 -3 -6 -5 -10 -5h-40c-4 0 -8 2 -10 5l-75 91c-4 6 -1 10 5 10h25c4 0 7 -1 10 -4l65 -75l65 75c3 3 6 4 10 4h25c6 0 9 -4 5 -10zM325 700c5 0 8 -3 8 -8v-27c0 -5 -3 -9 -8 -9h-125v-648c0 -5 -3 -8 -8 -8h-30c-5 0 -9 3 -9 8v648h-125
c-5 0 -8 4 -8 9v27c0 5 3 8 8 8h297z" />
    <glyph glyph-name="uni0162" unicode="&#x162;" horiz-adv-x="353" 
d="M325 700c5 0 8 -3 8 -8v-27c0 -5 -3 -9 -8 -9h-125v-648c0 -5 -3 -8 -8 -8h-30c-5 0 -9 3 -9 8v648h-125c-5 0 -8 4 -8 9v27c0 5 3 8 8 8h297zM157 -70c0 6 4 8 9 8h35c5 0 8 -3 7 -9l-26 -147c0 -5 -4 -8 -9 -8h-18c-5 0 -7 3 -7 9z" />
    <glyph glyph-name="uni021A" unicode="&#x21a;" horiz-adv-x="353" 
d="M325 700c5 0 8 -3 8 -8v-27c0 -5 -3 -9 -8 -9h-125v-648c0 -5 -3 -8 -8 -8h-30c-5 0 -9 3 -9 8v648h-125c-5 0 -8 4 -8 9v27c0 5 3 8 8 8h297zM159 -70c0 6 4 8 9 8h35c5 0 8 -3 7 -9l-26 -147c0 -5 -4 -8 -9 -8h-18c-5 0 -7 3 -7 9z" />
    <glyph glyph-name="U" unicode="U" horiz-adv-x="453" 
d="M74 700h30c5 0 8 -3 8 -8v-523c0 -81 45 -134 115 -134c69 0 114 53 114 134v523c0 5 4 8 9 8h30c5 0 8 -3 8 -8v-523c0 -105 -64 -178 -161 -178c-98 0 -162 73 -162 178v523c0 5 4 8 9 8z" />
    <glyph glyph-name="Uacute" unicode="&#xda;" horiz-adv-x="453" 
d="M194 769c-7 0 -9 5 -5 10l70 91c2 4 6 5 10 5h35c7 0 10 -5 5 -10l-81 -91c-2 -3 -6 -5 -10 -5h-24zM74 700h30c5 0 8 -3 8 -8v-523c0 -81 45 -134 115 -134c69 0 114 53 114 134v523c0 5 4 8 9 8h30c5 0 8 -3 8 -8v-523c0 -105 -64 -178 -161 -178
c-98 0 -162 73 -162 178v523c0 5 4 8 9 8z" />
    <glyph glyph-name="Ucircumflex" unicode="&#xdb;" horiz-adv-x="453" 
d="M328 779c4 -6 1 -10 -5 -10h-25c-4 0 -7 1 -10 4l-65 75l-65 -75c-3 -3 -6 -4 -10 -4h-25c-6 0 -9 4 -5 10l75 91c2 3 6 5 10 5h40c4 0 8 -2 10 -5zM74 700h30c5 0 8 -3 8 -8v-523c0 -81 45 -134 115 -134c69 0 114 53 114 134v523c0 5 4 8 9 8h30c5 0 8 -3 8 -8v-523
c0 -105 -64 -178 -161 -178c-98 0 -162 73 -162 178v523c0 5 4 8 9 8z" />
    <glyph glyph-name="Udieresis" unicode="&#xdc;" horiz-adv-x="453" 
d="M174 787c-19 0 -32 13 -32 32s13 32 32 32s32 -13 32 -32s-13 -32 -32 -32zM273 787c-19 0 -32 13 -32 32s13 32 32 32s32 -13 32 -32s-13 -32 -32 -32zM74 700h30c5 0 8 -3 8 -8v-523c0 -81 45 -134 115 -134c69 0 114 53 114 134v523c0 5 4 8 9 8h30c5 0 8 -3 8 -8
v-523c0 -105 -64 -178 -161 -178c-98 0 -162 73 -162 178v523c0 5 4 8 9 8z" />
    <glyph glyph-name="Ugrave" unicode="&#xd9;" horiz-adv-x="453" 
d="M269 769h-24c-4 0 -8 2 -10 5l-81 91c-5 5 -2 10 5 10h35c4 0 8 -1 10 -5l70 -91c4 -5 2 -10 -5 -10zM74 700h30c5 0 8 -3 8 -8v-523c0 -81 45 -134 115 -134c69 0 114 53 114 134v523c0 5 4 8 9 8h30c5 0 8 -3 8 -8v-523c0 -105 -64 -178 -161 -178
c-98 0 -162 73 -162 178v523c0 5 4 8 9 8z" />
    <glyph glyph-name="Uhungarumlaut" unicode="&#x170;" horiz-adv-x="453" 
d="M129 769c-7 0 -9 5 -5 10l70 91c2 4 6 5 10 5h35c7 0 10 -5 5 -10l-81 -91c-2 -3 -6 -5 -10 -5h-24zM229 769c-7 0 -9 5 -5 10l70 91c2 4 6 5 10 5h35c7 0 10 -5 5 -10l-81 -91c-2 -3 -6 -5 -10 -5h-24zM74 700h30c5 0 8 -3 8 -8v-523c0 -81 45 -134 115 -134
c69 0 114 53 114 134v523c0 5 4 8 9 8h30c5 0 8 -3 8 -8v-523c0 -105 -64 -178 -161 -178c-98 0 -162 73 -162 178v523c0 5 4 8 9 8z" />
    <glyph glyph-name="Umacron" unicode="&#x16a;" horiz-adv-x="453" 
d="M143 828c0 5 3 8 8 8h143c5 0 8 -3 8 -8v-24c0 -5 -3 -9 -8 -9h-143c-5 0 -8 4 -8 9v24zM74 700h30c5 0 8 -3 8 -8v-523c0 -81 45 -134 115 -134c69 0 114 53 114 134v523c0 5 4 8 9 8h30c5 0 8 -3 8 -8v-523c0 -105 -64 -178 -161 -178c-98 0 -162 73 -162 178v523
c0 5 4 8 9 8z" />
    <glyph glyph-name="Uogonek" unicode="&#x172;" horiz-adv-x="447" 
d="M335 692c0 5 3 8 8 8h30c5 0 8 -3 8 -8v-533c0 -58 -26 -101 -63 -138c-47 -45 -76 -99 -76 -136c0 -30 26 -43 66 -40c6 1 9 -2 9 -7v-27c0 -5 -2 -8 -7 -9c-65 -8 -114 23 -114 76c0 34 25 79 57 116c-10 -2 -20 -3 -30 -3c-92 0 -158 73 -158 168v533c0 5 4 8 9 8h30
c5 0 8 -3 8 -8v-533c0 -71 46 -124 111 -124c66 0 112 53 112 124v533z" />
    <glyph glyph-name="Uring" unicode="&#x16e;" horiz-adv-x="453" 
d="M155 821c0 38 27 64 67 64s66 -26 66 -64c0 -39 -26 -65 -66 -65s-67 26 -67 65zM188 820c0 -21 12 -34 34 -34c20 0 34 13 34 34s-14 34 -34 34c-22 0 -34 -13 -34 -34zM74 700h30c5 0 8 -3 8 -8v-523c0 -81 45 -134 115 -134c69 0 114 53 114 134v523c0 5 4 8 9 8h30
c5 0 8 -3 8 -8v-523c0 -105 -64 -178 -161 -178c-98 0 -162 73 -162 178v523c0 5 4 8 9 8z" />
    <glyph glyph-name="V" unicode="V" horiz-adv-x="389" 
d="M362 700c6 0 9 -4 8 -9l-136 -673c-3 -14 -11 -21 -25 -21h-29c-14 0 -22 7 -25 21l-136 673c-1 5 2 9 8 9h30c5 0 8 -2 9 -7l129 -643l128 643c1 5 5 7 10 7h29z" />
    <glyph glyph-name="W" unicode="W" horiz-adv-x="684" 
d="M610 700c5 0 9 -3 9 -8v-525c0 -105 -56 -176 -151 -176c-64 0 -102 39 -126 90c-24 -51 -64 -90 -126 -90c-94 0 -151 71 -151 176v525c0 5 4 8 9 8h30c5 0 8 -3 8 -8v-525c0 -82 37 -132 104 -132c61 0 103 51 103 132v525c0 5 3 8 8 8h30c5 0 8 -3 8 -8v-525
c0 -81 44 -132 103 -132c68 0 104 50 104 132v525c0 5 3 8 8 8h30z" />
    <glyph glyph-name="Wacute" unicode="&#x1e82;" horiz-adv-x="684" 
d="M313 769c-7 0 -9 5 -5 10l70 91c2 4 6 5 10 5h35c7 0 10 -5 5 -10l-81 -91c-2 -3 -6 -5 -10 -5h-24zM610 700c5 0 9 -3 9 -8v-525c0 -105 -56 -176 -151 -176c-64 0 -102 39 -126 90c-24 -51 -64 -90 -126 -90c-94 0 -151 71 -151 176v525c0 5 4 8 9 8h30c5 0 8 -3 8 -8
v-525c0 -82 37 -132 104 -132c61 0 103 51 103 132v525c0 5 3 8 8 8h30c5 0 8 -3 8 -8v-525c0 -81 44 -132 103 -132c68 0 104 50 104 132v525c0 5 3 8 8 8h30z" />
    <glyph glyph-name="Wcircumflex" unicode="&#x174;" horiz-adv-x="684" 
d="M242 769c-6 0 -9 4 -5 10l75 91c2 3 6 5 10 5h40c4 0 8 -2 10 -5l75 -91c4 -6 1 -10 -5 -10h-25c-4 0 -7 1 -10 4l-65 75l-65 -75c-3 -3 -6 -4 -10 -4h-25zM610 700c5 0 9 -3 9 -8v-525c0 -105 -56 -176 -151 -176c-64 0 -102 39 -126 90c-24 -51 -64 -90 -126 -90
c-94 0 -151 71 -151 176v525c0 5 4 8 9 8h30c5 0 8 -3 8 -8v-525c0 -82 37 -132 104 -132c61 0 103 51 103 132v525c0 5 3 8 8 8h30c5 0 8 -3 8 -8v-525c0 -81 44 -132 103 -132c68 0 104 50 104 132v525c0 5 3 8 8 8h30z" />
    <glyph glyph-name="Wdieresis" unicode="&#x1e84;" horiz-adv-x="684" 
d="M293 787c-19 0 -32 13 -32 32s13 32 32 32s32 -13 32 -32s-13 -32 -32 -32zM392 787c-19 0 -32 13 -32 32s13 32 32 32s32 -13 32 -32s-13 -32 -32 -32zM610 700c5 0 9 -3 9 -8v-525c0 -105 -56 -176 -151 -176c-64 0 -102 39 -126 90c-24 -51 -64 -90 -126 -90
c-94 0 -151 71 -151 176v525c0 5 4 8 9 8h30c5 0 8 -3 8 -8v-525c0 -82 37 -132 104 -132c61 0 103 51 103 132v525c0 5 3 8 8 8h30c5 0 8 -3 8 -8v-525c0 -81 44 -132 103 -132c68 0 104 50 104 132v525c0 5 3 8 8 8h30z" />
    <glyph glyph-name="Wgrave" unicode="&#x1e80;" horiz-adv-x="684" 
d="M354 774l-81 91c-5 5 -2 10 5 10h35c4 0 8 -1 10 -5l70 -91c4 -5 2 -10 -5 -10h-24c-4 0 -8 2 -10 5zM610 700c5 0 9 -3 9 -8v-525c0 -105 -56 -176 -151 -176c-64 0 -102 39 -126 90c-24 -51 -64 -90 -126 -90c-94 0 -151 71 -151 176v525c0 5 4 8 9 8h30c5 0 8 -3 8 -8
v-525c0 -82 37 -132 104 -132c61 0 103 51 103 132v525c0 5 3 8 8 8h30c5 0 8 -3 8 -8v-525c0 -81 44 -132 103 -132c68 0 104 50 104 132v525c0 5 3 8 8 8h30z" />
    <glyph glyph-name="X" unicode="X" horiz-adv-x="424" 
d="M371 501c0 -68 -34 -119 -91 -146c57 -27 91 -78 91 -148v-199c0 -5 -4 -8 -9 -8h-30c-5 0 -8 3 -8 8v199c0 73 -47 126 -112 126c-64 0 -112 -53 -112 -126v-199c0 -5 -3 -8 -8 -8h-30c-5 0 -9 3 -9 8v199c0 70 34 122 90 148c-57 27 -90 78 -90 146v191c0 5 4 8 9 8h30
c5 0 8 -3 8 -8v-191c0 -71 48 -125 112 -125c65 0 112 54 112 125v191c0 5 3 8 8 8h30c5 0 9 -3 9 -8v-191z" />
    <glyph glyph-name="Y" unicode="Y" horiz-adv-x="414" 
d="M192 0c-5 0 -8 3 -8 8v221c-80 11 -136 79 -136 168v295c0 5 4 8 9 8h30c5 0 8 -3 8 -8v-295c0 -73 48 -127 112 -127c65 0 112 54 112 127v295c0 5 3 8 8 8h30c5 0 9 -3 9 -8v-295c0 -89 -57 -157 -136 -168v-221c0 -5 -3 -8 -8 -8h-30z" />
    <glyph glyph-name="Yacute" unicode="&#xdd;" horiz-adv-x="414" 
d="M178 769c-7 0 -9 5 -5 10l70 91c2 4 6 5 10 5h35c7 0 10 -5 5 -10l-81 -91c-2 -3 -6 -5 -10 -5h-24zM192 0c-5 0 -8 3 -8 8v221c-80 11 -136 79 -136 168v295c0 5 4 8 9 8h30c5 0 8 -3 8 -8v-295c0 -73 48 -127 112 -127c65 0 112 54 112 127v295c0 5 3 8 8 8h30
c5 0 9 -3 9 -8v-295c0 -89 -57 -157 -136 -168v-221c0 -5 -3 -8 -8 -8h-30z" />
    <glyph glyph-name="Ycircumflex" unicode="&#x176;" horiz-adv-x="414" 
d="M312 779c4 -6 1 -10 -5 -10h-25c-4 0 -7 1 -10 4l-65 75l-65 -75c-3 -3 -6 -4 -10 -4h-25c-6 0 -9 4 -5 10l75 91c2 3 6 5 10 5h40c4 0 8 -2 10 -5zM192 0c-5 0 -8 3 -8 8v221c-80 11 -136 79 -136 168v295c0 5 4 8 9 8h30c5 0 8 -3 8 -8v-295c0 -73 48 -127 112 -127
c65 0 112 54 112 127v295c0 5 3 8 8 8h30c5 0 9 -3 9 -8v-295c0 -89 -57 -157 -136 -168v-221c0 -5 -3 -8 -8 -8h-30z" />
    <glyph glyph-name="Ydieresis" unicode="&#x178;" horiz-adv-x="414" 
d="M158 787c-19 0 -32 13 -32 32s13 32 32 32s32 -13 32 -32s-13 -32 -32 -32zM257 787c-19 0 -32 13 -32 32s13 32 32 32s32 -13 32 -32s-13 -32 -32 -32zM192 0c-5 0 -8 3 -8 8v221c-80 11 -136 79 -136 168v295c0 5 4 8 9 8h30c5 0 8 -3 8 -8v-295
c0 -73 48 -127 112 -127c65 0 112 54 112 127v295c0 5 3 8 8 8h30c5 0 9 -3 9 -8v-295c0 -89 -57 -157 -136 -168v-221c0 -5 -3 -8 -8 -8h-30z" />
    <glyph glyph-name="Ygrave" unicode="&#x1ef2;" horiz-adv-x="414" 
d="M253 769h-24c-4 0 -8 2 -10 5l-81 91c-5 5 -2 10 5 10h35c4 0 8 -1 10 -5l70 -91c4 -5 2 -10 -5 -10zM192 0c-5 0 -8 3 -8 8v221c-80 11 -136 79 -136 168v295c0 5 4 8 9 8h30c5 0 8 -3 8 -8v-295c0 -73 48 -127 112 -127c65 0 112 54 112 127v295c0 5 3 8 8 8h30
c5 0 9 -3 9 -8v-295c0 -89 -57 -157 -136 -168v-221c0 -5 -3 -8 -8 -8h-30z" />
    <glyph glyph-name="Z" unicode="Z" horiz-adv-x="402" 
d="M86 44h267c5 0 8 -4 8 -9v-27c0 -5 -3 -8 -8 -8h-288c-15 0 -24 9 -24 24v14c0 11 1 19 6 30l268 588h-248c-5 0 -8 4 -8 9v27c0 5 3 8 8 8h269c15 0 23 -8 24 -24l1 -14c0 -11 -1 -19 -6 -30z" />
    <glyph glyph-name="Zacute" unicode="&#x179;" horiz-adv-x="402" 
d="M182 769c-7 0 -9 5 -5 10l70 91c2 4 6 5 10 5h35c7 0 10 -5 5 -10l-81 -91c-2 -3 -6 -5 -10 -5h-24zM86 44h267c5 0 8 -4 8 -9v-27c0 -5 -3 -8 -8 -8h-288c-15 0 -24 9 -24 24v14c0 11 1 19 6 30l268 588h-248c-5 0 -8 4 -8 9v27c0 5 3 8 8 8h269c15 0 23 -8 24 -24
l1 -14c0 -11 -1 -19 -6 -30z" />
    <glyph glyph-name="Zcaron" unicode="&#x17d;" horiz-adv-x="402" 
d="M315 865l-75 -91c-2 -3 -6 -5 -10 -5h-40c-4 0 -8 2 -10 5l-75 91c-4 6 -1 10 5 10h25c4 0 7 -1 10 -4l65 -75l65 75c3 3 6 4 10 4h25c6 0 9 -4 5 -10zM86 44h267c5 0 8 -4 8 -9v-27c0 -5 -3 -8 -8 -8h-288c-15 0 -24 9 -24 24v14c0 11 1 19 6 30l268 588h-248
c-5 0 -8 4 -8 9v27c0 5 3 8 8 8h269c15 0 23 -8 24 -24l1 -14c0 -11 -1 -19 -6 -30z" />
    <glyph glyph-name="Zdotaccent" unicode="&#x17b;" horiz-adv-x="402" 
d="M211 772c-20 0 -33 14 -33 33c0 20 13 33 33 33c19 0 33 -13 33 -33c0 -18 -14 -33 -33 -33zM86 44h267c5 0 8 -4 8 -9v-27c0 -5 -3 -8 -8 -8h-288c-15 0 -24 9 -24 24v14c0 11 1 19 6 30l268 588h-248c-5 0 -8 4 -8 9v27c0 5 3 8 8 8h269c15 0 23 -8 24 -24l1 -14
c0 -11 -1 -19 -6 -30z" />
    <glyph glyph-name="uni0162.ss01" horiz-adv-x="353" 
d="M325 700c5 0 8 -3 8 -8v-27c0 -5 -3 -9 -8 -9h-125v-648c0 -5 -3 -8 -5 -8l-9 -50c4 1 9 1 13 1c42 -2 73 -31 73 -72c0 -48 -36 -77 -85 -77c-47 0 -82 26 -86 70c0 5 3 8 8 8h21c5 0 8 -3 9 -8c3 -22 22 -35 48 -35c27 0 48 16 48 42c0 23 -19 40 -43 40
c-13 0 -26 -3 -37 -6c-2 -1 -5 0 -7 2l-1 1c-2 2 -4 4 -3 7l15 77c-3 0 -6 3 -6 8v648h-125c-5 0 -8 4 -8 9v27c0 5 3 8 8 8h297z" />
    <glyph glyph-name="a" unicode="a" horiz-adv-x="390" 
d="M195 -8c-94 0 -153 62 -153 155c0 81 59 142 154 142h100v66c0 67 -38 111 -101 111c-60 0 -96 -40 -100 -97c-1 -6 -4 -9 -9 -9h-27c-5 0 -9 4 -9 9c5 81 59 140 145 140c89 0 146 -63 146 -154v-208c0 -91 -56 -155 -146 -155zM195 34c64 0 101 45 101 113v100h-100
c-70 0 -109 -42 -109 -100c0 -69 39 -113 108 -113z" />
    <glyph glyph-name="aacute" unicode="&#xe1;" horiz-adv-x="390" 
d="M262 670c7 0 9 -5 5 -10l-69 -96c-2 -4 -6 -5 -10 -5h-25c-6 0 -9 4 -5 10l60 95c2 4 6 6 10 6h34zM195 -8c-94 0 -153 62 -153 155c0 81 59 142 154 142h100v66c0 67 -38 111 -101 111c-60 0 -96 -40 -100 -97c-1 -6 -4 -9 -9 -9h-27c-5 0 -9 4 -9 9
c5 81 59 140 145 140c89 0 146 -63 146 -154v-208c0 -91 -56 -155 -146 -155zM195 34c64 0 101 45 101 113v100h-100c-70 0 -109 -42 -109 -100c0 -69 39 -113 108 -113z" />
    <glyph glyph-name="abreve" unicode="&#x103;" horiz-adv-x="390" 
d="M195 562c-61 0 -103 39 -107 98c0 5 3 8 8 8h25c5 0 8 -2 9 -8c3 -37 27 -58 65 -58c39 0 63 21 66 58c0 6 4 8 9 8h25c5 0 8 -2 8 -8c-4 -58 -45 -98 -108 -98zM195 -8c-94 0 -153 62 -153 155c0 81 59 142 154 142h100v66c0 67 -38 111 -101 111
c-60 0 -96 -40 -100 -97c-1 -6 -4 -9 -9 -9h-27c-5 0 -9 4 -9 9c5 81 59 140 145 140c89 0 146 -63 146 -154v-208c0 -91 -56 -155 -146 -155zM195 34c64 0 101 45 101 113v100h-100c-70 0 -109 -42 -109 -100c0 -69 39 -113 108 -113z" />
    <glyph glyph-name="acircumflex" unicode="&#xe2;" horiz-adv-x="390" 
d="M101 559c-6 0 -9 5 -5 10l71 96c2 4 6 5 10 5h36c4 0 8 -1 10 -5l71 -96c4 -5 1 -10 -5 -10h-24c-4 0 -9 2 -11 5l-59 73l-59 -73c-2 -3 -7 -5 -11 -5h-24zM195 -8c-94 0 -153 62 -153 155c0 81 59 142 154 142h100v66c0 67 -38 111 -101 111c-60 0 -96 -40 -100 -97
c-1 -6 -4 -9 -9 -9h-27c-5 0 -9 4 -9 9c5 81 59 140 145 140c89 0 146 -63 146 -154v-208c0 -91 -56 -155 -146 -155zM195 34c64 0 101 45 101 113v100h-100c-70 0 -109 -42 -109 -100c0 -69 39 -113 108 -113z" />
    <glyph glyph-name="adieresis" unicode="&#xe4;" horiz-adv-x="390" 
d="M146 574c-19 0 -32 13 -32 32s13 32 32 32s32 -13 32 -32s-13 -32 -32 -32zM245 574c-19 0 -32 13 -32 32s13 32 32 32s32 -13 32 -32s-13 -32 -32 -32zM195 -8c-94 0 -153 62 -153 155c0 81 59 142 154 142h100v66c0 67 -38 111 -101 111c-60 0 -96 -40 -100 -97
c-1 -6 -4 -9 -9 -9h-27c-5 0 -9 4 -9 9c5 81 59 140 145 140c89 0 146 -63 146 -154v-208c0 -91 -56 -155 -146 -155zM195 34c64 0 101 45 101 113v100h-100c-70 0 -109 -42 -109 -100c0 -69 39 -113 108 -113z" />
    <glyph glyph-name="agrave" unicode="&#xe0;" horiz-adv-x="390" 
d="M118 670h34c4 0 8 -2 10 -6l60 -95c4 -6 1 -10 -5 -10h-25c-4 0 -8 1 -10 5l-69 96c-4 5 -2 10 5 10zM195 -8c-94 0 -153 62 -153 155c0 81 59 142 154 142h100v66c0 67 -38 111 -101 111c-60 0 -96 -40 -100 -97c-1 -6 -4 -9 -9 -9h-27c-5 0 -9 4 -9 9
c5 81 59 140 145 140c89 0 146 -63 146 -154v-208c0 -91 -56 -155 -146 -155zM195 34c64 0 101 45 101 113v100h-100c-70 0 -109 -42 -109 -100c0 -69 39 -113 108 -113z" />
    <glyph glyph-name="amacron" unicode="&#x101;" horiz-adv-x="390" 
d="M115 627c0 5 3 8 8 8h143c5 0 8 -3 8 -8v-24c0 -5 -3 -9 -8 -9h-143c-5 0 -8 4 -8 9v24zM195 -8c-94 0 -153 62 -153 155c0 81 59 142 154 142h100v66c0 67 -38 111 -101 111c-60 0 -96 -40 -100 -97c-1 -6 -4 -9 -9 -9h-27c-5 0 -9 4 -9 9c5 81 59 140 145 140
c89 0 146 -63 146 -154v-208c0 -91 -56 -155 -146 -155zM195 34c64 0 101 45 101 113v100h-100c-70 0 -109 -42 -109 -100c0 -69 39 -113 108 -113z" />
    <glyph glyph-name="aogonek" unicode="&#x105;" horiz-adv-x="389" 
d="M286 -198c-64 -8 -114 23 -114 76c0 39 26 79 57 116c-13 -3 -23 -3 -35 -3c-90 0 -152 66 -152 152c0 83 65 146 156 146h97v66c0 64 -40 111 -101 111c-56 0 -96 -43 -100 -97c0 -6 -3 -9 -8 -9h-28c-5 0 -8 4 -8 9c4 78 62 140 144 140c87 0 146 -67 146 -154v-245
c0 -40 -18 -66 -48 -92c-36 -33 -74 -99 -74 -133c0 -30 26 -42 67 -39c5 0 9 -3 9 -8v-27c0 -5 -3 -8 -8 -9zM195 34c66 0 100 31 100 76v137h-97c-68 0 -111 -45 -111 -104c0 -63 42 -109 108 -109z" />
    <glyph glyph-name="aring" unicode="&#xe5;" horiz-adv-x="390" 
d="M128 615c0 38 27 64 67 64s66 -26 66 -64c0 -39 -26 -65 -66 -65s-67 26 -67 65zM161 614c0 -21 12 -34 34 -34c20 0 34 13 34 34s-14 34 -34 34c-22 0 -34 -13 -34 -34zM195 -8c-94 0 -153 62 -153 155c0 81 59 142 154 142h100v66c0 67 -38 111 -101 111
c-60 0 -96 -40 -100 -97c-1 -6 -4 -9 -9 -9h-27c-5 0 -9 4 -9 9c5 81 59 140 145 140c89 0 146 -63 146 -154v-208c0 -91 -56 -155 -146 -155zM195 34c64 0 101 45 101 113v100h-100c-70 0 -109 -42 -109 -100c0 -69 39 -113 108 -113z" />
    <glyph glyph-name="atilde" unicode="&#xe3;" horiz-adv-x="390" 
d="M154 617c-14 0 -22 -11 -24 -30c-1 -6 -4 -8 -9 -8h-24c-5 0 -8 3 -8 8c3 42 28 68 62 68c41 0 56 -39 81 -39c14 0 23 11 24 30c1 6 4 8 9 8h24c5 0 8 -3 8 -8c-3 -42 -29 -68 -62 -68c-39 0 -54 39 -81 39zM195 -8c-94 0 -153 62 -153 155c0 81 59 142 154 142h100v66
c0 67 -38 111 -101 111c-60 0 -96 -40 -100 -97c-1 -6 -4 -9 -9 -9h-27c-5 0 -9 4 -9 9c5 81 59 140 145 140c89 0 146 -63 146 -154v-208c0 -91 -56 -155 -146 -155zM195 34c64 0 101 45 101 113v100h-100c-70 0 -109 -42 -109 -100c0 -69 39 -113 108 -113z" />
    <glyph glyph-name="ae" unicode="&#xe6;" horiz-adv-x="619" 
d="M188 -9c-89 0 -146 60 -146 145c0 82 62 141 153 141h92v78c0 67 -40 111 -98 111c-54 0 -92 -38 -96 -97c0 -6 -3 -9 -8 -9h-28c-5 0 -8 4 -8 9c4 83 60 140 140 140c57 0 98 -32 120 -79c25 47 65 79 124 79c87 0 144 -61 144 -142c0 -75 -57 -133 -157 -133h-88v-88
c0 -65 35 -112 100 -112c64 0 96 43 99 111c0 5 3 8 8 8h28c5 0 8 -3 8 -8c-3 -91 -54 -154 -143 -154c-61 0 -100 33 -122 78c-22 -46 -64 -78 -122 -78zM332 277h88c78 0 112 38 112 90c0 58 -37 99 -99 99s-101 -46 -101 -111v-78zM188 34c62 0 99 45 99 113v87h-92
c-67 0 -108 -40 -108 -98c0 -61 37 -102 101 -102z" />
    <glyph glyph-name="b" unicode="b" horiz-adv-x="406" 
d="M208 509c87 0 149 -67 149 -155v-208c0 -88 -62 -155 -149 -155c-88 0 -150 67 -150 155v546c0 5 4 8 9 8h27c5 0 9 -3 9 -8v-242c24 36 62 59 105 59zM313 146v208c0 65 -43 112 -105 112c-63 0 -105 -47 -105 -112v-208c0 -65 42 -112 105 -112c62 0 105 47 105 112z
" />
    <glyph glyph-name="c" unicode="c" horiz-adv-x="386" 
d="M198 -9c-89 0 -149 65 -149 155v205c0 92 59 158 147 158c85 0 142 -58 146 -140c0 -5 -3 -9 -8 -9h-28c-5 0 -8 3 -8 9c-4 58 -42 97 -102 97c-63 0 -102 -46 -102 -115v-205c0 -66 40 -112 104 -112c61 0 101 44 104 109c0 6 4 8 9 8h27c5 0 9 -3 9 -8
c-5 -89 -63 -152 -149 -152z" />
    <glyph glyph-name="cacute" unicode="&#x107;" horiz-adv-x="386" 
d="M262 670c7 0 9 -5 5 -10l-69 -96c-2 -4 -6 -5 -10 -5h-25c-6 0 -9 4 -5 10l60 95c2 4 6 6 10 6h34zM198 -9c-89 0 -149 65 -149 155v205c0 92 59 158 147 158c85 0 142 -58 146 -140c0 -5 -3 -9 -8 -9h-28c-5 0 -8 3 -8 9c-4 58 -42 97 -102 97c-63 0 -102 -46 -102 -115
v-205c0 -66 40 -112 104 -112c61 0 101 44 104 109c0 6 4 8 9 8h27c5 0 9 -3 9 -8c-5 -89 -63 -152 -149 -152z" />
    <glyph glyph-name="ccaron" unicode="&#x10d;" horiz-adv-x="386" 
d="M101 670h24c4 0 9 -2 11 -5l59 -73l59 73c2 3 7 5 11 5h24c6 0 9 -5 5 -10l-71 -96c-2 -4 -6 -5 -10 -5h-36c-4 0 -8 1 -10 5l-71 96c-4 5 -1 10 5 10zM198 -9c-89 0 -149 65 -149 155v205c0 92 59 158 147 158c85 0 142 -58 146 -140c0 -5 -3 -9 -8 -9h-28
c-5 0 -8 3 -8 9c-4 58 -42 97 -102 97c-63 0 -102 -46 -102 -115v-205c0 -66 40 -112 104 -112c61 0 101 44 104 109c0 6 4 8 9 8h27c5 0 9 -3 9 -8c-5 -89 -63 -152 -149 -152z" />
    <glyph glyph-name="ccedilla" unicode="&#xe7;" horiz-adv-x="386" 
d="M347 143c-5 -83 -56 -144 -132 -151l-8 -42c4 1 9 1 13 1c42 -2 74 -31 74 -72c0 -48 -36 -77 -86 -77c-47 0 -82 26 -85 70c-1 5 2 8 7 8h22c5 0 7 -3 8 -8c4 -22 22 -35 48 -35c28 0 48 16 48 42c0 23 -19 40 -43 40c-13 0 -25 -3 -36 -6c-3 -1 -5 0 -7 2l-2 1
c-2 2 -3 4 -3 7l13 69c-78 9 -129 71 -129 154v205c0 92 59 158 147 158c85 0 142 -58 146 -140c0 -5 -3 -9 -8 -9h-28c-5 0 -8 3 -8 9c-4 58 -42 97 -102 97c-63 0 -102 -46 -102 -115v-205c0 -66 40 -112 104 -112c61 0 101 44 104 109c0 6 4 8 9 8h27c5 0 9 -3 9 -8z" />
    <glyph glyph-name="cdotaccent" unicode="&#x10b;" horiz-adv-x="386" 
d="M195 572c-20 0 -33 14 -33 33c0 20 13 33 33 33c19 0 33 -13 33 -33c0 -18 -14 -33 -33 -33zM198 -9c-89 0 -149 65 -149 155v205c0 92 59 158 147 158c85 0 142 -58 146 -140c0 -5 -3 -9 -8 -9h-28c-5 0 -8 3 -8 9c-4 58 -42 97 -102 97c-63 0 -102 -46 -102 -115v-205
c0 -66 40 -112 104 -112c61 0 101 44 104 109c0 6 4 8 9 8h27c5 0 9 -3 9 -8c-5 -89 -63 -152 -149 -152z" />
    <glyph glyph-name="d" unicode="d" horiz-adv-x="406" 
d="M339 700c5 0 9 -3 9 -8v-546c0 -88 -62 -155 -150 -155c-87 0 -149 67 -149 155v208c0 88 62 155 149 155c43 0 81 -23 105 -59v242c0 5 4 8 9 8h27zM303 146v208c0 65 -42 112 -105 112c-62 0 -105 -47 -105 -112v-208c0 -65 43 -112 105 -112c63 0 105 47 105 112z" />
    <glyph glyph-name="eth" unicode="&#xf0;" horiz-adv-x="419" 
d="M306 638c30 -38 45 -89 45 -151v-339c0 -90 -62 -157 -151 -157s-151 67 -151 157v206c0 88 63 155 151 155c43 0 81 -25 106 -59v37c0 54 -13 97 -38 127l-97 -60c-6 -3 -10 -1 -10 6v20c0 4 2 7 5 10l77 48c-26 18 -60 28 -102 28h-22c-5 0 -8 3 -8 8v26c0 5 3 8 8 8
h22c60 0 107 -16 142 -46l57 35c5 3 10 1 10 -6v-20c0 -4 -2 -7 -6 -10zM306 148v206c0 65 -43 112 -106 112s-106 -47 -106 -112v-206c0 -67 42 -114 106 -114s106 47 106 114z" />
    <glyph glyph-name="dcaron" unicode="&#x10f;" horiz-adv-x="466" 
d="M339 700c5 0 9 -3 9 -8v-546c0 -88 -62 -155 -150 -155c-87 0 -149 67 -149 155v208c0 88 62 155 149 155c43 0 81 -23 105 -59v242c0 5 4 8 9 8h27zM447 699c5 0 8 -3 7 -9l-26 -147c0 -5 -4 -8 -9 -8h-18c-5 0 -7 3 -7 9l9 147c0 6 4 8 9 8h35zM303 146v208
c0 65 -42 112 -105 112c-62 0 -105 -47 -105 -112v-208c0 -65 43 -112 105 -112c63 0 105 47 105 112z" />
    <glyph glyph-name="dcroat" unicode="&#x111;" horiz-adv-x="412" 
d="M394 632c5 0 8 -3 8 -8v-20c0 -5 -3 -9 -8 -9h-46v-449c0 -88 -62 -155 -150 -155c-87 0 -149 67 -149 155v208c0 88 62 155 149 155c43 0 81 -23 105 -59v145h-95c-5 0 -8 4 -8 9v20c0 5 3 8 8 8h95v60c0 5 4 8 9 8h27c5 0 9 -3 9 -8v-60h46zM303 146v208
c0 65 -42 112 -105 112c-62 0 -105 -47 -105 -112v-208c0 -65 43 -112 105 -112c63 0 105 47 105 112z" />
    <glyph glyph-name="e" unicode="e" horiz-adv-x="389" 
d="M197 -8c-92 0 -148 64 -148 154v207c0 90 58 155 149 155c89 0 149 -66 149 -151c0 -83 -58 -145 -156 -145h-97v-66c0 -64 36 -112 103 -112c64 0 101 46 103 110c0 5 4 8 9 8h27c5 0 9 -3 9 -8c-3 -89 -59 -152 -148 -152zM94 255h97c73 0 111 43 111 102
c0 62 -40 109 -104 109c-66 0 -104 -46 -104 -113v-98z" />
    <glyph glyph-name="eacute" unicode="&#xe9;" horiz-adv-x="389" 
d="M263 670c7 0 9 -5 5 -10l-69 -96c-2 -4 -6 -5 -10 -5h-25c-6 0 -9 4 -5 10l60 95c2 4 6 6 10 6h34zM197 -8c-92 0 -148 64 -148 154v207c0 90 58 155 149 155c89 0 149 -66 149 -151c0 -83 -58 -145 -156 -145h-97v-66c0 -64 36 -112 103 -112c64 0 101 46 103 110
c0 5 4 8 9 8h27c5 0 9 -3 9 -8c-3 -89 -59 -152 -148 -152zM94 255h97c73 0 111 43 111 102c0 62 -40 109 -104 109c-66 0 -104 -46 -104 -113v-98z" />
    <glyph glyph-name="ecaron" unicode="&#x11b;" horiz-adv-x="389" 
d="M102 670h24c4 0 9 -2 11 -5l59 -73l59 73c2 3 7 5 11 5h24c6 0 9 -5 5 -10l-71 -96c-2 -4 -6 -5 -10 -5h-36c-4 0 -8 1 -10 5l-71 96c-4 5 -1 10 5 10zM197 -8c-92 0 -148 64 -148 154v207c0 90 58 155 149 155c89 0 149 -66 149 -151c0 -83 -58 -145 -156 -145h-97v-66
c0 -64 36 -112 103 -112c64 0 101 46 103 110c0 5 4 8 9 8h27c5 0 9 -3 9 -8c-3 -89 -59 -152 -148 -152zM94 255h97c73 0 111 43 111 102c0 62 -40 109 -104 109c-66 0 -104 -46 -104 -113v-98z" />
    <glyph glyph-name="ecircumflex" unicode="&#xea;" horiz-adv-x="389" 
d="M102 559c-6 0 -9 5 -5 10l71 96c2 4 6 5 10 5h36c4 0 8 -1 10 -5l71 -96c4 -5 1 -10 -5 -10h-24c-4 0 -9 2 -11 5l-59 73l-59 -73c-2 -3 -7 -5 -11 -5h-24zM197 -8c-92 0 -148 64 -148 154v207c0 90 58 155 149 155c89 0 149 -66 149 -151c0 -83 -58 -145 -156 -145h-97
v-66c0 -64 36 -112 103 -112c64 0 101 46 103 110c0 5 4 8 9 8h27c5 0 9 -3 9 -8c-3 -89 -59 -152 -148 -152zM94 255h97c73 0 111 43 111 102c0 62 -40 109 -104 109c-66 0 -104 -46 -104 -113v-98z" />
    <glyph glyph-name="edieresis" unicode="&#xeb;" horiz-adv-x="389" 
d="M147 574c-19 0 -32 13 -32 32s13 32 32 32s32 -13 32 -32s-13 -32 -32 -32zM246 574c-19 0 -32 13 -32 32s13 32 32 32s32 -13 32 -32s-13 -32 -32 -32zM197 -8c-92 0 -148 64 -148 154v207c0 90 58 155 149 155c89 0 149 -66 149 -151c0 -83 -58 -145 -156 -145h-97v-66
c0 -64 36 -112 103 -112c64 0 101 46 103 110c0 5 4 8 9 8h27c5 0 9 -3 9 -8c-3 -89 -59 -152 -148 -152zM94 255h97c73 0 111 43 111 102c0 62 -40 109 -104 109c-66 0 -104 -46 -104 -113v-98z" />
    <glyph glyph-name="edotaccent" unicode="&#x117;" horiz-adv-x="389" 
d="M196 572c-20 0 -33 14 -33 33c0 20 13 33 33 33c19 0 33 -13 33 -33c0 -18 -14 -33 -33 -33zM197 -8c-92 0 -148 64 -148 154v207c0 90 58 155 149 155c89 0 149 -66 149 -151c0 -83 -58 -145 -156 -145h-97v-66c0 -64 36 -112 103 -112c64 0 101 46 103 110c0 5 4 8 9 8
h27c5 0 9 -3 9 -8c-3 -89 -59 -152 -148 -152zM94 255h97c73 0 111 43 111 102c0 62 -40 109 -104 109c-66 0 -104 -46 -104 -113v-98z" />
    <glyph glyph-name="egrave" unicode="&#xe8;" horiz-adv-x="389" 
d="M119 670h34c4 0 8 -2 10 -6l60 -95c4 -6 1 -10 -5 -10h-25c-4 0 -8 1 -10 5l-69 96c-4 5 -2 10 5 10zM197 -8c-92 0 -148 64 -148 154v207c0 90 58 155 149 155c89 0 149 -66 149 -151c0 -83 -58 -145 -156 -145h-97v-66c0 -64 36 -112 103 -112c64 0 101 46 103 110
c0 5 4 8 9 8h27c5 0 9 -3 9 -8c-3 -89 -59 -152 -148 -152zM94 255h97c73 0 111 43 111 102c0 62 -40 109 -104 109c-66 0 -104 -46 -104 -113v-98z" />
    <glyph glyph-name="emacron" unicode="&#x113;" horiz-adv-x="389" 
d="M116 627c0 5 3 8 8 8h143c5 0 8 -3 8 -8v-24c0 -5 -3 -9 -8 -9h-143c-5 0 -8 4 -8 9v24zM197 -8c-92 0 -148 64 -148 154v207c0 90 58 155 149 155c89 0 149 -66 149 -151c0 -83 -58 -145 -156 -145h-97v-66c0 -64 36 -112 103 -112c64 0 101 46 103 110c0 5 4 8 9 8h27
c5 0 9 -3 9 -8c-3 -89 -59 -152 -148 -152zM94 255h97c73 0 111 43 111 102c0 62 -40 109 -104 109c-66 0 -104 -46 -104 -113v-98z" />
    <glyph glyph-name="eogonek" unicode="&#x119;" horiz-adv-x="389" 
d="M284 -198c-50 -9 -113 19 -113 76c0 41 22 83 53 116c-10 -3 -20 -3 -27 -3c-92 0 -148 67 -148 155v209c0 89 59 154 146 154c89 0 148 -64 148 -151c0 -84 -62 -145 -157 -145h-92v-67c0 -65 35 -112 104 -112c70 0 103 59 103 111c0 6 3 8 8 8h28c5 0 8 -3 8 -8
c0 -57 -27 -97 -55 -124c-50 -46 -74 -95 -74 -130c0 -36 26 -47 67 -45c6 0 9 -3 9 -8v-27c0 -5 -3 -8 -8 -9zM94 256h92c72 0 112 41 112 102c0 64 -39 108 -103 108c-62 0 -101 -46 -101 -111v-99z" />
    <glyph glyph-name="f" unicode="f" horiz-adv-x="283" 
d="M251 500c5 0 8 -3 8 -8v-26c0 -5 -3 -8 -8 -8h-117v-450c0 -5 -3 -8 -8 -8h-28c-5 0 -8 3 -8 8v450h-65c-5 0 -9 3 -9 8v26c0 5 4 8 9 8h65v40c0 103 61 163 149 163c5 0 9 -4 9 -9v-25c0 -5 -4 -8 -9 -8c-64 0 -105 -40 -105 -121v-40h117z" />
    <glyph glyph-name="g" unicode="g" horiz-adv-x="406" 
d="M199 509c89 0 149 -67 149 -156v-408c0 -91 -59 -155 -150 -155c-88 0 -146 63 -149 152c0 5 4 8 9 8h27c5 0 9 -2 9 -8c2 -66 41 -109 104 -109c66 0 106 45 106 112v122c-24 -36 -61 -60 -105 -60c-90 0 -150 67 -150 157v189c0 89 60 156 150 156zM199 49
c64 0 105 48 105 115v189c0 66 -41 113 -105 113c-65 0 -105 -47 -105 -113v-189c0 -67 40 -115 105 -115z" />
    <glyph glyph-name="gbreve" unicode="&#x11f;" horiz-adv-x="406" 
d="M203 562c-61 0 -103 39 -107 98c0 5 3 8 8 8h25c5 0 8 -2 9 -8c3 -37 27 -58 65 -58c39 0 63 21 66 58c0 6 4 8 9 8h25c5 0 8 -2 8 -8c-4 -58 -45 -98 -108 -98zM199 509c89 0 149 -67 149 -156v-408c0 -91 -59 -155 -150 -155c-88 0 -146 63 -149 152c0 5 4 8 9 8h27
c5 0 9 -2 9 -8c2 -66 41 -109 104 -109c66 0 106 45 106 112v122c-24 -36 -61 -60 -105 -60c-90 0 -150 67 -150 157v189c0 89 60 156 150 156zM199 49c64 0 105 48 105 115v189c0 66 -41 113 -105 113c-65 0 -105 -47 -105 -113v-189c0 -67 40 -115 105 -115z" />
    <glyph glyph-name="gcommaaccent" unicode="&#x123;" horiz-adv-x="408" 
d="M182 562c-5 0 -9 2 -9 8l-9 127c0 6 3 9 8 9h18c5 0 8 -3 9 -8l23 -127c1 -6 -1 -9 -7 -9h-33zM199 509c89 0 149 -67 149 -156v-408c0 -91 -59 -155 -150 -155c-88 0 -146 63 -149 152c0 5 4 8 9 8h27c5 0 9 -2 9 -8c2 -66 41 -109 104 -109c66 0 106 45 106 112v122
c-24 -36 -61 -60 -105 -60c-90 0 -150 67 -150 157v189c0 89 60 156 150 156zM199 49c64 0 105 48 105 115v189c0 66 -41 113 -105 113c-65 0 -105 -47 -105 -113v-189c0 -67 40 -115 105 -115z" />
    <glyph glyph-name="gdotaccent" unicode="&#x121;" horiz-adv-x="406" 
d="M203 572c-20 0 -33 14 -33 33c0 20 13 33 33 33c19 0 33 -13 33 -33c0 -18 -14 -33 -33 -33zM199 509c89 0 149 -67 149 -156v-408c0 -91 -59 -155 -150 -155c-88 0 -146 63 -149 152c0 5 4 8 9 8h27c5 0 9 -2 9 -8c2 -66 41 -109 104 -109c66 0 106 45 106 112v122
c-24 -36 -61 -60 -105 -60c-90 0 -150 67 -150 157v189c0 89 60 156 150 156zM199 49c64 0 105 48 105 115v189c0 66 -41 113 -105 113c-65 0 -105 -47 -105 -113v-189c0 -67 40 -115 105 -115z" />
    <glyph glyph-name="h" unicode="h" horiz-adv-x="424" 
d="M76 0c-5 0 -8 3 -8 8v684c0 5 3 8 8 8h28c5 0 8 -3 8 -8v-239c23 34 60 56 108 56c88 0 146 -67 146 -157v-344c0 -5 -3 -8 -8 -8h-28c-5 0 -8 3 -8 8v344c0 67 -40 114 -106 114c-62 0 -104 -47 -104 -114v-344c0 -5 -3 -8 -8 -8h-28z" />
    <glyph glyph-name="hbar" unicode="&#x127;" horiz-adv-x="453" 
d="M105 0c-5 0 -8 3 -8 8v587h-72c-5 0 -9 3 -9 8v19c0 5 4 9 9 9h72v61c0 5 3 8 8 8h28c5 0 8 -3 8 -8v-61h148c5 0 8 -4 8 -9v-19c0 -5 -3 -8 -8 -8h-148v-142c23 34 59 56 107 56c89 0 147 -67 147 -157v-344c0 -5 -4 -8 -9 -8h-27c-5 0 -9 3 -9 8v344
c0 67 -40 114 -105 114c-62 0 -104 -47 -104 -114v-344c0 -5 -3 -8 -8 -8h-28z" />
    <glyph glyph-name="i" unicode="i" horiz-adv-x="180" 
d="M90 572c-20 0 -33 14 -33 33c0 20 13 33 33 33c19 0 33 -13 33 -33c0 -18 -14 -33 -33 -33zM76 0c-5 0 -8 3 -8 8v484c0 5 3 8 8 8h28c5 0 8 -3 8 -8v-484c0 -5 -3 -8 -8 -8h-28z" />
    <glyph glyph-name="dotlessi" unicode="&#x131;" horiz-adv-x="180" 
d="M76 0c-5 0 -8 3 -8 8v484c0 5 3 8 8 8h28c5 0 8 -3 8 -8v-484c0 -5 -3 -8 -8 -8h-28z" />
    <glyph glyph-name="iacute" unicode="&#xed;" horiz-adv-x="180" 
d="M157 670c7 0 9 -5 5 -10l-69 -96c-2 -4 -6 -5 -10 -5h-25c-6 0 -9 4 -5 10l60 95c2 4 6 6 10 6h34zM76 0c-5 0 -8 3 -8 8v484c0 5 3 8 8 8h28c5 0 8 -3 8 -8v-484c0 -5 -3 -8 -8 -8h-28z" />
    <glyph glyph-name="icircumflex" unicode="&#xee;" horiz-adv-x="200" 
d="M17 559c-6 0 -9 5 -5 10l71 96c2 4 6 5 10 5h36c4 0 8 -1 10 -5l71 -96c4 -5 1 -10 -5 -10h-24c-4 0 -9 2 -11 5l-59 73l-59 -73c-2 -3 -7 -5 -11 -5h-24zM97 0c-5 0 -8 3 -8 8v484c0 5 3 8 8 8h28c5 0 8 -3 8 -8v-484c0 -5 -3 -8 -8 -8h-28z" />
    <glyph glyph-name="idieresis" unicode="&#xef;" horiz-adv-x="169" 
d="M43 575c-17 0 -29 12 -29 30s12 29 29 29c18 0 31 -11 31 -29s-13 -30 -31 -30zM127 575c-17 0 -30 12 -30 30s13 29 30 29s30 -11 30 -29s-13 -30 -30 -30zM71 0c-5 0 -8 3 -8 8v484c0 5 3 8 8 8h28c5 0 8 -3 8 -8v-484c0 -5 -3 -8 -8 -8h-28z" />
    <glyph glyph-name="i.loclTRK" horiz-adv-x="180" 
d="M90 572c-20 0 -33 14 -33 33c0 20 13 33 33 33c19 0 33 -13 33 -33c0 -18 -14 -33 -33 -33zM76 0c-5 0 -8 3 -8 8v484c0 5 3 8 8 8h28c5 0 8 -3 8 -8v-484c0 -5 -3 -8 -8 -8h-28z" />
    <glyph glyph-name="igrave" unicode="&#xec;" horiz-adv-x="180" 
d="M13 670h34c4 0 8 -2 10 -6l60 -95c4 -6 1 -10 -5 -10h-25c-4 0 -8 1 -10 5l-69 96c-4 5 -2 10 5 10zM76 0c-5 0 -8 3 -8 8v484c0 5 3 8 8 8h28c5 0 8 -3 8 -8v-484c0 -5 -3 -8 -8 -8h-28z" />
    <glyph glyph-name="imacron" unicode="&#x12b;" horiz-adv-x="153" 
d="M7 627c0 5 3 8 8 8h123c5 0 8 -3 8 -8v-24c0 -5 -3 -9 -8 -9h-123c-5 0 -8 4 -8 9v24zM63 0c-5 0 -8 3 -8 8v484c0 5 3 8 8 8h28c5 0 8 -3 8 -8v-484c0 -5 -3 -8 -8 -8h-28z" />
    <glyph glyph-name="iogonek" unicode="&#x12f;" horiz-adv-x="206" 
d="M107 572c-20 0 -34 14 -34 33c0 20 14 33 34 33c19 0 33 -13 33 -33c0 -18 -14 -33 -33 -33zM124 -198c-53 0 -91 30 -91 79c0 35 22 81 51 119v492c0 5 3 8 8 8h28c5 0 8 -3 8 -8v-486c0 -4 -1 -8 -6 -14c-33 -39 -48 -78 -48 -107s22 -43 58 -43h8c5 0 9 -3 9 -8v-22
c0 -7 -7 -10 -25 -10z" />
    <glyph glyph-name="j" unicode="j" horiz-adv-x="240" 
d="M139 572c-20 0 -34 14 -34 33c0 20 14 33 34 33c19 0 33 -13 33 -33c0 -18 -14 -33 -33 -33zM8 -205c-5 0 -8 3 -8 8v26c0 5 3 9 8 9h2c74 2 107 47 107 117v537c0 5 3 8 8 8h28c5 0 8 -3 8 -8v-537c0 -93 -52 -158 -151 -160h-2z" />
    <glyph glyph-name="k" unicode="k" horiz-adv-x="397" 
d="M230 279c73 -12 121 -65 121 -142v-129c0 -5 -3 -8 -8 -8h-28c-5 0 -8 3 -8 8v129c0 65 -42 104 -106 104h-89v-233c0 -5 -3 -8 -8 -8h-28c-5 0 -8 3 -8 8v684c0 5 3 8 8 8h28c5 0 8 -3 8 -8v-408h72l125 210c2 4 6 6 10 6h32c6 0 9 -4 6 -10z" />
    <glyph glyph-name="kcommaaccent" unicode="&#x137;" horiz-adv-x="397" 
d="M230 279c73 -12 121 -65 121 -142v-129c0 -5 -3 -8 -8 -8h-28c-5 0 -8 3 -8 8v129c0 65 -42 104 -106 104h-89v-233c0 -5 -3 -8 -8 -8h-28c-5 0 -8 3 -8 8v684c0 5 3 8 8 8h28c5 0 8 -3 8 -8v-408h72l125 210c2 4 6 6 10 6h32c6 0 9 -4 6 -10zM200 -70c0 6 4 8 9 8h35
c5 0 8 -3 7 -9l-26 -147c0 -5 -4 -8 -9 -8h-18c-5 0 -7 3 -7 9z" />
    <glyph glyph-name="l" unicode="l" horiz-adv-x="180" 
d="M76 0c-5 0 -8 3 -8 8v684c0 5 3 8 8 8h28c5 0 8 -3 8 -8v-684c0 -5 -3 -8 -8 -8h-28z" />
    <glyph glyph-name="lacute" unicode="&#x13a;" horiz-adv-x="196" 
d="M72 769c-7 0 -9 5 -5 10l70 91c2 4 6 5 10 5h35c7 0 10 -5 5 -10l-81 -91c-2 -3 -6 -5 -10 -5h-24zM76 0c-5 0 -8 3 -8 8v684c0 5 3 8 8 8h28c5 0 8 -3 8 -8v-684c0 -5 -3 -8 -8 -8h-28z" />
    <glyph glyph-name="lcaron" unicode="&#x13e;" horiz-adv-x="239" 
d="M177 556c-5 0 -7 3 -7 9l8 129c0 6 4 8 9 8h33c6 0 9 -4 8 -9l-22 -129c-1 -5 -5 -8 -10 -8h-19zM76 0c-5 0 -8 3 -8 8v684c0 5 3 8 8 8h28c5 0 9 -3 9 -8v-684c0 -5 -4 -8 -9 -8h-28z" />
    <glyph glyph-name="lcommaaccent" unicode="&#x13c;" horiz-adv-x="196" 
d="M81 0c-5 0 -8 3 -8 8v684c0 5 3 8 8 8h28c5 0 8 -3 8 -8v-684c0 -5 -3 -8 -8 -8h-28zM77 -70c0 6 4 8 9 8h35c5 0 8 -3 7 -9l-26 -147c0 -5 -4 -8 -9 -8h-18c-5 0 -7 3 -7 9z" />
    <glyph glyph-name="lslash" unicode="&#x142;" horiz-adv-x="199" 
d="M177 456c6 2 10 -1 10 -6v-28c0 -4 -3 -7 -7 -9l-56 -22v-383c0 -5 -3 -8 -8 -8h-28c-5 0 -8 3 -8 8v365l-58 -23c-6 -2 -10 1 -10 6v28c0 4 3 7 7 9l61 24v275c0 5 3 8 8 8h28c5 0 8 -3 8 -8v-257z" />
    <glyph glyph-name="m" unicode="m" horiz-adv-x="628" 
d="M430 509c86 0 139 -67 139 -154v-347c0 -5 -3 -8 -8 -8h-28c-5 0 -8 3 -8 8v347c0 64 -33 111 -95 111c-58 0 -94 -47 -94 -111v-347c0 -5 -3 -8 -8 -8h-28c-5 0 -8 3 -8 8v347c0 64 -36 111 -94 111c-62 0 -95 -47 -95 -111v-347c0 -5 -4 -8 -9 -8h-27c-5 0 -9 3 -9 8
v347c0 87 53 154 140 154c54 0 95 -33 116 -80c20 47 62 80 116 80z" />
    <glyph glyph-name="n" unicode="n" horiz-adv-x="406" 
d="M67 0c-5 0 -9 3 -9 8v343c0 91 56 158 145 158s145 -67 145 -158v-343c0 -5 -4 -8 -9 -8h-27c-5 0 -9 3 -9 8v343c0 69 -35 116 -100 116s-100 -47 -100 -116v-343c0 -5 -4 -8 -9 -8h-27z" />
    <glyph glyph-name="nacute" unicode="&#x144;" horiz-adv-x="406" 
d="M270 670c7 0 9 -5 5 -10l-69 -96c-2 -4 -6 -5 -10 -5h-25c-6 0 -9 4 -5 10l60 95c2 4 6 6 10 6h34zM67 0c-5 0 -9 3 -9 8v343c0 91 56 158 145 158s145 -67 145 -158v-343c0 -5 -4 -8 -9 -8h-27c-5 0 -9 3 -9 8v343c0 69 -35 116 -100 116s-100 -47 -100 -116v-343
c0 -5 -4 -8 -9 -8h-27z" />
    <glyph glyph-name="ncaron" unicode="&#x148;" horiz-adv-x="406" 
d="M109 670h24c4 0 9 -2 11 -5l59 -73l59 73c2 3 7 5 11 5h24c6 0 9 -5 5 -10l-71 -96c-2 -4 -6 -5 -10 -5h-36c-4 0 -8 1 -10 5l-71 96c-4 5 -1 10 5 10zM67 0c-5 0 -9 3 -9 8v343c0 91 56 158 145 158s145 -67 145 -158v-343c0 -5 -4 -8 -9 -8h-27c-5 0 -9 3 -9 8v343
c0 69 -35 116 -100 116s-100 -47 -100 -116v-343c0 -5 -4 -8 -9 -8h-27z" />
    <glyph glyph-name="ncommaaccent" unicode="&#x146;" horiz-adv-x="406" 
d="M67 0c-5 0 -9 3 -9 8v343c0 91 56 158 145 158s145 -67 145 -158v-343c0 -5 -4 -8 -9 -8h-27c-5 0 -9 3 -9 8v343c0 69 -35 116 -100 116s-100 -47 -100 -116v-343c0 -5 -4 -8 -9 -8h-27zM186 -70c0 6 4 8 9 8h35c5 0 8 -3 7 -9l-26 -147c0 -5 -4 -8 -9 -8h-18
c-5 0 -7 3 -7 9z" />
    <glyph glyph-name="eng" unicode="&#x14b;" horiz-adv-x="406" 
d="M202 -209c-5 0 -9 4 -9 9v25c0 4 4 8 9 8c61 2 101 51 101 114v406c0 67 -37 114 -100 114s-100 -47 -100 -114v-345c0 -5 -4 -8 -9 -8h-27c-5 0 -9 3 -9 8v345c0 89 57 156 145 156c87 0 145 -67 145 -156v-406c0 -87 -59 -154 -146 -156z" />
    <glyph glyph-name="ntilde" unicode="&#xf1;" horiz-adv-x="406" 
d="M162 617c-14 0 -22 -11 -24 -30c-1 -6 -4 -8 -9 -8h-24c-5 0 -8 3 -8 8c3 42 28 68 62 68c41 0 56 -39 81 -39c14 0 23 11 24 30c1 6 4 8 9 8h24c5 0 8 -3 8 -8c-3 -42 -29 -68 -62 -68c-39 0 -54 39 -81 39zM67 0c-5 0 -9 3 -9 8v343c0 91 56 158 145 158
s145 -67 145 -158v-343c0 -5 -4 -8 -9 -8h-27c-5 0 -9 3 -9 8v343c0 69 -35 116 -100 116s-100 -47 -100 -116v-343c0 -5 -4 -8 -9 -8h-27z" />
    <glyph glyph-name="o" unicode="o" horiz-adv-x="399" 
d="M199 -9c-91 0 -150 67 -150 155v208c0 88 59 155 150 155c92 0 150 -67 150 -155v-208c0 -88 -58 -155 -150 -155zM199 33c66 0 105 48 105 113v208c0 65 -39 113 -105 113c-65 0 -105 -48 -105 -113v-208c0 -65 40 -113 105 -113z" />
    <glyph glyph-name="oacute" unicode="&#xf3;" horiz-adv-x="399" 
d="M266 670c7 0 9 -5 5 -10l-69 -96c-2 -4 -6 -5 -10 -5h-25c-6 0 -9 4 -5 10l60 95c2 4 6 6 10 6h34zM199 -9c-91 0 -150 67 -150 155v208c0 88 59 155 150 155c92 0 150 -67 150 -155v-208c0 -88 -58 -155 -150 -155zM199 33c66 0 105 48 105 113v208
c0 65 -39 113 -105 113c-65 0 -105 -48 -105 -113v-208c0 -65 40 -113 105 -113z" />
    <glyph glyph-name="ocircumflex" unicode="&#xf4;" horiz-adv-x="399" 
d="M105 559c-6 0 -9 5 -5 10l71 96c2 4 6 5 10 5h36c4 0 8 -1 10 -5l71 -96c4 -5 1 -10 -5 -10h-24c-4 0 -9 2 -11 5l-59 73l-59 -73c-2 -3 -7 -5 -11 -5h-24zM199 -9c-91 0 -150 67 -150 155v208c0 88 59 155 150 155c92 0 150 -67 150 -155v-208c0 -88 -58 -155 -150 -155
zM199 33c66 0 105 48 105 113v208c0 65 -39 113 -105 113c-65 0 -105 -48 -105 -113v-208c0 -65 40 -113 105 -113z" />
    <glyph glyph-name="odieresis" unicode="&#xf6;" horiz-adv-x="399" 
d="M150 574c-19 0 -32 13 -32 32s13 32 32 32s32 -13 32 -32s-13 -32 -32 -32zM249 574c-19 0 -32 13 -32 32s13 32 32 32s32 -13 32 -32s-13 -32 -32 -32zM199 -9c-91 0 -150 67 -150 155v208c0 88 59 155 150 155c92 0 150 -67 150 -155v-208c0 -88 -58 -155 -150 -155z
M199 33c66 0 105 48 105 113v208c0 65 -39 113 -105 113c-65 0 -105 -48 -105 -113v-208c0 -65 40 -113 105 -113z" />
    <glyph glyph-name="ograve" unicode="&#xf2;" horiz-adv-x="399" 
d="M122 670h34c4 0 8 -2 10 -6l60 -95c4 -6 1 -10 -5 -10h-25c-4 0 -8 1 -10 5l-69 96c-4 5 -2 10 5 10zM199 -9c-91 0 -150 67 -150 155v208c0 88 59 155 150 155c92 0 150 -67 150 -155v-208c0 -88 -58 -155 -150 -155zM199 33c66 0 105 48 105 113v208
c0 65 -39 113 -105 113c-65 0 -105 -48 -105 -113v-208c0 -65 40 -113 105 -113z" />
    <glyph glyph-name="ohungarumlaut" unicode="&#x151;" horiz-adv-x="399" 
d="M225 670c7 0 9 -5 5 -10l-69 -96c-2 -4 -6 -5 -10 -5h-21c-7 0 -9 4 -6 10l61 95c2 4 6 6 10 6h30zM321 670c7 0 9 -5 5 -10l-69 -96c-2 -4 -6 -5 -10 -5h-21c-7 0 -9 4 -6 10l61 95c2 4 6 6 10 6h30zM199 -9c-91 0 -150 67 -150 155v208c0 88 59 155 150 155
c92 0 150 -67 150 -155v-208c0 -88 -58 -155 -150 -155zM199 33c66 0 105 48 105 113v208c0 65 -39 113 -105 113c-65 0 -105 -48 -105 -113v-208c0 -65 40 -113 105 -113z" />
    <glyph glyph-name="omacron" unicode="&#x14d;" horiz-adv-x="399" 
d="M119 627c0 5 3 8 8 8h143c5 0 8 -3 8 -8v-24c0 -5 -3 -9 -8 -9h-143c-5 0 -8 4 -8 9v24zM199 -9c-91 0 -150 67 -150 155v208c0 88 59 155 150 155c92 0 150 -67 150 -155v-208c0 -88 -58 -155 -150 -155zM199 33c66 0 105 48 105 113v208c0 65 -39 113 -105 113
c-65 0 -105 -48 -105 -113v-208c0 -65 40 -113 105 -113z" />
    <glyph glyph-name="oslash" unicode="&#xf8;" horiz-adv-x="399" 
d="M275 490c47 -25 74 -76 74 -136v-208c0 -88 -58 -155 -150 -155c-22 0 -41 4 -59 11l-11 -40c-1 -4 -4 -7 -9 -7h-25c-6 0 -9 3 -8 9l16 59c-34 28 -54 72 -54 123v208c0 88 59 155 150 155c14 0 27 -1 39 -4l9 33c1 4 4 7 9 7h25c6 0 9 -3 7 -9zM94 146
c0 -29 8 -55 23 -75l109 393c-8 2 -17 3 -27 3c-65 0 -105 -48 -105 -113v-208zM304 146v208c0 40 -14 73 -41 93l-112 -404c14 -6 30 -10 48 -10c66 0 105 48 105 113z" />
    <glyph glyph-name="otilde" unicode="&#xf5;" horiz-adv-x="399" 
d="M158 617c-14 0 -22 -11 -24 -30c-1 -6 -4 -8 -9 -8h-24c-5 0 -8 3 -8 8c3 42 28 68 62 68c41 0 56 -39 81 -39c14 0 23 11 24 30c1 6 4 8 9 8h24c5 0 8 -3 8 -8c-3 -42 -29 -68 -62 -68c-39 0 -54 39 -81 39zM199 -9c-91 0 -150 67 -150 155v208c0 88 59 155 150 155
c92 0 150 -67 150 -155v-208c0 -88 -58 -155 -150 -155zM199 33c66 0 105 48 105 113v208c0 65 -39 113 -105 113c-65 0 -105 -48 -105 -113v-208c0 -65 40 -113 105 -113z" />
    <glyph glyph-name="oe" unicode="&#x153;" horiz-adv-x="618" 
d="M193 -9c-87 0 -144 66 -144 155v208c0 89 57 155 144 155c59 0 98 -30 120 -77c22 46 61 77 119 77c83 0 139 -64 139 -150c0 -87 -61 -148 -148 -148h-87v-65c0 -65 34 -112 97 -112c60 0 93 43 97 102c0 6 3 9 8 9h28c5 0 8 -4 8 -9c-4 -83 -56 -145 -141 -145
c-61 0 -99 35 -120 82c-23 -48 -62 -82 -120 -82zM193 34c60 0 98 47 98 115v202c0 68 -38 115 -98 115c-62 0 -99 -47 -99 -112v-208c0 -65 37 -112 99 -112zM336 253h87c64 0 104 42 104 106c0 63 -37 107 -95 107c-59 0 -96 -46 -96 -110v-103z" />
    <glyph glyph-name="p" unicode="p" horiz-adv-x="406" 
d="M208 509c88 0 149 -67 149 -155v-208c0 -88 -61 -155 -143 -155c-50 0 -87 23 -111 59v-242c0 -5 -4 -8 -9 -8h-27c-5 0 -9 3 -9 8v546c0 88 61 155 150 155zM313 146v208c0 65 -42 112 -105 112c-64 0 -105 -47 -105 -112v-208c0 -65 41 -112 105 -112
c63 0 105 47 105 112z" />
    <glyph glyph-name="thorn" unicode="&#xfe;" horiz-adv-x="415" 
d="M76 -200c-5 0 -8 3 -8 8v884c0 5 3 8 8 8h28c5 0 8 -3 8 -8v-241c24 35 62 58 105 58c87 0 148 -67 148 -155v-208c0 -88 -61 -155 -148 -155c-43 0 -81 23 -105 58v-241c0 -5 -3 -8 -8 -8h-28zM217 34c62 0 104 47 104 112v208c0 65 -42 112 -104 112
s-105 -47 -105 -112v-208c0 -65 43 -112 105 -112z" />
    <glyph glyph-name="q" unicode="q" horiz-adv-x="406" 
d="M198 509c89 0 150 -67 150 -155v-546c0 -5 -4 -8 -9 -8h-27c-5 0 -9 3 -9 8v242c-24 -36 -61 -59 -111 -59c-82 0 -143 67 -143 155v208c0 88 61 155 149 155zM198 34c64 0 105 47 105 112v208c0 65 -41 112 -105 112c-63 0 -105 -47 -105 -112v-208
c0 -65 42 -112 105 -112z" />
    <glyph glyph-name="r" unicode="r" horiz-adv-x="277" 
d="M67 0c-5 0 -9 3 -9 8v340c0 92 66 155 155 155h39c5 0 9 -4 9 -9v-26c0 -5 -4 -8 -9 -8h-39c-65 0 -110 -43 -110 -112v-340c0 -5 -4 -8 -9 -8h-27z" />
    <glyph glyph-name="racute" unicode="&#x155;" horiz-adv-x="277" 
d="M239 670c7 0 9 -5 5 -10l-69 -96c-2 -4 -6 -5 -10 -5h-25c-6 0 -9 4 -5 10l60 95c2 4 6 6 10 6h34zM67 0c-5 0 -9 3 -9 8v340c0 92 66 155 155 155h39c5 0 9 -4 9 -9v-26c0 -5 -4 -8 -9 -8h-39c-65 0 -110 -43 -110 -112v-340c0 -5 -4 -8 -9 -8h-27z" />
    <glyph glyph-name="rcaron" unicode="&#x159;" horiz-adv-x="277" 
d="M78 670h24c4 0 9 -2 11 -5l59 -73l59 73c2 3 7 5 11 5h24c6 0 9 -5 5 -10l-71 -96c-2 -4 -6 -5 -10 -5h-36c-4 0 -8 1 -10 5l-71 96c-4 5 -1 10 5 10zM67 0c-5 0 -9 3 -9 8v340c0 92 66 155 155 155h39c5 0 9 -4 9 -9v-26c0 -5 -4 -8 -9 -8h-39c-65 0 -110 -43 -110 -112
v-340c0 -5 -4 -8 -9 -8h-27z" />
    <glyph glyph-name="rcommaaccent" unicode="&#x157;" horiz-adv-x="277" 
d="M67 0c-5 0 -9 3 -9 8v340c0 92 66 155 155 155h39c5 0 9 -4 9 -9v-26c0 -5 -4 -8 -9 -8h-39c-65 0 -110 -43 -110 -112v-340c0 -5 -4 -8 -9 -8h-27zM63 -70c0 6 4 8 9 8h35c5 0 8 -3 7 -9l-26 -147c0 -5 -4 -8 -9 -8h-18c-5 0 -7 3 -7 9z" />
    <glyph glyph-name="s" unicode="s" horiz-adv-x="382" 
d="M197 -9c-93 0 -151 58 -155 152c0 5 4 8 9 8h27c5 0 9 -2 9 -8c2 -74 41 -109 110 -109c61 0 98 35 98 89c0 131 -249 86 -249 255c0 73 57 131 141 131c91 0 142 -55 145 -140c0 -5 -3 -9 -8 -9h-28c-5 0 -8 3 -8 9c-3 58 -38 97 -99 97c-58 0 -99 -35 -99 -88
c0 -129 250 -84 250 -255c0 -74 -60 -132 -143 -132z" />
    <glyph glyph-name="sacute" unicode="&#x15b;" horiz-adv-x="382" 
d="M259 670c7 0 9 -5 5 -10l-69 -96c-2 -4 -6 -5 -10 -5h-25c-6 0 -9 4 -5 10l60 95c2 4 6 6 10 6h34zM197 -9c-93 0 -151 58 -155 152c0 5 4 8 9 8h27c5 0 9 -2 9 -8c2 -74 41 -109 110 -109c61 0 98 35 98 89c0 131 -249 86 -249 255c0 73 57 131 141 131
c91 0 142 -55 145 -140c0 -5 -3 -9 -8 -9h-28c-5 0 -8 3 -8 9c-3 58 -38 97 -99 97c-58 0 -99 -35 -99 -88c0 -129 250 -84 250 -255c0 -74 -60 -132 -143 -132z" />
    <glyph glyph-name="scaron" unicode="&#x161;" horiz-adv-x="382" 
d="M98 670h24c4 0 9 -2 11 -5l59 -73l59 73c2 3 7 5 11 5h24c6 0 9 -5 5 -10l-71 -96c-2 -4 -6 -5 -10 -5h-36c-4 0 -8 1 -10 5l-71 96c-4 5 -1 10 5 10zM197 -9c-93 0 -151 58 -155 152c0 5 4 8 9 8h27c5 0 9 -2 9 -8c2 -74 41 -109 110 -109c61 0 98 35 98 89
c0 131 -249 86 -249 255c0 73 57 131 141 131c91 0 142 -55 145 -140c0 -5 -3 -9 -8 -9h-28c-5 0 -8 3 -8 9c-3 58 -38 97 -99 97c-58 0 -99 -35 -99 -88c0 -129 250 -84 250 -255c0 -74 -60 -132 -143 -132z" />
    <glyph glyph-name="scedilla" unicode="&#x15f;" horiz-adv-x="382" 
d="M340 123c0 -71 -56 -128 -135 -132l-7 -41c4 1 9 1 13 1c42 -2 74 -31 74 -72c0 -48 -36 -77 -86 -77c-47 0 -82 26 -85 70c-1 5 2 8 7 8h22c5 0 7 -3 8 -8c4 -22 22 -35 48 -35c28 0 48 16 48 42c0 23 -19 40 -43 40c-13 0 -25 -3 -36 -6c-3 -1 -5 0 -7 2l-2 1
c-2 2 -3 4 -3 7l14 70c-77 10 -124 66 -128 150c0 5 4 8 9 8h27c5 0 9 -2 9 -8c2 -74 41 -109 110 -109c61 0 98 35 98 89c0 131 -249 86 -249 255c0 73 57 131 141 131c91 0 142 -55 145 -140c0 -5 -3 -9 -8 -9h-28c-5 0 -8 3 -8 9c-3 58 -38 97 -99 97
c-58 0 -99 -35 -99 -88c0 -129 250 -84 250 -255z" />
    <glyph glyph-name="scommaaccent" unicode="&#x219;" horiz-adv-x="382" 
d="M197 -9c-93 0 -151 58 -155 152c0 5 4 8 9 8h27c5 0 9 -2 9 -8c2 -74 41 -109 110 -109c61 0 98 35 98 89c0 131 -249 86 -249 255c0 73 57 131 141 131c91 0 142 -55 145 -140c0 -5 -3 -9 -8 -9h-28c-5 0 -8 3 -8 9c-3 58 -38 97 -99 97c-58 0 -99 -35 -99 -88
c0 -129 250 -84 250 -255c0 -74 -60 -132 -143 -132zM182 -70c0 6 4 8 9 8h35c5 0 8 -3 7 -9l-26 -147c0 -5 -4 -8 -9 -8h-18c-5 0 -7 3 -7 9z" />
    <glyph glyph-name="germandbls" unicode="&#xdf;" horiz-adv-x="399" 
d="M74 0c-5 0 -9 3 -9 8l1 554c0 87 56 147 133 147c78 0 137 -60 137 -147l-1 -78c0 -51 -31 -89 -74 -110c55 -22 96 -72 96 -137v-89c0 -84 -60 -148 -142 -148h-65c-5 0 -8 3 -8 8v27c0 5 3 8 8 8h65c56 0 97 45 97 105v89c0 67 -46 112 -110 112h-52c-5 0 -8 3 -8 8v26
c0 5 3 9 8 9h41c59 0 100 38 100 92l1 78c0 63 -39 104 -93 104c-51 0 -89 -41 -89 -104v-554c0 -5 -4 -8 -9 -8h-27z" />
    <glyph glyph-name="t" unicode="t" horiz-adv-x="271" 
d="M239 41c5 0 8 -4 8 -9v-26c0 -5 -3 -8 -8 -8h-14c-87 0 -136 58 -136 161v299h-64c-5 0 -9 3 -9 8v26c0 5 4 8 9 8h64v132c0 5 4 8 9 8h27c5 0 9 -3 9 -8v-132h94c5 0 8 -3 8 -8v-26c0 -5 -3 -8 -8 -8h-94v-299c0 -77 31 -118 91 -118h14z" />
    <glyph glyph-name="tbar" unicode="&#x167;" horiz-adv-x="271" 
d="M239 38c5 0 8 -3 8 -8v-26c0 -5 -3 -9 -8 -9h-7c-88 0 -143 64 -143 166v123h-53c-5 0 -8 4 -8 9v19c0 5 3 8 8 8h53v138h-64c-5 0 -9 3 -9 8v26c0 5 4 8 9 8h64v132c0 5 4 8 9 8h27c5 0 9 -3 9 -8v-132h94c5 0 8 -3 8 -8v-26c0 -5 -3 -8 -8 -8h-94v-138h82
c5 0 8 -3 8 -8v-19c0 -5 -3 -9 -8 -9h-82v-123c0 -78 35 -123 98 -123h7z" />
    <glyph glyph-name="tcaron" unicode="&#x165;" horiz-adv-x="271" 
d="M180 539c-5 0 -7 3 -7 8l9 129c0 6 4 9 9 9h30c6 0 9 -4 8 -9l-23 -129c-1 -5 -4 -8 -9 -8h-17zM239 41c5 0 8 -4 8 -9v-26c0 -5 -3 -8 -8 -8h-14c-87 0 -136 58 -136 161v299h-64c-5 0 -9 3 -9 8v26c0 5 4 8 9 8h64v132c0 5 4 8 9 8h27c5 0 9 -3 9 -8v-132h94
c5 0 8 -3 8 -8v-26c0 -5 -3 -8 -8 -8h-94v-299c0 -77 31 -118 91 -118h14z" />
    <glyph glyph-name="uni0163" unicode="&#x163;" horiz-adv-x="271" 
d="M239 41c5 0 8 -4 8 -9v-26c0 -5 -3 -8 -8 -8h-14c-87 0 -136 58 -136 161v299h-64c-5 0 -9 3 -9 8v26c0 5 4 8 9 8h64v132c0 5 4 8 9 8h27c5 0 9 -3 9 -8v-132h94c5 0 8 -3 8 -8v-26c0 -5 -3 -8 -8 -8h-94v-299c0 -77 31 -118 91 -118h14zM170 -62c5 0 8 -3 7 -9
l-26 -147c0 -5 -4 -8 -9 -8h-18c-5 0 -7 3 -7 9l9 147c0 6 4 8 9 8h35z" />
    <glyph glyph-name="uni021B" unicode="&#x21b;" horiz-adv-x="271" 
d="M239 41c5 0 8 -4 8 -9v-26c0 -5 -3 -8 -8 -8h-14c-87 0 -136 58 -136 161v299h-64c-5 0 -9 3 -9 8v26c0 5 4 8 9 8h64v132c0 5 4 8 9 8h27c5 0 9 -3 9 -8v-132h94c5 0 8 -3 8 -8v-26c0 -5 -3 -8 -8 -8h-94v-299c0 -77 31 -118 91 -118h14zM166 -62c5 0 8 -3 7 -9
l-26 -147c0 -5 -4 -8 -9 -8h-18c-5 0 -7 3 -7 9l9 147c0 6 4 8 9 8h35z" />
    <glyph glyph-name="u" unicode="u" horiz-adv-x="406" 
d="M67 500h27c5 0 9 -3 9 -8v-343c0 -69 35 -116 100 -116s100 47 100 116v343c0 5 4 8 9 8h27c5 0 9 -3 9 -8v-343c0 -91 -56 -158 -145 -158s-145 67 -145 158v343c0 5 4 8 9 8z" />
    <glyph glyph-name="uacute" unicode="&#xfa;" horiz-adv-x="406" 
d="M269 670c7 0 9 -5 5 -10l-69 -96c-2 -4 -6 -5 -10 -5h-25c-6 0 -9 4 -5 10l60 95c2 4 6 6 10 6h34zM67 500h27c5 0 9 -3 9 -8v-343c0 -69 35 -116 100 -116s100 47 100 116v343c0 5 4 8 9 8h27c5 0 9 -3 9 -8v-343c0 -91 -56 -158 -145 -158s-145 67 -145 158v343
c0 5 4 8 9 8z" />
    <glyph glyph-name="ucircumflex" unicode="&#xfb;" horiz-adv-x="406" 
d="M108 559c-6 0 -9 5 -5 10l71 96c2 4 6 5 10 5h36c4 0 8 -1 10 -5l71 -96c4 -5 1 -10 -5 -10h-24c-4 0 -9 2 -11 5l-59 73l-59 -73c-2 -3 -7 -5 -11 -5h-24zM67 500h27c5 0 9 -3 9 -8v-343c0 -69 35 -116 100 -116s100 47 100 116v343c0 5 4 8 9 8h27c5 0 9 -3 9 -8v-343
c0 -91 -56 -158 -145 -158s-145 67 -145 158v343c0 5 4 8 9 8z" />
    <glyph glyph-name="udieresis" unicode="&#xfc;" horiz-adv-x="406" 
d="M153 574c-19 0 -32 13 -32 32s13 32 32 32s32 -13 32 -32s-13 -32 -32 -32zM252 574c-19 0 -32 13 -32 32s13 32 32 32s32 -13 32 -32s-13 -32 -32 -32zM67 500h27c5 0 9 -3 9 -8v-343c0 -69 35 -116 100 -116s100 47 100 116v343c0 5 4 8 9 8h27c5 0 9 -3 9 -8v-343
c0 -91 -56 -158 -145 -158s-145 67 -145 158v343c0 5 4 8 9 8z" />
    <glyph glyph-name="ugrave" unicode="&#xf9;" horiz-adv-x="406" 
d="M125 670h34c4 0 8 -2 10 -6l60 -95c4 -6 1 -10 -5 -10h-25c-4 0 -8 1 -10 5l-69 96c-4 5 -2 10 5 10zM67 500h27c5 0 9 -3 9 -8v-343c0 -69 35 -116 100 -116s100 47 100 116v343c0 5 4 8 9 8h27c5 0 9 -3 9 -8v-343c0 -91 -56 -158 -145 -158s-145 67 -145 158v343
c0 5 4 8 9 8z" />
    <glyph glyph-name="uhungarumlaut" unicode="&#x171;" horiz-adv-x="406" 
d="M228 670c7 0 9 -5 5 -10l-69 -96c-2 -4 -6 -5 -10 -5h-21c-7 0 -9 4 -6 10l61 95c2 4 6 6 10 6h30zM324 670c7 0 9 -5 5 -10l-69 -96c-2 -4 -6 -5 -10 -5h-21c-7 0 -9 4 -6 10l61 95c2 4 6 6 10 6h30zM67 500h27c5 0 9 -3 9 -8v-343c0 -69 35 -116 100 -116
s100 47 100 116v343c0 5 4 8 9 8h27c5 0 9 -3 9 -8v-343c0 -91 -56 -158 -145 -158s-145 67 -145 158v343c0 5 4 8 9 8z" />
    <glyph glyph-name="umacron" unicode="&#x16b;" horiz-adv-x="406" 
d="M122 627c0 5 3 8 8 8h143c5 0 8 -3 8 -8v-24c0 -5 -3 -9 -8 -9h-143c-5 0 -8 4 -8 9v24zM67 500h27c5 0 9 -3 9 -8v-343c0 -69 35 -116 100 -116s100 47 100 116v343c0 5 4 8 9 8h27c5 0 9 -3 9 -8v-343c0 -91 -56 -158 -145 -158s-145 67 -145 158v343c0 5 4 8 9 8z" />
    <glyph glyph-name="uogonek" unicode="&#x173;" horiz-adv-x="407" 
d="M295 -198c-61 -5 -114 21 -114 76c0 34 24 79 55 116c-4 -1 -21 -3 -32 -3c-86 0 -146 67 -146 153v348c0 5 4 8 9 8h27c5 0 9 -3 9 -8v-348c0 -63 39 -110 101 -110c61 0 101 47 101 110v348c0 5 3 8 8 8h28c5 0 8 -3 8 -8v-348c0 -45 -18 -85 -43 -111
c-49 -48 -79 -104 -79 -142c0 -36 31 -47 67 -46c5 1 9 -2 9 -7v-27c0 -5 -3 -9 -8 -9z" />
    <glyph glyph-name="uring" unicode="&#x16f;" horiz-adv-x="406" 
d="M135 615c0 38 27 64 67 64s66 -26 66 -64c0 -39 -26 -65 -66 -65s-67 26 -67 65zM168 614c0 -21 12 -34 34 -34c20 0 34 13 34 34s-14 34 -34 34c-22 0 -34 -13 -34 -34zM67 500h27c5 0 9 -3 9 -8v-343c0 -69 35 -116 100 -116s100 47 100 116v343c0 5 4 8 9 8h27
c5 0 9 -3 9 -8v-343c0 -91 -56 -158 -145 -158s-145 67 -145 158v343c0 5 4 8 9 8z" />
    <glyph glyph-name="v" unicode="v" horiz-adv-x="353" 
d="M293 493c1 4 4 7 9 7h29c5 0 8 -3 6 -9l-124 -473c-3 -13 -12 -21 -26 -21h-21c-14 0 -23 8 -26 21l-125 473c-1 6 1 9 7 9h29c5 0 8 -3 9 -7l116 -454z" />
    <glyph glyph-name="w" unicode="w" horiz-adv-x="628" 
d="M430 -9c-54 0 -96 33 -116 80c-21 -47 -62 -80 -116 -80c-87 0 -140 67 -140 154v347c0 5 4 8 9 8h27c5 0 9 -3 9 -8v-347c0 -64 33 -111 95 -111c58 0 94 47 94 111v347c0 5 3 8 8 8h28c5 0 8 -3 8 -8v-347c0 -64 36 -111 94 -111c62 0 95 47 95 111v347c0 5 3 8 8 8h28
c5 0 8 -3 8 -8v-347c0 -87 -53 -154 -139 -154z" />
    <glyph glyph-name="wacute" unicode="&#x1e83;" horiz-adv-x="628" 
d="M373 670c7 0 9 -5 5 -10l-69 -96c-2 -4 -6 -5 -10 -5h-25c-6 0 -9 4 -5 10l60 95c2 4 6 6 10 6h34zM430 -9c-54 0 -96 33 -116 80c-21 -47 -62 -80 -116 -80c-87 0 -140 67 -140 154v347c0 5 4 8 9 8h27c5 0 9 -3 9 -8v-347c0 -64 33 -111 95 -111c58 0 94 47 94 111v347
c0 5 3 8 8 8h28c5 0 8 -3 8 -8v-347c0 -64 36 -111 94 -111c62 0 95 47 95 111v347c0 5 3 8 8 8h28c5 0 8 -3 8 -8v-347c0 -87 -53 -154 -139 -154z" />
    <glyph glyph-name="wcircumflex" unicode="&#x175;" horiz-adv-x="628" 
d="M212 559c-6 0 -9 5 -5 10l71 96c2 4 6 5 10 5h36c4 0 8 -1 10 -5l71 -96c4 -5 1 -10 -5 -10h-24c-4 0 -9 2 -11 5l-59 73l-59 -73c-2 -3 -7 -5 -11 -5h-24zM430 -9c-54 0 -96 33 -116 80c-21 -47 -62 -80 -116 -80c-87 0 -140 67 -140 154v347c0 5 4 8 9 8h27
c5 0 9 -3 9 -8v-347c0 -64 33 -111 95 -111c58 0 94 47 94 111v347c0 5 3 8 8 8h28c5 0 8 -3 8 -8v-347c0 -64 36 -111 94 -111c62 0 95 47 95 111v347c0 5 3 8 8 8h28c5 0 8 -3 8 -8v-347c0 -87 -53 -154 -139 -154z" />
    <glyph glyph-name="wdieresis" unicode="&#x1e85;" horiz-adv-x="628" 
d="M257 574c-19 0 -32 13 -32 32s13 32 32 32s32 -13 32 -32s-13 -32 -32 -32zM356 574c-19 0 -32 13 -32 32s13 32 32 32s32 -13 32 -32s-13 -32 -32 -32zM430 -9c-54 0 -96 33 -116 80c-21 -47 -62 -80 -116 -80c-87 0 -140 67 -140 154v347c0 5 4 8 9 8h27c5 0 9 -3 9 -8
v-347c0 -64 33 -111 95 -111c58 0 94 47 94 111v347c0 5 3 8 8 8h28c5 0 8 -3 8 -8v-347c0 -64 36 -111 94 -111c62 0 95 47 95 111v347c0 5 3 8 8 8h28c5 0 8 -3 8 -8v-347c0 -87 -53 -154 -139 -154z" />
    <glyph glyph-name="wgrave" unicode="&#x1e81;" horiz-adv-x="628" 
d="M229 670h34c4 0 8 -2 10 -6l60 -95c4 -6 1 -10 -5 -10h-25c-4 0 -8 1 -10 5l-69 96c-4 5 -2 10 5 10zM430 -9c-54 0 -96 33 -116 80c-21 -47 -62 -80 -116 -80c-87 0 -140 67 -140 154v347c0 5 4 8 9 8h27c5 0 9 -3 9 -8v-347c0 -64 33 -111 95 -111c58 0 94 47 94 111
v347c0 5 3 8 8 8h28c5 0 8 -3 8 -8v-347c0 -64 36 -111 94 -111c62 0 95 47 95 111v347c0 5 3 8 8 8h28c5 0 8 -3 8 -8v-347c0 -87 -53 -154 -139 -154z" />
    <glyph glyph-name="x" unicode="x" horiz-adv-x="389" 
d="M58 0c-5 0 -9 3 -9 8v109c0 61 31 109 81 134c-50 23 -81 71 -81 133v108c0 5 4 8 9 8h28c5 0 8 -3 8 -8v-108c0 -67 42 -112 100 -112c61 0 101 45 101 112v108c0 5 3 8 8 8h28c5 0 8 -3 8 -8v-108c0 -62 -30 -110 -80 -133c50 -25 80 -73 80 -134v-109
c0 -5 -3 -8 -8 -8h-28c-5 0 -8 3 -8 8v109c0 66 -43 112 -101 112c-60 0 -100 -46 -100 -112v-109c0 -5 -3 -8 -8 -8h-28z" />
    <glyph glyph-name="y" unicode="y" horiz-adv-x="420" 
d="M343 500c5 0 9 -3 9 -8v-547c0 -91 -58 -155 -147 -155c-85 0 -143 63 -147 152c0 5 4 8 9 8h27c5 0 9 -2 9 -8c2 -66 39 -109 102 -109c65 0 102 45 102 112v119c-23 -34 -59 -57 -102 -57c-89 0 -147 66 -147 156v329c0 5 4 8 9 8h27c5 0 9 -3 9 -8v-329
c0 -66 38 -114 102 -114s102 48 102 114v329c0 5 4 8 9 8h27z" />
    <glyph glyph-name="yacute" unicode="&#xfd;" horiz-adv-x="420" 
d="M176 559c-6 0 -9 4 -5 10l60 95c2 4 6 6 10 6h34c7 0 9 -5 5 -10l-69 -96c-2 -4 -6 -5 -10 -5h-25zM343 500c5 0 9 -3 9 -8v-547c0 -91 -58 -155 -147 -155c-85 0 -143 63 -147 152c0 5 4 8 9 8h27c5 0 9 -2 9 -8c2 -66 39 -109 102 -109c65 0 102 45 102 112v119
c-23 -34 -59 -57 -102 -57c-89 0 -147 66 -147 156v329c0 5 4 8 9 8h27c5 0 9 -3 9 -8v-329c0 -66 38 -114 102 -114s102 48 102 114v329c0 5 4 8 9 8h27z" />
    <glyph glyph-name="ycircumflex" unicode="&#x177;" horiz-adv-x="420" 
d="M114 559c-6 0 -9 5 -5 10l71 96c2 4 6 5 10 5h36c4 0 8 -1 10 -5l71 -96c4 -5 1 -10 -5 -10h-24c-4 0 -9 2 -11 5l-59 73l-59 -73c-2 -3 -7 -5 -11 -5h-24zM343 500c5 0 9 -3 9 -8v-547c0 -91 -58 -155 -147 -155c-85 0 -143 63 -147 152c0 5 4 8 9 8h27c5 0 9 -2 9 -8
c2 -66 39 -109 102 -109c65 0 102 45 102 112v119c-23 -34 -59 -57 -102 -57c-89 0 -147 66 -147 156v329c0 5 4 8 9 8h27c5 0 9 -3 9 -8v-329c0 -66 38 -114 102 -114s102 48 102 114v329c0 5 4 8 9 8h27z" />
    <glyph glyph-name="ydieresis" unicode="&#xff;" horiz-adv-x="420" 
d="M159 574c-19 0 -32 13 -32 32s13 32 32 32s32 -13 32 -32s-13 -32 -32 -32zM258 574c-19 0 -32 13 -32 32s13 32 32 32s32 -13 32 -32s-13 -32 -32 -32zM343 500c5 0 9 -3 9 -8v-547c0 -91 -58 -155 -147 -155c-85 0 -143 63 -147 152c0 5 4 8 9 8h27c5 0 9 -2 9 -8
c2 -66 39 -109 102 -109c65 0 102 45 102 112v119c-23 -34 -59 -57 -102 -57c-89 0 -147 66 -147 156v329c0 5 4 8 9 8h27c5 0 9 -3 9 -8v-329c0 -66 38 -114 102 -114s102 48 102 114v329c0 5 4 8 9 8h27z" />
    <glyph glyph-name="ygrave" unicode="&#x1ef3;" horiz-adv-x="420" 
d="M195 564l-69 96c-4 5 -2 10 5 10h34c4 0 8 -2 10 -6l60 -95c4 -6 1 -10 -5 -10h-25c-4 0 -8 1 -10 5zM343 500c5 0 9 -3 9 -8v-547c0 -91 -58 -155 -147 -155c-85 0 -143 63 -147 152c0 5 4 8 9 8h27c5 0 9 -2 9 -8c2 -66 39 -109 102 -109c65 0 102 45 102 112v119
c-23 -34 -59 -57 -102 -57c-89 0 -147 66 -147 156v329c0 5 4 8 9 8h27c5 0 9 -3 9 -8v-329c0 -66 38 -114 102 -114s102 48 102 114v329c0 5 4 8 9 8h27z" />
    <glyph glyph-name="z" unicode="z" horiz-adv-x="355" 
d="M88 43h218c5 0 9 -4 9 -9v-26c0 -5 -4 -8 -9 -8h-246c-12 0 -20 7 -20 19v15c0 8 1 15 6 24l224 399h-213c-5 0 -9 4 -9 9v26c0 5 4 8 9 8h238c12 0 20 -7 20 -19v-18c0 -9 -1 -15 -6 -24z" />
    <glyph glyph-name="zacute" unicode="&#x17a;" horiz-adv-x="355" 
d="M243 670c7 0 9 -5 5 -10l-69 -96c-2 -4 -6 -5 -10 -5h-25c-6 0 -9 4 -5 10l60 95c2 4 6 6 10 6h34zM88 43h218c5 0 9 -4 9 -9v-26c0 -5 -4 -8 -9 -8h-246c-12 0 -20 7 -20 19v15c0 8 1 15 6 24l224 399h-213c-5 0 -9 4 -9 9v26c0 5 4 8 9 8h238c12 0 20 -7 20 -19v-18
c0 -9 -1 -15 -6 -24z" />
    <glyph glyph-name="zcaron" unicode="&#x17e;" horiz-adv-x="355" 
d="M82 670h24c4 0 9 -2 11 -5l59 -73l59 73c2 3 7 5 11 5h24c6 0 9 -5 5 -10l-71 -96c-2 -4 -6 -5 -10 -5h-36c-4 0 -8 1 -10 5l-71 96c-4 5 -1 10 5 10zM88 43h218c5 0 9 -4 9 -9v-26c0 -5 -4 -8 -9 -8h-246c-12 0 -20 7 -20 19v15c0 8 1 15 6 24l224 399h-213
c-5 0 -9 4 -9 9v26c0 5 4 8 9 8h238c12 0 20 -7 20 -19v-18c0 -9 -1 -15 -6 -24z" />
    <glyph glyph-name="zdotaccent" unicode="&#x17c;" horiz-adv-x="355" 
d="M176 572c-20 0 -33 14 -33 33c0 20 13 33 33 33c19 0 33 -13 33 -33c0 -18 -14 -33 -33 -33zM88 43h218c5 0 9 -4 9 -9v-26c0 -5 -4 -8 -9 -8h-246c-12 0 -20 7 -20 19v15c0 8 1 15 6 24l224 399h-213c-5 0 -9 4 -9 9v26c0 5 4 8 9 8h238c12 0 20 -7 20 -19v-18
c0 -9 -1 -15 -6 -24z" />
    <glyph glyph-name="uni0163.ss01" horiz-adv-x="278" 
d="M180 -49c42 -2 73 -31 73 -72c0 -48 -36 -77 -85 -77c-47 0 -82 26 -86 70c0 5 3 8 8 8h21c5 0 8 -3 9 -8c3 -22 22 -35 48 -35c27 0 48 16 48 42c0 23 -19 40 -43 40c-13 0 -26 -3 -37 -6c-2 -1 -5 0 -7 2l-1 1c-2 2 -4 4 -3 7l17 97c-34 27 -53 73 -53 137v301h-64
c-5 0 -9 3 -9 8v26c0 5 4 8 9 8h64v132c0 5 4 8 9 8h27c5 0 9 -3 9 -8v-132h94c5 0 8 -3 8 -8v-26c0 -5 -3 -8 -8 -8h-94v-301c0 -78 31 -119 91 -119h14c5 0 8 -3 8 -8v-26c0 -5 -3 -9 -8 -9h-14c-18 0 -34 3 -49 7l-9 -52c4 1 9 1 13 1z" />
    <glyph glyph-name="uni0410" unicode="&#x410;" horiz-adv-x="454" 
d="M74 0c-5 0 -9 3 -9 8v522c0 107 65 178 162 178c96 0 161 -71 161 -178v-522c1 -5 -3 -8 -8 -8h-30c-5 0 -8 3 -8 8v254h-230v-254c0 -5 -3 -8 -8 -8h-30zM112 305h230v225c0 84 -43 135 -115 135s-115 -51 -115 -135v-225z" />
    <glyph glyph-name="uni0411" unicode="&#x411;" horiz-adv-x="419" 
d="M89 -2c-13 0 -24 11 -24 24v512c0 97 64 168 157 168h123c5 0 8 -3 8 -8v-27c0 -5 -3 -9 -8 -9h-123c-67 0 -110 -50 -110 -124v-139h114c94 0 159 -71 159 -166v-64c0 -94 -65 -167 -159 -167h-137zM112 42h114c66 0 113 53 113 123v64c0 71 -47 123 -113 123h-114v-310
z" />
    <glyph glyph-name="uni0412" unicode="&#x412;" horiz-adv-x="429" 
d="M288 361c61 -19 100 -75 100 -145v-54c0 -99 -64 -164 -160 -164h-139c-14 0 -24 9 -24 23v523c0 98 61 164 151 164c93 0 155 -66 155 -164v-46c0 -69 -33 -120 -83 -137zM112 544v-165h107c65 0 105 45 105 119v46c0 75 -41 121 -108 121c-64 0 -104 -46 -104 -121z
M341 162v54c0 73 -43 119 -113 119h-116v-293h116c70 0 113 46 113 120z" />
    <glyph glyph-name="uni0413" unicode="&#x413;" horiz-adv-x="352" 
d="M74 0c-5 0 -9 3 -9 8v527c0 101 62 167 158 167h100c5 0 9 -3 9 -8v-27c0 -5 -4 -9 -9 -9h-100c-69 0 -111 -46 -111 -123v-527c0 -5 -3 -8 -8 -8h-30z" />
    <glyph glyph-name="uni0403" unicode="&#x403;" horiz-adv-x="352" 
d="M190 769c-7 0 -9 5 -5 10l70 91c2 4 6 5 10 5h35c7 0 10 -5 5 -10l-81 -91c-2 -3 -6 -5 -10 -5h-24zM74 0c-5 0 -9 3 -9 8v527c0 101 62 167 158 167h100c5 0 9 -3 9 -8v-27c0 -5 -4 -9 -9 -9h-100c-69 0 -111 -46 -111 -123v-527c0 -5 -3 -8 -8 -8h-30z" />
    <glyph glyph-name="uni0490" unicode="&#x490;" horiz-adv-x="346" 
d="M317 783c5 0 9 -3 9 -8v-108c0 -5 -4 -8 -9 -8h-94c-70 0 -111 -46 -111 -123v-528c0 -5 -3 -8 -8 -8h-30c-5 0 -9 3 -9 8v528c0 101 61 167 158 167h58v72c0 5 4 8 9 8h27z" />
    <glyph glyph-name="uni0414" unicode="&#x414;" horiz-adv-x="481" 
d="M26 -108c-5 0 -8 4 -8 9v120c0 14 8 22 22 25c49 12 71 58 71 134v356c0 97 62 167 156 167h94c25 0 40 -15 40 -40v-619h20c25 0 40 -15 40 -40v-103c0 -5 -4 -9 -9 -9h-28c-5 0 -8 4 -8 9v99h-353v-99c0 -5 -3 -9 -8 -9h-29zM109 44h245v615h-87
c-67 0 -109 -51 -109 -123v-356c0 -69 -16 -111 -49 -136z" />
    <glyph glyph-name="uni0415" unicode="&#x415;" horiz-adv-x="360" 
d="M214 -2c-96 0 -161 73 -161 170v364c0 97 65 170 161 170h99c5 0 8 -3 8 -8v-27c0 -5 -3 -9 -8 -9h-99c-69 0 -114 -53 -114 -126v-155h190c5 0 9 -3 9 -8v-27c0 -5 -4 -8 -9 -8h-190v-166c0 -73 45 -126 114 -126h99c5 0 8 -4 8 -9v-27c0 -5 -3 -8 -8 -8h-99z" />
    <glyph glyph-name="uni0401" unicode="&#x401;" horiz-adv-x="360" 
d="M148 787c-19 0 -32 13 -32 32s13 32 32 32s32 -13 32 -32s-13 -32 -32 -32zM247 787c-19 0 -32 13 -32 32s13 32 32 32s32 -13 32 -32s-13 -32 -32 -32zM214 -2c-96 0 -161 73 -161 170v364c0 97 65 170 161 170h99c5 0 8 -3 8 -8v-27c0 -5 -3 -9 -8 -9h-99
c-69 0 -114 -53 -114 -126v-155h190c5 0 9 -3 9 -8v-27c0 -5 -4 -8 -9 -8h-190v-166c0 -73 45 -126 114 -126h99c5 0 8 -4 8 -9v-27c0 -5 -3 -8 -8 -8h-99z" />
    <glyph glyph-name="uni0416" unicode="&#x416;" horiz-adv-x="677" 
d="M70 0c-5 0 -8 3 -8 8v204c0 75 46 140 113 160l-121 319c-2 5 1 9 6 9h31c4 0 8 -3 10 -7l118 -314h96v313c0 5 4 8 9 8h30c5 0 8 -3 8 -8v-313h96l119 314c1 4 6 7 10 7h30c6 0 8 -4 6 -9l-121 -319c67 -20 113 -85 113 -160v-204c0 -5 -3 -8 -8 -8h-30c-5 0 -8 3 -8 8
v204c0 68 -48 123 -112 123h-95v-327c0 -5 -3 -8 -8 -8h-30c-5 0 -9 3 -9 8v327h-95c-64 0 -111 -55 -111 -123v-204c0 -5 -4 -8 -9 -8h-30z" />
    <glyph glyph-name="uni0417" unicode="&#x417;" horiz-adv-x="404" 
d="M198 -9c-93 0 -157 68 -161 167c0 5 4 8 9 8h30c5 0 8 -3 8 -8c3 -74 49 -123 114 -123c70 0 118 54 118 129v48c0 70 -47 123 -116 123h-72c-5 0 -8 3 -8 8v27c0 5 3 9 8 9h75c61 0 99 47 99 121v42c0 75 -39 123 -104 123c-64 0 -102 -45 -105 -123c0 -5 -3 -8 -8 -8
h-30c-5 0 -8 3 -8 8c3 102 61 167 151 167c91 0 151 -68 151 -167v-42c0 -64 -27 -118 -82 -142c60 -24 96 -81 96 -146v-48c0 -100 -67 -173 -165 -173z" />
    <glyph glyph-name="uni0418" unicode="&#x418;" horiz-adv-x="451" 
d="M331 692c0 5 3 8 8 8h30c5 0 8 -3 8 -8v-671c0 -14 -8 -23 -23 -23h-130c-94 0 -159 73 -159 173v521c0 5 4 8 9 8h30c5 0 8 -3 8 -8v-521c0 -76 46 -129 112 -129h107v650z" />
    <glyph glyph-name="uni0419" unicode="&#x419;" horiz-adv-x="451" 
d="M223 768c-61 0 -103 38 -107 96c0 5 3 9 8 9h25c5 0 8 -3 9 -9c3 -35 27 -56 65 -56c39 0 63 21 66 56c0 6 4 9 9 9h25c5 0 8 -3 8 -9c-4 -57 -45 -96 -108 -96zM331 692c0 5 3 8 8 8h30c5 0 8 -3 8 -8v-671c0 -14 -8 -23 -23 -23h-130c-94 0 -159 73 -159 173v521
c0 5 4 8 9 8h30c5 0 8 -3 8 -8v-521c0 -76 46 -129 112 -129h107v650z" />
    <glyph glyph-name="uni040D" unicode="&#x40d;" horiz-adv-x="451" 
d="M269 769h-24c-4 0 -8 2 -10 5l-81 91c-5 5 -2 10 5 10h35c4 0 8 -1 10 -5l70 -91c4 -5 2 -10 -5 -10zM331 692c0 5 3 8 8 8h30c5 0 8 -3 8 -8v-671c0 -14 -8 -23 -23 -23h-130c-94 0 -159 73 -159 173v521c0 5 4 8 9 8h30c5 0 8 -3 8 -8v-521c0 -76 46 -129 112 -129h107
v650z" />
    <glyph glyph-name="uni041A" unicode="&#x41a;" horiz-adv-x="449" 
d="M82 0c-5 0 -8 3 -8 8v684c0 5 3 8 8 8h30c5 0 9 -3 9 -8v-313h109l119 314c1 4 6 7 10 7h30c6 0 8 -4 6 -9l-121 -319c70 -19 115 -85 115 -168v-196c0 -5 -3 -8 -8 -8h-30c-5 0 -8 3 -8 8v196c0 76 -48 131 -114 131h-108v-327c0 -5 -4 -8 -9 -8h-30z" />
    <glyph glyph-name="uni040C" unicode="&#x40c;" horiz-adv-x="449" 
d="M199 769c-7 0 -9 5 -5 10l70 91c2 4 6 5 10 5h35c7 0 10 -5 5 -10l-81 -91c-2 -3 -6 -5 -10 -5h-24zM82 0c-5 0 -8 3 -8 8v684c0 5 3 8 8 8h30c5 0 9 -3 9 -8v-313h109l119 314c1 4 6 7 10 7h30c6 0 8 -4 6 -9l-121 -319c70 -19 115 -85 115 -168v-196c0 -5 -3 -8 -8 -8
h-30c-5 0 -8 3 -8 8v196c0 76 -48 131 -114 131h-108v-327c0 -5 -4 -8 -9 -8h-30z" />
    <glyph glyph-name="uni041B" unicode="&#x41b;" horiz-adv-x="481" 
d="M28 -3c-5 0 -8 4 -8 9v27c0 5 3 8 8 9c55 4 88 50 88 127v368c0 99 62 165 155 165h96c26 0 40 -14 40 -40v-654c0 -5 -3 -8 -8 -8h-30c-5 0 -9 3 -9 8v650h-89c-69 0 -109 -45 -109 -121v-368c0 -100 -53 -167 -134 -172z" />
    <glyph glyph-name="uni041C" unicode="&#x41c;" horiz-adv-x="624" 
d="M82 0c-5 0 -8 3 -8 8v672c0 14 8 22 22 22h32c12 0 21 -6 25 -18l112 -304c15 -41 31 -82 46 -124h2c15 42 31 83 46 124l112 304c4 12 13 18 25 18h32c14 0 22 -8 22 -22v-672c0 -5 -3 -8 -8 -8h-30c-5 0 -9 3 -9 8l1 411c1 76 1 151 2 227h-2
c-18 -50 -36 -100 -55 -150l-102 -275c-4 -12 -14 -19 -27 -19h-16c-13 0 -23 7 -27 19l-102 275c-19 50 -37 100 -55 150h-2c1 -76 1 -151 2 -227l1 -411c0 -5 -4 -8 -9 -8h-30z" />
    <glyph glyph-name="uni041D" unicode="&#x41d;" horiz-adv-x="459" 
d="M339 692c0 5 3 8 8 8h30c5 0 8 -3 8 -8v-684c0 -5 -3 -8 -8 -8h-30c-5 0 -8 3 -8 8v326h-218v-326c0 -5 -4 -8 -9 -8h-30c-5 0 -8 3 -8 8v684c0 5 3 8 8 8h30c5 0 9 -3 9 -8v-315h218v315z" />
    <glyph glyph-name="uni041E" unicode="&#x41e;" horiz-adv-x="441" 
d="M220 -8c-99 0 -167 72 -167 184v347c0 113 68 185 167 185c100 0 167 -72 167 -178v-360c0 -106 -67 -178 -167 -178zM220 35c72 0 121 54 121 135v360c0 81 -49 135 -121 135s-120 -54 -120 -142v-347c0 -87 48 -141 120 -141z" />
    <glyph glyph-name="uni041F" unicode="&#x41f;" horiz-adv-x="461" 
d="M82 0c-5 0 -8 3 -8 8v652c0 26 14 40 40 40h233c26 0 40 -14 40 -40v-652c0 -5 -3 -8 -8 -8h-30c-5 0 -8 3 -8 8v648h-220v-648c0 -5 -4 -8 -9 -8h-30z" />
    <glyph glyph-name="uni0420" unicode="&#x420;" horiz-adv-x="416" 
d="M74 0c-5 0 -9 3 -9 8v526c0 102 60 175 157 175s158 -73 158 -175v-104c0 -95 -65 -163 -158 -163h-110v-259c0 -5 -3 -8 -8 -8h-30zM112 311h110c65 0 111 47 111 119v104c0 78 -42 131 -111 131c-68 0 -110 -53 -110 -131v-223z" />
    <glyph glyph-name="uni0421" unicode="&#x421;" horiz-adv-x="413" 
d="M215 -9c-96 0 -162 70 -162 170v378c0 100 66 170 162 170c92 0 157 -73 159 -177c0 -5 -3 -8 -8 -8h-30c-5 0 -8 3 -8 8c-3 82 -47 133 -113 133c-70 0 -115 -49 -115 -126v-378c0 -77 45 -126 115 -126c71 0 116 53 118 136c0 6 3 8 8 8h30c5 0 8 -2 8 -8
c-3 -106 -68 -180 -164 -180z" />
    <glyph glyph-name="uni0422" unicode="&#x422;" horiz-adv-x="353" 
d="M325 700c5 0 8 -3 8 -8v-27c0 -5 -3 -9 -8 -9h-125v-648c0 -5 -3 -8 -8 -8h-30c-5 0 -9 3 -9 8v648h-125c-5 0 -8 4 -8 9v27c0 5 3 8 8 8h297z" />
    <glyph glyph-name="uni0423" unicode="&#x423;" horiz-adv-x="416" 
d="M55 -3c-5 0 -9 4 -9 9v27c0 5 4 8 9 8h140c64 0 109 53 109 126v101h-107c-92 0 -159 73 -159 170v254c0 5 4 8 9 8h30c5 0 8 -3 8 -8v-254c0 -73 48 -126 112 -126h107v380c0 5 3 8 8 8h30c5 0 8 -3 8 -8v-525c0 -97 -63 -170 -155 -170h-140z" />
    <glyph glyph-name="uni040E" unicode="&#x40e;" horiz-adv-x="416" 
d="M196 768c-61 0 -103 38 -107 96c0 5 3 9 8 9h25c5 0 8 -3 9 -9c3 -35 27 -56 65 -56c39 0 63 21 66 56c0 6 4 9 9 9h25c5 0 8 -3 8 -9c-4 -57 -45 -96 -108 -96zM55 -3c-5 0 -9 4 -9 9v27c0 5 4 8 9 8h140c64 0 109 53 109 126v101h-107c-92 0 -159 73 -159 170v254
c0 5 4 8 9 8h30c5 0 8 -3 8 -8v-254c0 -73 48 -126 112 -126h107v380c0 5 3 8 8 8h30c5 0 8 -3 8 -8v-525c0 -97 -63 -170 -155 -170h-140z" />
    <glyph glyph-name="uni0424" unicode="&#x424;" horiz-adv-x="625" 
d="M297 -48c-5 0 -8 3 -8 8v92h-76c-108 0 -172 75 -172 190v229c0 118 64 189 172 189h76v77c0 5 3 8 8 8h30c5 0 9 -3 9 -8v-77h76c107 0 171 -71 171 -189v-229c0 -115 -64 -190 -171 -190h-76v-92c0 -5 -4 -8 -9 -8h-30zM213 95h76v522h-76c-81 0 -125 -52 -125 -146
v-229c0 -91 44 -147 125 -147zM336 95h76c80 0 125 56 125 147v229c0 94 -45 146 -125 146h-76v-522z" />
    <glyph glyph-name="uni0425" unicode="&#x425;" horiz-adv-x="424" 
d="M371 501c0 -68 -34 -119 -91 -146c57 -27 91 -78 91 -148v-199c0 -5 -4 -8 -9 -8h-30c-5 0 -8 3 -8 8v199c0 73 -47 126 -112 126c-64 0 -112 -53 -112 -126v-199c0 -5 -3 -8 -8 -8h-30c-5 0 -9 3 -9 8v199c0 70 34 122 90 148c-57 27 -90 78 -90 146v191c0 5 4 8 9 8h30
c5 0 8 -3 8 -8v-191c0 -71 48 -125 112 -125c65 0 112 54 112 125v191c0 5 3 8 8 8h30c5 0 9 -3 9 -8v-191z" />
    <glyph glyph-name="uni0427" unicode="&#x427;" horiz-adv-x="414" 
d="M302 0c-5 0 -8 3 -8 8v241h-107c-94 0 -159 68 -159 167v276c0 5 4 8 9 8h30c5 0 8 -3 8 -8v-276c0 -75 44 -123 112 -123h107v399c0 5 3 8 8 8h30c5 0 8 -3 8 -8v-684c0 -5 -3 -8 -8 -8h-30z" />
    <glyph glyph-name="uni0426" unicode="&#x426;" horiz-adv-x="458" 
d="M401 -108c-5 0 -9 4 -9 9v97h-171c-94 0 -156 71 -156 173v521c0 5 4 8 9 8h30c5 0 8 -3 8 -8v-521c0 -79 42 -129 109 -129h110v650c0 5 3 8 8 8h30c5 0 8 -3 8 -8v-650h21c25 0 40 -15 40 -40v-101c0 -5 -4 -9 -9 -9h-28z" />
    <glyph glyph-name="uni0428" unicode="&#x428;" horiz-adv-x="683" 
d="M221 -1c-92 0 -156 71 -156 165v528c0 5 4 8 9 8h30c5 0 8 -3 8 -8v-528c0 -71 43 -122 109 -122h94v650c0 5 4 8 9 8h29c5 0 9 -3 9 -8v-650h200v650c0 5 4 8 9 8h29c5 0 9 -3 9 -8v-653c0 -26 -15 -40 -40 -40h-348z" />
    <glyph glyph-name="uni0429" unicode="&#x429;" horiz-adv-x="689" 
d="M632 -108c-5 0 -8 4 -8 9v99h-403c-92 0 -156 71 -156 165v527c0 5 4 8 9 8h30c5 0 8 -3 8 -8v-527c0 -71 43 -121 109 -121h94v648c0 5 4 8 9 8h29c5 0 9 -3 9 -8v-648h200v648c0 5 4 8 9 8h29c5 0 9 -3 9 -8v-648h20c25 0 40 -15 40 -40v-103c0 -5 -4 -9 -9 -9h-28z
" />
    <glyph glyph-name="uni040F" unicode="&#x40f;" horiz-adv-x="461" 
d="M216 -108c-5 0 -8 4 -8 9v99h-94c-26 0 -40 14 -40 40v652c0 5 3 8 8 8h30c5 0 9 -3 9 -8v-648h220v648c0 5 3 8 8 8h30c5 0 8 -3 8 -8v-652c0 -26 -14 -40 -40 -40h-93v-99c0 -5 -3 -9 -8 -9h-30z" />
    <glyph glyph-name="uni042C" unicode="&#x42c;" horiz-adv-x="423" 
d="M114 0c-26 0 -40 14 -40 40v652c0 5 3 8 8 8h30c5 0 9 -3 9 -8v-288h109c94 0 157 -73 157 -164v-76c0 -91 -63 -164 -157 -164h-116zM121 44h109c67 0 111 53 111 120v76c0 67 -44 120 -111 120h-109v-316z" />
    <glyph glyph-name="uni042A" unicode="&#x42a;" horiz-adv-x="474" 
d="M279 404c97 0 160 -73 160 -164v-76c0 -91 -63 -164 -160 -164h-113c-26 0 -40 14 -40 40v616h-98c-5 0 -8 4 -8 9v27c0 5 3 8 8 8h104c26 0 40 -14 40 -40v-256h107zM392 164v76c0 67 -43 120 -113 120h-107v-316h107c70 0 113 53 113 120z" />
    <glyph glyph-name="uni042B" unicode="&#x42b;" horiz-adv-x="591" 
d="M114 0c-26 0 -40 14 -40 40v652c0 5 3 8 8 8h30c5 0 9 -3 9 -8v-288h109c94 0 157 -73 157 -164v-76c0 -91 -63 -164 -157 -164h-116zM479 0c-5 0 -8 3 -8 8v684c0 5 3 8 8 8h30c5 0 8 -3 8 -8v-684c0 -5 -3 -8 -8 -8h-30zM121 44h109c67 0 111 53 111 120v76
c0 67 -44 120 -111 120h-109v-316z" />
    <glyph glyph-name="uni0409" unicode="&#x409;" horiz-adv-x="693" 
d="M28 -1c-5 0 -8 3 -8 8v27c0 5 3 8 8 9c51 4 88 46 88 118v370c0 98 63 169 155 169h92c25 0 40 -14 40 -40v-257h97c94 0 157 -74 157 -164v-75c0 -91 -63 -164 -157 -164h-104c-26 0 -40 14 -40 40v616h-85c-64 0 -109 -52 -109 -125v-370c0 -95 -60 -157 -134 -162z
M403 44h97c67 0 111 53 111 120v75c0 67 -44 120 -111 120h-97v-315z" />
    <glyph glyph-name="uni040A" unicode="&#x40a;" horiz-adv-x="665" 
d="M475 385c91 0 154 -69 154 -160v-65c0 -91 -63 -161 -154 -161h-106c-25 0 -40 14 -40 40v302h-208v-333c0 -5 -4 -8 -9 -8h-30c-5 0 -8 3 -8 8v684c0 5 3 8 8 8h30c5 0 9 -3 9 -8v-307h208v307c0 5 4 8 9 8h30c5 0 8 -3 8 -8v-307h99zM583 158v67c0 68 -43 116 -108 116
h-99v-299h99c65 0 108 48 108 116z" />
    <glyph glyph-name="uni0405" unicode="&#x405;" horiz-adv-x="407" 
d="M204 -9c-97 0 -162 73 -164 180c0 5 4 8 9 8h30c5 0 8 -3 8 -8c3 -86 44 -136 117 -136c75 0 116 44 116 115c0 179 -275 209 -275 404c0 93 64 155 158 155c89 0 153 -70 156 -177c0 -5 -3 -8 -8 -8h-30c-5 0 -9 3 -9 8c-3 89 -44 133 -109 133
c-69 0 -111 -40 -111 -111c0 -167 275 -198 275 -404c0 -93 -64 -159 -163 -159z" />
    <glyph glyph-name="uni0404" unicode="&#x404;" horiz-adv-x="413" 
d="M371 179c5 0 8 -2 8 -8c-3 -106 -68 -180 -164 -180s-162 70 -162 170v378c0 100 66 170 162 170c92 0 157 -73 159 -177c0 -5 -3 -8 -8 -8h-30c-5 0 -8 3 -8 8c-3 82 -47 133 -113 133c-70 0 -115 -49 -115 -126v-160h205c5 0 8 -4 8 -9v-27c0 -5 -3 -8 -8 -8h-205v-174
c0 -77 45 -126 115 -126c71 0 116 53 118 136c0 6 3 8 8 8h30z" />
    <glyph glyph-name="uni042D" unicode="&#x42d;" horiz-adv-x="413" 
d="M198 709c96 0 162 -70 162 -170v-378c0 -100 -66 -170 -162 -170s-161 74 -164 180c0 6 3 8 8 8h30c5 0 8 -2 8 -8c2 -83 47 -136 118 -136c70 0 115 49 115 126v174h-205c-5 0 -8 3 -8 8v27c0 5 3 9 8 9h205v160c0 77 -45 126 -115 126c-66 0 -110 -51 -113 -133
c0 -5 -3 -8 -8 -8h-30c-5 0 -8 3 -8 8c2 104 67 177 159 177z" />
    <glyph glyph-name="uni0406" unicode="&#x406;" horiz-adv-x="195" 
d="M74 692c0 5 3 8 8 8h30c5 0 9 -3 9 -8v-684c0 -5 -4 -8 -9 -8h-30c-5 0 -8 3 -8 8v684z" />
    <glyph glyph-name="uni0407" unicode="&#x407;" horiz-adv-x="195" 
d="M48 787c-19 0 -32 13 -32 32s13 32 32 32s32 -13 32 -32s-13 -32 -32 -32zM147 787c-19 0 -32 13 -32 32s13 32 32 32s32 -13 32 -32s-13 -32 -32 -32zM74 692c0 5 3 8 8 8h30c5 0 9 -3 9 -8v-684c0 -5 -4 -8 -9 -8h-30c-5 0 -8 3 -8 8v684z" />
    <glyph glyph-name="uni0408" unicode="&#x408;" horiz-adv-x="405" 
d="M180 -9c-96 0 -157 75 -160 180c0 5 3 8 8 8h30c5 0 9 -2 9 -8c2 -81 43 -136 114 -136c75 0 112 53 112 141v516c0 5 3 8 8 8h30c5 0 8 -3 8 -8v-516c0 -112 -53 -185 -159 -185z" />
    <glyph glyph-name="uni040B" unicode="&#x40b;" horiz-adv-x="514" 
d="M162 0c-5 0 -9 3 -9 8v648h-125c-5 0 -8 4 -8 9v27c0 5 3 8 8 8h297c5 0 8 -3 8 -8v-27c0 -5 -3 -9 -8 -9h-125v-205c22 36 59 58 107 58c93 0 149 -67 149 -165v-336c0 -5 -4 -8 -9 -8h-29c-5 0 -9 3 -9 8v334c0 77 -38 124 -105 124c-61 0 -104 -47 -104 -120v-338
c0 -5 -3 -8 -8 -8h-30z" />
    <glyph glyph-name="uni042E" unicode="&#x42e;" horiz-adv-x="606" 
d="M395 709c91 0 157 -69 157 -167v-384c0 -98 -66 -167 -157 -167s-158 69 -158 167v176h-116v-326c0 -5 -4 -8 -9 -8h-30c-5 0 -8 3 -8 8v684c0 5 3 8 8 8h30c5 0 9 -3 9 -8v-315h116v165c0 98 67 167 158 167zM506 158v384c0 75 -48 123 -111 123
c-64 0 -111 -48 -111 -123v-384c0 -75 47 -123 111 -123c63 0 111 48 111 123z" />
    <glyph glyph-name="uni042F" unicode="&#x42f;" horiz-adv-x="429" 
d="M203 709c98 0 160 -73 160 -175v-526c0 -5 -3 -8 -8 -8h-30c-5 0 -8 3 -8 8v270h-111l-118 -271c-1 -5 -5 -7 -9 -7h-31c-6 0 -9 4 -7 10l120 275c-71 17 -119 82 -119 166v83c0 102 63 175 161 175zM317 322v212c0 78 -43 131 -114 131c-72 0 -114 -53 -114 -131v-83
c0 -76 46 -129 114 -129h114z" />
    <glyph glyph-name="uni0402" unicode="&#x402;" horiz-adv-x="505" 
d="M310 -3c-5 0 -9 4 -9 9v26c0 5 3 9 8 9c58 4 100 51 100 113v192c0 73 -38 120 -105 120c-68 0 -104 -47 -104 -120v-338c0 -5 -3 -8 -8 -8h-30c-5 0 -9 3 -9 8v648h-125c-5 0 -8 4 -8 9v27c0 5 3 8 8 8h297c5 0 8 -3 8 -8v-27c0 -5 -3 -9 -8 -9h-125v-205
c22 36 59 58 107 58c91 0 149 -67 149 -163v-192c0 -86 -63 -152 -146 -157z" />
    <glyph glyph-name="uni0414.loclBGR" horiz-adv-x="479" 
d="M22 -108c-5 0 -8 4 -8 9v103c0 24 15 40 42 40h12l133 635c3 13 11 21 25 21h28c14 0 22 -8 25 -21l133 -635h12c27 0 41 -15 41 -40v-103c0 -5 -3 -9 -8 -9h-29c-5 0 -8 4 -8 9v99h-361v-99c0 -5 -3 -9 -8 -9h-29zM116 44h248l-124 597z" />
    <glyph glyph-name="uni0418.loclBGR" horiz-adv-x="462" 
d="M225 -9c-96 0 -160 73 -160 179v522c0 5 4 8 9 8h30c5 0 8 -3 8 -8v-522c0 -82 45 -135 111 -135c71 0 118 53 118 135v522c0 5 4 8 9 8h30c5 0 8 -3 8 -8v-684c0 -5 -3 -8 -8 -8h-24c-5 0 -7 2 -8 8l-4 51c-23 -42 -64 -68 -119 -68z" />
    <glyph glyph-name="uni0419.loclBGR" horiz-adv-x="462" 
d="M227 768c-61 0 -103 38 -107 96c0 5 3 9 8 9h25c5 0 8 -3 9 -9c3 -35 27 -56 65 -56c39 0 63 21 66 56c0 6 4 9 9 9h25c5 0 8 -3 8 -9c-4 -57 -45 -96 -108 -96zM225 -9c-96 0 -160 73 -160 179v522c0 5 4 8 9 8h30c5 0 8 -3 8 -8v-522c0 -82 45 -135 111 -135
c71 0 118 53 118 135v522c0 5 4 8 9 8h30c5 0 8 -3 8 -8v-684c0 -5 -3 -8 -8 -8h-24c-5 0 -7 2 -8 8l-4 51c-23 -42 -64 -68 -119 -68z" />
    <glyph glyph-name="uni040D.loclBGR" horiz-adv-x="462" 
d="M273 769h-24c-4 0 -8 2 -10 5l-81 91c-5 5 -2 10 5 10h35c4 0 8 -1 10 -5l70 -91c4 -5 2 -10 -5 -10zM225 -9c-96 0 -160 73 -160 179v522c0 5 4 8 9 8h30c5 0 8 -3 8 -8v-522c0 -82 45 -135 111 -135c71 0 118 53 118 135v522c0 5 4 8 9 8h30c5 0 8 -3 8 -8v-684
c0 -5 -3 -8 -8 -8h-24c-5 0 -7 2 -8 8l-4 51c-23 -42 -64 -68 -119 -68z" />
    <glyph glyph-name="uni041B.loclBGR" horiz-adv-x="389" 
d="M370 9c1 -5 -2 -9 -8 -9h-29c-5 0 -9 2 -10 7l-128 643l-129 -643c-1 -5 -4 -7 -9 -7h-30c-6 0 -9 4 -8 9l136 673c3 14 11 21 25 21h29c14 0 22 -7 25 -21z" />
    <glyph glyph-name="uni041F.loclBGR" horiz-adv-x="453" 
d="M74 0c-5 0 -9 3 -9 8v523c0 105 64 178 162 178c97 0 161 -73 161 -178v-523c0 -5 -3 -8 -8 -8h-30c-5 0 -9 3 -9 8v523c0 81 -45 134 -114 134c-70 0 -115 -53 -115 -134v-523c0 -5 -3 -8 -8 -8h-30z" />
    <glyph glyph-name="uni0422.loclBGR" horiz-adv-x="353" 
d="M325 700c5 0 8 -3 8 -8v-27c0 -5 -3 -9 -8 -9h-125v-648c0 -5 -3 -8 -8 -8h-30c-5 0 -9 3 -9 8v648h-125c-5 0 -8 4 -8 9v27c0 5 3 8 8 8h297z" />
    <glyph glyph-name="uni0423.loclBGR" horiz-adv-x="404" 
d="M342 700c5 0 9 -3 9 -8v-522c0 -97 -66 -170 -159 -170h-139c-5 0 -9 3 -9 8v27c0 5 4 9 9 9h139c66 0 112 53 112 126v125c-23 -35 -61 -56 -112 -56c-96 0 -159 73 -159 176v277c0 5 4 8 9 8h30c5 0 8 -3 8 -8v-277c0 -79 44 -132 112 -132s112 53 112 135v274
c0 5 3 8 8 8h30z" />
    <glyph glyph-name="uni040E.loclBGR" horiz-adv-x="404" 
d="M193 768c-61 0 -103 38 -107 96c0 5 3 9 8 9h25c5 0 8 -3 9 -9c3 -35 27 -56 65 -56c39 0 63 21 66 56c0 6 4 9 9 9h25c5 0 8 -3 8 -9c-4 -57 -45 -96 -108 -96zM342 700c5 0 9 -3 9 -8v-522c0 -97 -66 -170 -159 -170h-139c-5 0 -9 3 -9 8v27c0 5 4 9 9 9h139
c66 0 112 53 112 126v125c-23 -35 -61 -56 -112 -56c-96 0 -159 73 -159 176v277c0 5 4 8 9 8h30c5 0 8 -3 8 -8v-277c0 -79 44 -132 112 -132s112 53 112 135v274c0 5 3 8 8 8h30z" />
    <glyph glyph-name="uni0424.loclBGR" horiz-adv-x="667" 
d="M464 708c87 0 149 -68 149 -163v-390c0 -95 -62 -163 -149 -163c-44 0 -87 25 -107 61v-129c0 -5 -4 -8 -9 -8h-30c-5 0 -8 3 -8 8v128c-20 -35 -64 -61 -108 -61c-86 0 -149 69 -149 163v392c0 94 63 162 149 162c44 0 88 -25 108 -60v123c0 5 3 8 8 8h30c5 0 9 -3 9 -8
v-122c20 34 63 59 107 59zM205 35c61 0 105 49 105 119v392c0 70 -44 119 -105 119c-62 0 -105 -49 -105 -119v-392c0 -70 43 -119 105 -119zM567 155v390c0 70 -44 119 -105 119s-105 -49 -105 -118v-392c0 -69 44 -119 105 -119s105 50 105 120z" />
    <glyph glyph-name="uni0427.loclBGR" horiz-adv-x="430" 
d="M317 0c-5 0 -8 3 -8 8v285c-23 -36 -61 -57 -112 -57c-96 0 -159 73 -159 175v281c0 5 4 8 9 8h30c5 0 8 -3 8 -8v-281c0 -79 44 -132 112 -132s112 53 112 136v277c0 5 3 8 8 8h30c5 0 9 -3 9 -8v-684c0 -5 -4 -8 -9 -8h-30z" />
    <glyph glyph-name="uni0426.loclBGR" horiz-adv-x="474" 
d="M418 -108c-5 0 -9 4 -9 9v99c-38 4 -58 31 -64 56c-23 -39 -63 -65 -121 -65c-94 0 -159 74 -159 179v522c0 5 4 8 9 8h30c5 0 8 -3 8 -8v-522c0 -82 44 -135 113 -135c68 0 116 52 116 135v522c0 5 4 8 9 8h30c5 0 8 -3 8 -8v-598c0 -77 66 -25 66 -84v-109
c0 -5 -3 -9 -8 -9h-28z" />
    <glyph glyph-name="uni0428.loclBGR" horiz-adv-x="710" 
d="M220 -9c-96 0 -155 71 -155 174v527c0 5 4 8 9 8h30c5 0 8 -3 8 -8v-527c0 -78 42 -130 108 -130s107 52 107 130v527c0 5 4 8 9 8h30c5 0 8 -3 8 -8v-527c0 -78 42 -130 104 -130c69 0 111 52 111 133v524c0 5 4 8 9 8h30c5 0 8 -3 8 -8v-684c0 -5 -3 -8 -8 -8h-30
c-5 0 -9 3 -9 8v45c-21 -38 -57 -62 -109 -62c-62 0 -107 32 -129 85c-22 -53 -69 -85 -131 -85z" />
    <glyph glyph-name="uni0429.loclBGR" horiz-adv-x="722" 
d="M666 -108c-5 0 -9 4 -9 9v99c-37 4 -57 30 -64 54c-22 -37 -59 -63 -114 -63c-58 0 -104 31 -128 80c-26 -49 -72 -80 -132 -80c-93 0 -154 73 -154 175v526c0 5 4 8 9 8h30c5 0 8 -3 8 -8v-526c0 -78 42 -131 107 -131c66 0 108 53 108 131v526c0 5 4 8 9 8h30
c5 0 8 -3 8 -8v-525c0 -79 41 -132 107 -132c63 0 108 49 108 132v525c0 5 4 8 9 8h30c5 0 8 -3 8 -8v-598c0 -77 66 -25 66 -84v-109c0 -5 -3 -9 -8 -9h-28z" />
    <glyph glyph-name="uni041B.ss01" horiz-adv-x="485" 
d="M28 -1c-5 0 -8 3 -8 8v30c0 5 3 8 8 8c57 5 91 51 91 129v357c0 108 59 178 150 178c92 0 150 -70 150 -178v-523c0 -5 -3 -8 -8 -8h-30c-5 0 -8 3 -8 8v523c0 84 -37 132 -104 132c-65 0 -103 -48 -103 -132v-357c0 -102 -53 -170 -138 -175z" />
    <glyph glyph-name="uni0430" unicode="&#x430;" horiz-adv-x="390" 
d="M195 -8c-94 0 -153 62 -153 155c0 81 59 142 154 142h100v66c0 67 -38 111 -101 111c-60 0 -96 -40 -100 -97c-1 -6 -4 -9 -9 -9h-27c-5 0 -9 4 -9 9c5 81 59 140 145 140c89 0 146 -63 146 -154v-208c0 -91 -56 -155 -146 -155zM195 34c64 0 101 45 101 113v100h-100
c-70 0 -109 -42 -109 -100c0 -69 39 -113 108 -113z" />
    <glyph glyph-name="uni0431" unicode="&#x431;" horiz-adv-x="409" 
d="M209 -9c-91 0 -151 66 -151 158v327c0 113 47 164 117 188c45 15 102 30 135 39c5 1 9 -1 9 -7l1 -25c0 -5 -2 -8 -7 -9c-34 -8 -92 -24 -130 -39c-52 -21 -80 -55 -80 -147v-44c23 36 62 57 113 57c84 0 144 -66 144 -158v-182c0 -92 -60 -158 -151 -158zM209 34
c65 0 106 47 106 115v182c0 68 -41 115 -106 115s-106 -47 -106 -115v-182c0 -68 41 -115 106 -115z" />
    <glyph glyph-name="uni0432" unicode="&#x432;" horiz-adv-x="400" 
d="M266 270c60 -19 92 -66 92 -125c0 -83 -65 -145 -160 -145h-103c-24 0 -37 13 -37 37v335c0 82 53 137 137 137c85 0 139 -55 139 -132c0 -51 -26 -89 -68 -107zM103 372v-83h90c65 0 97 40 97 88c0 53 -34 89 -95 89c-60 0 -92 -35 -92 -94zM198 43c71 0 116 43 116 102
c0 58 -42 101 -113 101h-98v-203h95z" />
    <glyph glyph-name="uni0433" unicode="&#x433;" horiz-adv-x="291" 
d="M67 0c-5 0 -9 3 -9 8v347c0 94 52 147 143 147h58c5 0 8 -3 8 -8v-26c0 -5 -3 -9 -8 -9h-58c-65 0 -98 -35 -98 -104v-347c0 -5 -4 -8 -9 -8h-27z" />
    <glyph glyph-name="uni0453" unicode="&#x453;" horiz-adv-x="293" 
d="M267 670c7 0 9 -5 5 -10l-69 -96c-2 -4 -6 -5 -10 -5h-25c-6 0 -9 4 -5 10l60 95c2 4 6 6 10 6h34zM67 0c-5 0 -9 3 -9 8v347c0 94 52 147 143 147h58c5 0 8 -3 8 -8v-26c0 -5 -3 -9 -8 -9h-58c-65 0 -98 -35 -98 -104v-347c0 -5 -4 -8 -9 -8h-27z" />
    <glyph glyph-name="uni0491" unicode="&#x491;" horiz-adv-x="303" 
d="M67 0c-5 0 -9 3 -9 8v353c0 87 57 142 140 142h36v65c0 5 3 8 8 8h28c5 0 8 -3 8 -8v-75c0 -21 -12 -33 -33 -33h-47c-59 0 -95 -36 -95 -99v-353c0 -5 -4 -8 -9 -8h-27z" />
    <glyph glyph-name="uni0434" unicode="&#x434;" horiz-adv-x="451" 
d="M27 -107c-5 0 -8 3 -8 8v121c0 13 7 20 22 23c40 10 60 44 60 102v192c0 95 62 162 153 162h79c24 0 37 -13 37 -36v-422h20c23 0 36 -13 36 -37v-105c0 -5 -3 -8 -8 -8h-26c-5 0 -9 3 -9 8v99h-321v-99c0 -5 -4 -8 -9 -8h-26zM105 43h221v416h-72
c-67 0 -109 -48 -109 -120v-189c0 -50 -15 -86 -40 -107z" />
    <glyph glyph-name="uni0435" unicode="&#x435;" horiz-adv-x="389" 
d="M197 -8c-92 0 -148 64 -148 154v207c0 90 58 155 149 155c89 0 149 -66 149 -151c0 -83 -58 -145 -156 -145h-97v-66c0 -64 36 -112 103 -112c64 0 101 46 103 110c0 5 4 8 9 8h27c5 0 9 -3 9 -8c-3 -89 -59 -152 -148 -152zM94 255h97c73 0 111 43 111 102
c0 62 -40 109 -104 109c-66 0 -104 -46 -104 -113v-98z" />
    <glyph glyph-name="uni0451" unicode="&#x451;" horiz-adv-x="388" 
d="M145 574c-19 0 -32 13 -32 32s13 32 32 32s32 -13 32 -32s-13 -32 -32 -32zM244 574c-19 0 -32 13 -32 32s13 32 32 32s32 -13 32 -32s-13 -32 -32 -32zM197 -8c-92 0 -148 64 -148 154v207c0 90 58 155 149 155c89 0 149 -66 149 -151c0 -83 -58 -145 -156 -145h-97v-66
c0 -64 36 -112 103 -112c64 0 101 46 103 110c0 5 4 8 9 8h27c5 0 9 -3 9 -8c-3 -89 -59 -152 -148 -152zM94 255h97c73 0 111 43 111 102c0 62 -40 109 -104 109c-66 0 -104 -46 -104 -113v-98z" />
    <glyph glyph-name="uni0436" unicode="&#x436;" horiz-adv-x="584" 
d="M56 0c-5 0 -8 3 -8 8v127c0 76 46 130 117 142l-125 213c-3 6 1 10 7 10h32c4 0 8 -2 10 -6l123 -212h58v210c0 5 3 8 8 8h28c5 0 8 -3 8 -8v-210h58l123 212c2 4 6 6 10 6h32c6 0 10 -4 6 -10l-125 -213c72 -12 118 -66 118 -142v-127c0 -5 -3 -8 -8 -8h-28
c-5 0 -8 3 -8 8v127c0 64 -42 104 -106 104h-72v-231c0 -5 -3 -8 -8 -8h-28c-5 0 -8 3 -8 8v231h-72c-64 0 -106 -40 -106 -104v-127c0 -5 -3 -8 -8 -8h-28z" />
    <glyph glyph-name="uni0437" unicode="&#x437;" horiz-adv-x="370" 
d="M179 -9c-86 0 -145 62 -150 145c0 5 4 9 9 9h27c5 0 9 -3 9 -9c3 -59 43 -102 105 -102c63 0 105 41 105 109c0 60 -37 103 -109 103h-50c-5 0 -8 3 -8 8v26c0 5 3 8 8 8h48c63 0 95 40 95 89c0 54 -32 89 -92 89c-58 0 -89 -33 -92 -97c0 -5 -3 -9 -8 -9h-28
c-5 0 -8 4 -8 9c3 88 54 140 136 140c83 0 136 -55 136 -133c0 -51 -28 -89 -72 -107c57 -19 89 -64 89 -126c0 -91 -63 -152 -150 -152z" />
    <glyph glyph-name="uni0438" unicode="&#x438;" horiz-adv-x="409" 
d="M211 -1c-88 0 -153 63 -153 150v343c0 5 4 8 9 8h27c5 0 9 -3 9 -8v-343c0 -64 44 -108 108 -108h86v451c0 5 3 8 8 8h28c5 0 8 -3 8 -8v-457c0 -23 -13 -36 -36 -36h-94z" />
    <glyph glyph-name="uni0439" unicode="&#x439;" horiz-adv-x="409" 
d="M197 562c-61 0 -103 39 -107 98c0 5 3 8 8 8h25c5 0 8 -2 9 -8c3 -37 27 -58 65 -58c39 0 63 21 66 58c0 6 4 8 9 8h25c5 0 8 -2 8 -8c-4 -58 -45 -98 -108 -98zM211 -1c-88 0 -153 63 -153 150v343c0 5 4 8 9 8h27c5 0 9 -3 9 -8v-343c0 -64 44 -108 108 -108h86v451
c0 5 3 8 8 8h28c5 0 8 -3 8 -8v-457c0 -23 -13 -36 -36 -36h-94z" />
    <glyph glyph-name="uni045D" unicode="&#x45d;" horiz-adv-x="409" 
d="M120 670h34c4 0 8 -2 10 -6l60 -95c4 -6 1 -10 -5 -10h-25c-4 0 -8 1 -10 5l-69 96c-4 5 -2 10 5 10zM211 -1c-88 0 -153 63 -153 150v343c0 5 4 8 9 8h27c5 0 9 -3 9 -8v-343c0 -64 44 -108 108 -108h86v451c0 5 3 8 8 8h28c5 0 8 -3 8 -8v-457c0 -23 -13 -36 -36 -36
h-94z" />
    <glyph glyph-name="uni043A" unicode="&#x43a;" horiz-adv-x="397" 
d="M230 277c73 -12 121 -66 121 -142v-127c0 -5 -3 -8 -8 -8h-28c-5 0 -8 3 -8 8v127c0 64 -42 104 -106 104h-89v-231c0 -5 -3 -8 -8 -8h-28c-5 0 -8 3 -8 8v484c0 5 3 8 8 8h28c5 0 8 -3 8 -8v-210h72l125 212c2 4 6 6 10 6h32c6 0 9 -4 6 -10z" />
    <glyph glyph-name="uni045C" unicode="&#x45c;" horiz-adv-x="397" 
d="M280 670c7 0 9 -5 5 -10l-69 -96c-2 -4 -6 -5 -10 -5h-25c-6 0 -9 4 -5 10l60 95c2 4 6 6 10 6h34zM230 277c73 -12 121 -66 121 -142v-127c0 -5 -3 -8 -8 -8h-28c-5 0 -8 3 -8 8v127c0 64 -42 104 -106 104h-89v-231c0 -5 -3 -8 -8 -8h-28c-5 0 -8 3 -8 8v484
c0 5 3 8 8 8h28c5 0 8 -3 8 -8v-210h72l125 212c2 4 6 6 10 6h32c6 0 9 -4 6 -10z" />
    <glyph glyph-name="uni043B" unicode="&#x43b;" horiz-adv-x="429" 
d="M27 -1c-5 0 -8 3 -8 8v26c0 5 2 8 8 9c41 4 63 39 63 101v209c0 87 64 149 156 149h79c23 0 36 -13 36 -36v-457c0 -5 -3 -8 -8 -8h-28c-5 0 -8 3 -8 8v451h-71c-68 0 -112 -43 -112 -107v-209c0 -86 -37 -140 -107 -144z" />
    <glyph glyph-name="uni043C" unicode="&#x43c;" horiz-adv-x="539" 
d="M76 0c-5 0 -8 3 -8 8v470c0 15 9 23 23 23h21c13 0 22 -4 27 -17l85 -170c16 -33 32 -68 45 -97h1c12 29 28 63 45 97l84 170c6 13 15 17 28 17h20c15 0 24 -8 24 -23v-470c0 -5 -4 -8 -9 -8h-27c-5 0 -9 3 -9 8v306c0 48 1 96 2 131h-1c-17 -35 -33 -70 -49 -105
l-75 -158c-6 -11 -14 -17 -27 -17h-13c-13 0 -22 6 -27 17l-76 158l-48 105h-2c2 -35 2 -83 2 -131v-306c0 -5 -3 -8 -8 -8h-28z" />
    <glyph glyph-name="uni043D" unicode="&#x43d;" horiz-adv-x="417" 
d="M304 492c0 5 4 8 9 8h27c5 0 9 -3 9 -8v-484c0 -5 -4 -8 -9 -8h-27c-5 0 -9 3 -9 8v231h-192v-231c0 -5 -3 -8 -8 -8h-27c-6 0 -9 3 -9 8v484c0 5 3 8 8 8h28c5 0 8 -3 8 -8v-211h192v211z" />
    <glyph glyph-name="uni043E" unicode="&#x43e;" horiz-adv-x="399" 
d="M199 -9c-91 0 -150 67 -150 155v208c0 88 59 155 150 155c92 0 150 -67 150 -155v-208c0 -88 -58 -155 -150 -155zM199 33c66 0 105 48 105 113v208c0 65 -39 113 -105 113c-65 0 -105 -48 -105 -113v-208c0 -65 40 -113 105 -113z" />
    <glyph glyph-name="uni043F" unicode="&#x43f;" horiz-adv-x="417" 
d="M312 500c24 0 37 -13 37 -37v-455c0 -5 -4 -8 -9 -8h-27c-5 0 -9 3 -9 8v449h-192v-449c0 -5 -3 -8 -8 -8h-28c-5 0 -8 3 -8 8v455c0 24 13 37 37 37h207z" />
    <glyph glyph-name="uni0440" unicode="&#x440;" horiz-adv-x="406" 
d="M208 509c88 0 149 -67 149 -155v-208c0 -88 -61 -155 -143 -155c-50 0 -87 23 -111 59v-242c0 -5 -4 -8 -9 -8h-27c-5 0 -9 3 -9 8v546c0 88 61 155 150 155zM313 146v208c0 65 -42 112 -105 112c-64 0 -105 -47 -105 -112v-208c0 -65 41 -112 105 -112
c63 0 105 47 105 112z" />
    <glyph glyph-name="uni0441" unicode="&#x441;" horiz-adv-x="386" 
d="M198 -9c-89 0 -149 65 -149 155v205c0 92 59 158 147 158c85 0 142 -58 146 -140c0 -5 -3 -9 -8 -9h-28c-5 0 -8 3 -8 9c-4 58 -42 97 -102 97c-63 0 -102 -46 -102 -115v-205c0 -66 40 -112 104 -112c61 0 101 44 104 109c0 6 4 8 9 8h27c5 0 9 -3 9 -8
c-5 -89 -63 -152 -149 -152z" />
    <glyph glyph-name="uni0442" unicode="&#x442;" horiz-adv-x="325" 
d="M148 0c-5 0 -8 3 -8 8v449h-113c-5 0 -8 4 -8 9v26c0 5 3 8 8 8h271c5 0 8 -3 8 -8v-26c0 -5 -3 -9 -8 -9h-114v-449c0 -5 -3 -8 -8 -8h-28z" />
    <glyph glyph-name="uni0443" unicode="&#x443;" horiz-adv-x="420" 
d="M343 500c5 0 9 -3 9 -8v-547c0 -91 -58 -155 -147 -155c-85 0 -143 63 -147 152c0 5 4 8 9 8h27c5 0 9 -2 9 -8c2 -66 39 -109 102 -109c65 0 102 45 102 112v119c-23 -34 -59 -57 -102 -57c-89 0 -147 66 -147 156v329c0 5 4 8 9 8h27c5 0 9 -3 9 -8v-329
c0 -66 38 -114 102 -114s102 48 102 114v329c0 5 4 8 9 8h27z" />
    <glyph glyph-name="uni045E" unicode="&#x45e;" horiz-adv-x="420" 
d="M206 562c-61 0 -103 39 -107 98c0 5 3 8 8 8h25c5 0 8 -2 9 -8c3 -37 27 -58 65 -58c39 0 63 21 66 58c0 6 4 8 9 8h25c5 0 8 -2 8 -8c-4 -58 -45 -98 -108 -98zM343 500c5 0 9 -3 9 -8v-547c0 -91 -58 -155 -147 -155c-85 0 -143 63 -147 152c0 5 4 8 9 8h27
c5 0 9 -2 9 -8c2 -66 39 -109 102 -109c65 0 102 45 102 112v119c-23 -34 -59 -57 -102 -57c-89 0 -147 66 -147 156v329c0 5 4 8 9 8h27c5 0 9 -3 9 -8v-329c0 -66 38 -114 102 -114s102 48 102 114v329c0 5 4 8 9 8h27z" />
    <glyph glyph-name="uni0444" unicode="&#x444;" horiz-adv-x="601" 
d="M287 -200c-5 0 -9 3 -9 8v191h-83c-87 0 -146 66 -146 154v194c0 88 59 154 146 154h83v191c0 5 4 8 9 8h27c5 0 9 -3 9 -8v-191h83c87 0 146 -66 146 -154v-194c0 -88 -59 -154 -146 -154h-83v-191c0 -5 -4 -8 -9 -8h-27zM195 41h83v418h-83c-62 0 -101 -48 -101 -112
v-194c0 -64 39 -112 101 -112zM323 41h83c62 0 101 48 101 112v194c0 64 -39 112 -101 112h-83v-418z" />
    <glyph glyph-name="uni0445" unicode="&#x445;" horiz-adv-x="389" 
d="M58 0c-5 0 -9 3 -9 8v109c0 61 31 109 81 134c-50 23 -81 71 -81 133v108c0 5 4 8 9 8h28c5 0 8 -3 8 -8v-108c0 -67 42 -112 100 -112c61 0 101 45 101 112v108c0 5 3 8 8 8h28c5 0 8 -3 8 -8v-108c0 -62 -30 -110 -80 -133c50 -25 80 -73 80 -134v-109
c0 -5 -3 -8 -8 -8h-28c-5 0 -8 3 -8 8v109c0 66 -43 112 -101 112c-60 0 -100 -46 -100 -112v-109c0 -5 -3 -8 -8 -8h-28z" />
    <glyph glyph-name="uni0447" unicode="&#x447;" horiz-adv-x="396" 
d="M299 0c-5 0 -8 3 -8 8v180h-102c-85 0 -148 66 -148 150v154c0 5 4 8 9 8h29c5 0 9 -3 9 -8v-154c0 -60 42 -107 101 -107h102v261c0 5 3 8 8 8h30c5 0 8 -3 8 -8v-484c0 -5 -3 -8 -8 -8h-30z" />
    <glyph glyph-name="uni0446" unicode="&#x446;" horiz-adv-x="441" 
d="M372 -107c-5 0 -9 3 -9 8v98h-152c-92 0 -153 63 -153 153v340c0 5 4 8 9 8h27c5 0 9 -3 9 -8v-340c0 -67 40 -111 108 -111h95v451c0 5 3 8 8 8h28c5 0 8 -3 8 -8v-451h20c24 0 37 -13 37 -36v-104c0 -5 -3 -8 -8 -8h-27z" />
    <glyph glyph-name="uni0448" unicode="&#x448;" horiz-adv-x="617" 
d="M207 -1c-92 0 -149 67 -149 158v335c0 5 4 8 9 8h27c5 0 9 -3 9 -8v-335c0 -68 37 -115 104 -115h81v450c0 5 3 8 8 8h28c5 0 8 -3 8 -8v-450h182v450c0 5 3 8 8 8h28c5 0 8 -3 8 -8v-456c0 -24 -13 -37 -36 -37h-315z" />
    <glyph glyph-name="uni0449" unicode="&#x449;" horiz-adv-x="631" 
d="M580 -107c-5 0 -8 3 -8 8v98h-365c-92 0 -149 67 -149 158v335c0 5 4 8 9 8h27c5 0 9 -3 9 -8v-335c0 -68 37 -115 104 -115h81v450c0 5 3 8 8 8h28c5 0 8 -3 8 -8v-450h182v450c0 5 3 8 8 8h28c5 0 8 -3 8 -8v-450h20c24 0 37 -13 37 -37v-104c0 -5 -4 -8 -9 -8h-26z
" />
    <glyph glyph-name="uni045F" unicode="&#x45f;" horiz-adv-x="426" 
d="M200 -107c-5 0 -9 3 -9 8v99h-86c-24 0 -37 13 -37 37v455c0 5 3 8 8 8h28c5 0 8 -3 8 -8v-449h202v449c0 5 3 8 8 8h28c5 0 8 -3 8 -8v-455c0 -24 -13 -37 -36 -37h-86v-99c0 -5 -4 -8 -9 -8h-27z" />
    <glyph glyph-name="uni044C" unicode="&#x44c;" horiz-adv-x="396" 
d="M105 -1c-24 0 -37 13 -37 36v457c0 5 3 8 8 8h28c5 0 8 -3 8 -8v-187h97c90 0 152 -64 152 -152c0 -89 -62 -154 -152 -154h-104zM112 41h97c66 0 108 45 108 112c0 65 -42 110 -108 110h-97v-222z" />
    <glyph glyph-name="uni044A" unicode="&#x44a;" horiz-adv-x="452" 
d="M258 305c87 0 152 -64 152 -152c0 -89 -64 -154 -152 -154h-105c-23 0 -36 13 -36 36v422h-90c-5 0 -8 4 -8 9v26c0 5 3 8 8 8h97c24 0 37 -13 37 -37v-158h97zM258 41c64 0 108 45 108 112c0 65 -44 110 -108 110h-97v-222h97z" />
    <glyph glyph-name="uni044B" unicode="&#x44b;" horiz-adv-x="525" 
d="M105 -1c-24 0 -37 13 -37 36v457c0 5 3 8 8 8h28c5 0 8 -3 8 -8v-197h97c88 0 152 -62 152 -147c0 -86 -64 -149 -152 -149h-104zM421 0c-5 0 -8 3 -8 8v484c0 5 3 8 8 8h28c5 0 8 -3 8 -8v-484c0 -5 -3 -8 -8 -8h-28zM112 41h97c64 0 108 44 108 107
c0 62 -44 105 -108 105h-97v-212z" />
    <glyph glyph-name="uni0459" unicode="&#x459;" horiz-adv-x="642" 
d="M456 295c87 0 152 -62 152 -147c0 -86 -64 -149 -152 -149h-96c-24 0 -37 13 -37 37v421h-77c-68 0 -112 -43 -112 -106v-224c0 -70 -42 -122 -107 -127c-5 0 -8 3 -8 8v26c0 5 2 9 8 9c39 4 63 37 63 84v224c0 87 64 149 156 149h85c24 0 37 -13 37 -37v-168h88zM456 42
c64 0 108 43 108 106c0 62 -44 105 -108 105h-88v-211h88z" />
    <glyph glyph-name="uni045A" unicode="&#x45a;" horiz-adv-x="626" 
d="M76 0c-5 0 -8 3 -8 8v484c0 5 3 8 8 8h28c5 0 8 -3 8 -8v-201h195v201c0 5 3 8 8 8h28c5 0 8 -3 8 -8v-201h89c87 0 152 -62 152 -145c0 -85 -64 -147 -152 -147h-97c-23 0 -36 13 -36 36v213h-195v-240c0 -5 -3 -8 -8 -8h-28zM351 41h89c64 0 108 43 108 105
c0 60 -44 102 -108 102h-89v-207z" />
    <glyph glyph-name="uni0455" unicode="&#x455;" horiz-adv-x="382" 
d="M197 -9c-93 0 -151 58 -155 152c0 5 4 8 9 8h27c5 0 9 -2 9 -8c2 -74 41 -109 110 -109c61 0 98 35 98 89c0 131 -249 86 -249 255c0 73 57 131 141 131c91 0 142 -55 145 -140c0 -5 -3 -9 -8 -9h-28c-5 0 -8 3 -8 9c-3 58 -38 97 -99 97c-58 0 -99 -35 -99 -88
c0 -129 250 -84 250 -255c0 -74 -60 -132 -143 -132z" />
    <glyph glyph-name="uni0454" unicode="&#x454;" horiz-adv-x="392" 
d="M198 -9c-87 0 -149 64 -149 155v205c0 95 62 158 148 158c83 0 144 -59 149 -140c0 -5 -4 -9 -9 -9h-27c-5 0 -9 3 -9 9c-3 58 -44 97 -104 97c-62 0 -103 -43 -103 -115v-70h188c5 0 8 -3 8 -8v-26c0 -5 -3 -8 -8 -8h-188v-93c0 -67 41 -112 104 -112
c61 0 103 43 105 109c0 6 3 8 8 8h28c5 0 8 -3 8 -8c-3 -89 -64 -152 -149 -152z" />
    <glyph glyph-name="uni044D" unicode="&#x44d;" horiz-adv-x="392" 
d="M194 -9c-85 0 -146 63 -149 152c0 5 3 8 8 8h28c5 0 8 -2 8 -8c2 -66 44 -109 105 -109c63 0 104 45 104 112v93h-188c-5 0 -8 3 -8 8v26c0 5 3 8 8 8h188v70c0 72 -41 115 -103 115c-60 0 -101 -39 -104 -97c0 -6 -4 -9 -9 -9h-27c-5 0 -9 4 -9 9c5 81 66 140 149 140
c86 0 148 -63 148 -158v-205c0 -91 -62 -155 -149 -155z" />
    <glyph glyph-name="uni0456" unicode="&#x456;" horiz-adv-x="180" 
d="M90 572c-20 0 -33 14 -33 33c0 20 13 33 33 33c19 0 33 -13 33 -33c0 -18 -14 -33 -33 -33zM76 0c-5 0 -8 3 -8 8v484c0 5 3 8 8 8h28c5 0 8 -3 8 -8v-484c0 -5 -3 -8 -8 -8h-28z" />
    <glyph glyph-name="uni0457" unicode="&#x457;" horiz-adv-x="169" 
d="M43 575c-17 0 -29 12 -29 30s12 29 29 29c18 0 31 -11 31 -29s-13 -30 -31 -30zM127 575c-17 0 -30 12 -30 30s13 29 30 29s30 -11 30 -29s-13 -30 -30 -30zM71 0c-5 0 -8 3 -8 8v484c0 5 3 8 8 8h28c5 0 8 -3 8 -8v-484c0 -5 -3 -8 -8 -8h-28z" />
    <glyph glyph-name="uni0458" unicode="&#x458;" horiz-adv-x="240" 
d="M139 572c-20 0 -34 14 -34 33c0 20 14 33 34 33c19 0 33 -13 33 -33c0 -18 -14 -33 -33 -33zM8 -205c-5 0 -8 3 -8 8v26c0 5 3 9 8 9h2c74 2 107 47 107 117v537c0 5 3 8 8 8h28c5 0 8 -3 8 -8v-537c0 -93 -52 -158 -151 -160h-2z" />
    <glyph glyph-name="uni045B" unicode="&#x45b;" horiz-adv-x="455" 
d="M107 0c-5 0 -8 3 -8 8v587h-72c-5 0 -8 3 -8 8v19c0 5 3 9 8 9h72v61c0 5 3 8 8 8h28c5 0 8 -3 8 -8v-61h148c5 0 8 -4 8 -9v-19c0 -5 -3 -8 -8 -8h-148v-142c23 34 60 56 108 56c88 0 146 -67 146 -157v-344c0 -5 -3 -8 -8 -8h-28c-5 0 -8 3 -8 8v344
c0 67 -40 114 -106 114c-62 0 -104 -47 -104 -114v-344c0 -5 -3 -8 -8 -8h-28z" />
    <glyph glyph-name="uni044E" unicode="&#x44e;" horiz-adv-x="548" 
d="M355 -9c-86 0 -144 66 -144 158v93h-99v-234c0 -5 -3 -8 -8 -8h-28c-5 0 -8 3 -8 8v484c0 5 3 8 8 8h28c5 0 8 -3 8 -8v-208h99v67c0 92 58 158 144 158s144 -66 144 -158v-202c0 -92 -58 -158 -144 -158zM355 34c61 0 100 47 100 115v202c0 68 -39 115 -100 115
s-100 -47 -100 -115v-202c0 -68 39 -115 100 -115z" />
    <glyph glyph-name="uni044F" unicode="&#x44f;" horiz-adv-x="402" 
d="M203 509c85 0 141 -61 141 -148v-353c0 -5 -3 -8 -8 -8h-28c-5 0 -8 3 -8 8v190h-111l-104 -192c-2 -4 -6 -6 -10 -6h-32c-6 0 -10 4 -7 10l109 197c-58 20 -97 74 -97 147c0 92 66 155 155 155zM300 241v120c0 63 -36 105 -97 105c-65 0 -111 -43 -111 -112
c0 -70 44 -113 108 -113h100z" />
    <glyph glyph-name="uni0452" unicode="&#x452;" horiz-adv-x="453" 
d="M248 509c89 0 147 -67 147 -157v-395c0 -96 -59 -163 -146 -167c-5 0 -9 3 -9 8v26c0 5 3 9 9 9c63 4 101 51 101 124v395c0 67 -40 114 -105 114c-62 0 -104 -47 -104 -114v-344c0 -5 -3 -8 -8 -8h-28c-5 0 -8 3 -8 8v587h-72c-5 0 -9 3 -9 8v19c0 5 4 9 9 9h72v61
c0 5 3 8 8 8h28c5 0 8 -3 8 -8v-61h148c5 0 8 -4 8 -9v-19c0 -5 -3 -8 -8 -8h-148v-142c23 34 59 56 107 56z" />
    <glyph glyph-name="uni0432.loclBGR" horiz-adv-x="409" 
d="M269 379c59 -18 95 -70 95 -129v-100c0 -92 -61 -159 -153 -159s-153 67 -153 159v397c0 95 51 162 142 162s142 -67 142 -162v-50c0 -51 -25 -98 -73 -118zM103 547v-151h89c64 0 106 46 106 101v50c0 71 -28 119 -98 119c-65 0 -97 -48 -97 -119zM320 150v100
c0 56 -45 103 -112 103h-105v-203c0 -69 41 -116 108 -116c68 0 109 47 109 116z" />
    <glyph glyph-name="uni0433.loclBGR" horiz-adv-x="382" 
d="M185 -9c-83 0 -143 53 -143 132c0 171 250 130 250 255c0 55 -39 88 -98 88s-97 -35 -99 -97c0 -6 -4 -9 -9 -9h-27c-5 0 -9 4 -9 9c4 84 61 140 146 140c82 0 140 -53 140 -131c0 -165 -249 -124 -249 -255c0 -56 39 -89 98 -89c67 0 108 38 110 109c0 6 4 8 9 8h27
c5 0 9 -3 9 -8c-4 -94 -65 -152 -155 -152z" />
    <glyph glyph-name="uni0434.loclBGR" horiz-adv-x="406" 
d="M199 509c89 0 149 -67 149 -156v-408c0 -91 -59 -155 -150 -155c-88 0 -146 63 -149 152c0 5 4 8 9 8h27c5 0 9 -2 9 -8c2 -66 41 -109 104 -109c66 0 106 45 106 112v122c-24 -36 -61 -60 -105 -60c-90 0 -150 67 -150 157v189c0 89 60 156 150 156zM199 49
c64 0 105 48 105 115v189c0 66 -41 113 -105 113c-65 0 -105 -47 -105 -113v-189c0 -67 40 -115 105 -115z" />
    <glyph glyph-name="uni0436.loclBGR" horiz-adv-x="584" 
d="M537 500c6 0 10 -4 6 -10l-125 -211c72 -12 118 -65 118 -142v-129c0 -5 -3 -8 -8 -8h-28c-5 0 -8 3 -8 8v129c0 65 -42 104 -106 104h-72v-233c0 -5 -3 -8 -8 -8h-28c-5 0 -8 3 -8 8v233h-72c-64 0 -106 -39 -106 -104v-129c0 -5 -3 -8 -8 -8h-28c-5 0 -8 3 -8 8v129
c0 77 46 130 117 142l-125 211c-3 6 1 10 7 10h32c4 0 8 -2 10 -6l123 -210h58v408c0 5 3 8 8 8h28c5 0 8 -3 8 -8v-408h58l123 210c2 4 6 6 10 6h32z" />
    <glyph glyph-name="uni0437.loclBGR" horiz-adv-x="381" 
d="M244 185c57 -21 88 -78 88 -136v-78c0 -114 -55 -181 -155 -181c-98 0 -149 82 -153 194c0 5 4 8 9 8h27c5 0 9 -2 9 -8c3 -89 38 -151 108 -151c74 0 110 48 110 138v78c0 61 -39 111 -113 111h-64c-5 0 -8 4 -8 9v26c0 5 3 8 8 8h60c69 0 103 49 103 102v50
c0 64 -30 111 -93 111c-67 0 -97 -43 -100 -97c0 -6 -4 -9 -9 -9h-27c-5 0 -9 4 -9 9c4 77 58 140 145 140c84 0 137 -67 137 -154v-50c0 -51 -24 -101 -73 -120z" />
    <glyph glyph-name="uni0438.loclBGR" horiz-adv-x="416" 
d="M203 -9c-88 0 -145 67 -145 156v345c0 5 4 8 9 8h27c5 0 9 -3 9 -8v-345c0 -66 37 -113 100 -113s100 47 100 113v345c0 5 4 8 9 8h27c5 0 9 -3 9 -8v-484c0 -5 -4 -8 -9 -8h-27c-5 0 -9 3 -9 8v40c-22 -34 -57 -57 -100 -57z" />
    <glyph glyph-name="uni0439.loclBGR" horiz-adv-x="416" 
d="M209 562c-61 0 -103 39 -107 98c0 5 3 8 8 8h25c5 0 8 -2 9 -8c3 -37 27 -58 65 -58c39 0 63 21 66 58c0 6 4 8 9 8h25c5 0 8 -2 8 -8c-4 -58 -45 -98 -108 -98zM203 -9c-88 0 -145 67 -145 156v345c0 5 4 8 9 8h27c5 0 9 -3 9 -8v-345c0 -66 37 -113 100 -113
s100 47 100 113v345c0 5 4 8 9 8h27c5 0 9 -3 9 -8v-484c0 -5 -4 -8 -9 -8h-27c-5 0 -9 3 -9 8v40c-22 -34 -57 -57 -100 -57z" />
    <glyph glyph-name="uni045D.loclBGR" horiz-adv-x="406" 
d="M129 670h34c4 0 8 -2 10 -6l60 -95c4 -6 1 -10 -5 -10h-25c-4 0 -8 1 -10 5l-69 96c-4 5 -2 10 5 10zM203 -9c-88 0 -145 67 -145 156v345c0 5 4 8 9 8h27c5 0 9 -3 9 -8v-345c0 -66 37 -113 100 -113s100 47 100 113v345c0 5 4 8 9 8h27c5 0 9 -3 9 -8v-484
c0 -5 -4 -8 -9 -8h-27c-5 0 -9 3 -9 8v40c-22 -34 -57 -57 -100 -57z" />
    <glyph glyph-name="uni043A.loclBGR" horiz-adv-x="397" 
d="M230 279c73 -12 121 -65 121 -142v-129c0 -5 -3 -8 -8 -8h-28c-5 0 -8 3 -8 8v129c0 65 -42 104 -106 104h-89v-233c0 -5 -3 -8 -8 -8h-28c-5 0 -8 3 -8 8v684c0 5 3 8 8 8h28c5 0 8 -3 8 -8v-408h72l125 210c2 4 6 6 10 6h32c6 0 9 -4 6 -10z" />
    <glyph glyph-name="uni043B.loclBGR" horiz-adv-x="353" 
d="M293 7l-117 454l-116 -454c-1 -4 -4 -7 -9 -7h-29c-6 0 -8 3 -7 9l125 473c3 13 12 21 26 21h21c14 0 23 -8 26 -21l124 -473c2 -6 -1 -9 -6 -9h-29c-5 0 -8 3 -9 7z" />
    <glyph glyph-name="uni043F.loclBGR" horiz-adv-x="406" 
d="M67 0c-5 0 -9 3 -9 8v343c0 91 56 158 145 158s145 -67 145 -158v-343c0 -5 -4 -8 -9 -8h-27c-5 0 -9 3 -9 8v343c0 69 -35 116 -100 116s-100 -47 -100 -116v-343c0 -5 -4 -8 -9 -8h-27z" />
    <glyph glyph-name="uni0442.loclBGR" horiz-adv-x="628" 
d="M430 509c86 0 139 -67 139 -154v-347c0 -5 -3 -8 -8 -8h-28c-5 0 -8 3 -8 8v347c0 64 -33 111 -95 111c-58 0 -94 -47 -94 -111v-347c0 -5 -3 -8 -8 -8h-28c-5 0 -8 3 -8 8v347c0 64 -36 111 -94 111c-62 0 -95 -47 -95 -111v-347c0 -5 -4 -8 -9 -8h-27c-5 0 -9 3 -9 8
v347c0 87 53 154 140 154c54 0 95 -33 116 -80c20 47 62 80 116 80z" />
    <glyph glyph-name="uni0443.loclBGR" horiz-adv-x="420" 
d="M343 500c5 0 9 -3 9 -8v-547c0 -91 -58 -155 -147 -155c-85 0 -143 63 -147 152c0 5 4 8 9 8h27c5 0 9 -2 9 -8c2 -66 39 -109 102 -109c65 0 102 45 102 112v119c-23 -34 -59 -57 -102 -57c-89 0 -147 66 -147 156v329c0 5 4 8 9 8h27c5 0 9 -3 9 -8v-329
c0 -66 38 -114 102 -114s102 48 102 114v329c0 5 4 8 9 8h27z" />
    <glyph glyph-name="uni0444.loclBGR" horiz-adv-x="622" 
d="M434 509c84 0 139 -66 139 -158v-202c0 -92 -55 -158 -139 -158c-44 0 -81 24 -101 61v-244c0 -5 -3 -8 -8 -8h-28c-5 0 -8 3 -8 8v243c-20 -36 -57 -60 -100 -60c-84 0 -140 66 -140 158v202c0 92 56 158 140 158c43 0 80 -24 100 -60v243c0 5 3 8 8 8h28c5 0 8 -3 8 -8
v-244c20 37 57 61 101 61zM189 34c60 0 100 47 100 115v202c0 68 -40 115 -100 115c-59 0 -95 -47 -95 -115v-202c0 -68 36 -115 95 -115zM529 149v202c0 68 -37 115 -96 115c-60 0 -100 -47 -100 -115v-202c0 -68 40 -115 100 -115c59 0 96 47 96 115z" />
    <glyph glyph-name="uni0447.loclBGR" horiz-adv-x="407" 
d="M303 0c-5 0 -8 3 -8 8v216c-24 -35 -60 -58 -105 -58c-90 0 -149 67 -149 157v169c0 5 4 8 9 8h27c5 0 9 -3 9 -8v-169c0 -67 39 -114 104 -114c66 0 105 47 105 114v169c0 5 3 8 8 8h28c5 0 8 -3 8 -8v-484c0 -5 -3 -8 -8 -8h-28z" />
    <glyph glyph-name="uni0446.loclBGR" horiz-adv-x="437" 
d="M378 -108c-5 0 -9 4 -9 9l1 102c-23 4 -50 22 -54 54c-20 -43 -62 -66 -113 -66c-85 0 -145 67 -145 155v346c0 5 4 8 9 8h27c5 0 9 -3 9 -8v-346c0 -66 40 -112 101 -112c62 0 99 46 99 112v346c0 5 4 8 9 8h27c5 0 9 -3 9 -8v-389c0 -90 65 -44 65 -96v-106
c0 -5 -3 -9 -8 -9h-27z" />
    <glyph glyph-name="uni0448.loclBGR" horiz-adv-x="637" 
d="M197 -9c-82 0 -139 67 -139 155v346c0 5 4 8 9 8h27c5 0 9 -3 9 -8v-346c0 -65 37 -112 94 -112c58 0 94 47 94 112v346c0 5 4 8 9 8h27c5 0 9 -3 9 -8v-346c0 -65 37 -112 94 -112s94 45 94 112v346c0 5 4 8 9 8h27c5 0 9 -3 9 -8v-484c0 -5 -4 -8 -9 -8h-27
c-5 0 -9 3 -9 8v37c-20 -35 -54 -54 -94 -54c-55 0 -96 31 -116 78c-21 -47 -61 -78 -117 -78z" />
    <glyph glyph-name="uni0449.loclBGR" horiz-adv-x="658" 
d="M599 -108c-5 0 -9 4 -9 9l1 102c-23 4 -50 22 -54 54c-20 -43 -59 -66 -106 -66c-56 0 -97 31 -117 78c-20 -47 -61 -78 -117 -78c-82 0 -139 67 -139 155v346c0 5 4 8 9 8h27c5 0 9 -3 9 -8v-346c0 -65 37 -112 94 -112c58 0 94 47 94 112v346c0 5 4 8 9 8h27
c5 0 9 -3 9 -8v-346c0 -65 37 -112 95 -112c56 0 93 45 93 112v346c0 5 4 8 9 8h27c5 0 9 -3 9 -8v-389c0 -90 65 -44 65 -96v-106c0 -5 -3 -9 -8 -9h-27z" />
    <glyph glyph-name="uni044C.loclBGR" horiz-adv-x="390" 
d="M207 343c87 0 149 -67 149 -155v-42c0 -88 -62 -155 -149 -155s-149 67 -149 155v346c0 5 4 8 9 8h27c5 0 9 -3 9 -8v-208c23 35 61 59 104 59zM311 146v42c0 64 -42 112 -104 112s-104 -48 -104 -112v-42c0 -65 42 -112 104 -112s104 47 104 112z" />
    <glyph glyph-name="uni044A.loclBGR" horiz-adv-x="440" 
d="M257 343c87 0 149 -67 149 -155v-42c0 -88 -62 -155 -149 -155s-149 67 -149 155v311h-86c-5 0 -8 4 -8 9v26c0 5 3 8 8 8h107c13 0 24 -11 24 -24v-194c23 36 61 61 104 61zM361 146v42c0 64 -42 112 -104 112s-104 -48 -104 -112v-42c0 -65 42 -112 104 -112
s104 47 104 112z" />
    <glyph glyph-name="uni044E.loclBGR" horiz-adv-x="547" 
d="M353 -9c-87 0 -145 66 -145 158v93h-96v-234c0 -5 -3 -8 -8 -8h-28c-5 0 -8 3 -8 8v684c0 5 3 8 8 8h28c5 0 8 -3 8 -8v-408h96v67c0 92 58 158 145 158s145 -66 145 -158v-202c0 -92 -58 -158 -145 -158zM353 34c61 0 100 47 100 115v202c0 68 -39 115 -100 115
c-62 0 -101 -47 -101 -115v-202c0 -68 39 -115 101 -115z" />
    <glyph glyph-name="uni043B.ss01" horiz-adv-x="426" 
d="M230 509c92 0 138 -67 138 -158v-343c0 -5 -3 -8 -8 -8h-28c-5 0 -8 3 -8 8v343c0 68 -28 115 -94 115s-94 -47 -94 -115v-204c0 -86 -39 -144 -109 -148c-5 0 -8 3 -8 8v26c0 5 2 8 8 9c42 4 65 42 65 105v204c0 91 47 158 138 158z" />
    <glyph glyph-name="zero" unicode="0" horiz-adv-x="407" 
d="M203 -10c-85 0 -152 67 -152 153v414c0 86 67 153 152 153s152 -67 152 -153v-414c0 -86 -67 -153 -152 -153zM106 107l173 526c-18 21 -45 33 -76 33c-59 0 -105 -47 -105 -109v-414c0 -13 3 -25 8 -36zM203 34c60 0 106 47 106 109v414c0 13 -3 25 -8 36l-174 -526
c19 -20 46 -33 76 -33z" />
    <glyph glyph-name="one" unicode="1" horiz-adv-x="241" 
d="M127 700c25 0 40 -14 40 -40v-652c0 -5 -4 -8 -9 -8h-30c-5 0 -8 3 -8 8v648h-92c-5 0 -8 3 -8 8v28c0 5 3 8 8 8h99z" />
    <glyph glyph-name="two" unicode="2" horiz-adv-x="382" 
d="M341 552c0 -201 -254 -301 -254 -508h246c5 0 8 -3 8 -8v-28c0 -5 -3 -8 -8 -8h-269c-15 0 -24 9 -24 23v17c0 233 255 335 255 512c0 66 -41 114 -105 113c-61 0 -102 -45 -104 -123c0 -5 -4 -8 -9 -8h-28c-5 0 -9 3 -9 8c4 98 64 167 150 167c91 1 151 -68 151 -157z
" />
    <glyph glyph-name="three" unicode="3" horiz-adv-x="386" 
d="M187 -9c-85 0 -147 64 -150 168c0 5 3 8 8 8h30c5 0 9 -3 9 -8c2 -81 44 -124 103 -124c64 0 105 47 105 120v114c0 73 -48 121 -115 121h-39c-4 0 -7 3 -7 8v8c0 5 1 10 4 15l137 235h-217c-5 0 -9 4 -9 9v27c0 5 4 9 9 9l266 -1c7 0 12 -5 12 -12v-6
c0 -6 -1 -10 -4 -15l-135 -237l5 -3c87 -7 139 -75 139 -158v-114c0 -97 -61 -164 -151 -164z" />
    <glyph glyph-name="four" unicode="4" horiz-adv-x="398" 
d="M360 259c5 0 9 -3 9 -8v-27c0 -5 -4 -9 -9 -9h-48v-207c0 -5 -3 -8 -8 -8h-30c-5 0 -9 3 -9 8v207h-218c-15 0 -23 8 -23 21v8c0 9 0 17 3 27l147 422c1 4 5 7 9 7h31c6 0 8 -3 7 -9l-148 -432h192v239c0 5 4 9 9 9h30c5 0 8 -4 8 -9v-239h48z" />
    <glyph glyph-name="five" unicode="5" horiz-adv-x="395" 
d="M203 470c84 0 149 -67 149 -159v-156c0 -98 -61 -165 -152 -165c-87 0 -149 63 -152 169c0 5 3 8 8 8h30c5 0 9 -3 9 -8c2 -81 43 -125 105 -125c65 0 105 47 105 121v155c0 69 -43 116 -106 116c-53 0 -94 -39 -99 -91c0 -9 -6 -16 -16 -16h-16c-10 0 -16 6 -16 16v340
c0 17 10 27 27 27h254c5 0 8 -3 8 -8v-28c0 -5 -3 -8 -8 -8h-234v-240c24 32 60 52 104 52z" />
    <glyph glyph-name="six" unicode="6" horiz-adv-x="403" 
d="M203 -9c-84 0 -152 67 -152 154v401c0 96 64 163 152 163c85 0 149 -63 152 -159c0 -5 -3 -8 -8 -8h-30c-5 0 -8 3 -8 8c-4 72 -47 115 -106 115c-61 0 -105 -47 -105 -118v-142c24 33 61 55 109 55c81 0 148 -67 148 -154v-161c0 -87 -67 -154 -152 -154zM203 35
c59 0 106 47 106 110v159c0 65 -47 112 -106 112c-58 0 -105 -47 -105 -112v-159c0 -63 47 -110 105 -110z" />
    <glyph glyph-name="seven" unicode="7" horiz-adv-x="334" 
d="M20 692c0 5 3 8 8 8h254c12 0 19 -5 19 -17c0 -10 -1 -17 -3 -26l-161 -650c-1 -5 -4 -7 -9 -7h-31c-6 0 -9 3 -7 9l160 647h-222c-5 0 -8 4 -8 9v27z" />
    <glyph glyph-name="eight" unicode="8" horiz-adv-x="407" 
d="M275 361c51 -24 85 -72 85 -137v-76c0 -90 -67 -157 -156 -157c-90 0 -157 67 -157 157v76c0 65 34 113 86 137c-44 26 -74 75 -74 132v67c0 83 57 149 145 149s144 -66 144 -149v-67c0 -57 -29 -106 -73 -132zM106 560v-69c0 -61 42 -109 98 -109c55 0 98 48 98 109v69
c0 57 -37 105 -98 105s-98 -48 -98 -105zM313 148v78c0 65 -49 112 -109 112c-61 0 -110 -47 -110 -112v-78c0 -65 46 -113 110 -113s109 48 109 113z" />
    <glyph glyph-name="nine" unicode="9" horiz-adv-x="409" 
d="M206 709c84 0 152 -67 152 -154v-401c0 -96 -64 -163 -152 -163c-85 0 -149 63 -152 159c0 5 3 8 8 8h30c5 0 8 -3 8 -8c4 -72 47 -115 106 -115c61 0 105 47 105 118v142c-24 -33 -61 -55 -109 -55c-81 0 -148 67 -148 154v161c0 87 67 154 152 154zM206 665
c-59 0 -106 -47 -106 -110v-159c0 -65 47 -112 106 -112c58 0 105 47 105 112v159c0 63 -47 110 -105 110z" />
    <glyph glyph-name="asterisk" unicode="*" horiz-adv-x="309" 
d="M93 502l-16 11c-4 4 -5 7 -2 12l50 69l-80 26c-5 1 -7 4 -5 10l6 19c1 6 5 7 10 5l80 -26v84c0 5 4 9 9 9h19c5 0 9 -4 9 -9v-84l80 26c5 1 9 0 10 -5l7 -18c1 -6 -1 -10 -6 -11l-81 -26l50 -69c4 -5 3 -8 -1 -12l-16 -11c-4 -4 -9 -3 -12 1l-50 69l-49 -68
c-3 -5 -8 -5 -12 -2z" />
    <glyph glyph-name="backslash" unicode="\" horiz-adv-x="343" 
d="M56 700c4 0 7 -2 9 -7l260 -683c1 -6 -1 -10 -7 -10h-30c-4 0 -8 2 -10 7l-259 683c-2 6 1 10 6 10h31z" />
    <glyph glyph-name="periodcentered" unicode="&#xb7;" horiz-adv-x="147" 
d="M57 217c-22 0 -38 17 -38 38c0 22 16 38 38 38c21 0 38 -16 38 -38c0 -21 -17 -38 -38 -38z" />
    <glyph glyph-name="bullet" unicode="&#x2022;" horiz-adv-x="182" 
d="M90 194c-31 0 -56 24 -56 56c0 33 25 58 56 58c33 0 58 -25 58 -58c0 -32 -25 -56 -58 -56z" />
    <glyph glyph-name="colon" unicode=":" horiz-adv-x="147" 
d="M57 339c-22 0 -38 17 -38 38c0 22 16 38 38 38c21 0 38 -16 38 -38c0 -21 -17 -38 -38 -38zM57 -9c-22 0 -38 17 -38 38c0 22 16 38 38 38c21 0 38 -16 38 -38c0 -21 -17 -38 -38 -38z" />
    <glyph glyph-name="comma" unicode="," horiz-adv-x="94" 
d="M26 55c0 6 4 8 9 8h35c5 0 8 -3 7 -9l-26 -147c0 -5 -4 -8 -9 -8h-18c-5 0 -7 3 -7 9z" />
    <glyph glyph-name="ellipsis" unicode="&#x2026;" horiz-adv-x="454" 
d="M74 -9c-22 0 -38 17 -38 38c0 22 16 38 38 38c21 0 38 -16 38 -38c0 -21 -17 -38 -38 -38zM227 -9c-22 0 -38 17 -38 38c0 22 16 38 38 38c21 0 38 -16 38 -38c0 -21 -17 -38 -38 -38zM380 -9c-21 0 -38 17 -38 38c0 22 17 38 38 38s38 -16 38 -38c0 -21 -17 -38 -38 -38
z" />
    <glyph glyph-name="exclam" unicode="!" horiz-adv-x="221" 
d="M96 128c-5 0 -9 3 -9 8v556c0 5 4 8 9 8h30c5 0 8 -3 8 -8v-556c0 -5 -3 -8 -8 -8h-30zM111 -9c-21 0 -37 16 -37 37s16 36 37 36c20 0 36 -15 36 -36s-16 -37 -36 -37z" />
    <glyph glyph-name="exclamdown" unicode="&#xa1;" horiz-adv-x="209" 
d="M105 508c20 0 36 -16 36 -37s-16 -36 -36 -36c-21 0 -37 15 -37 36s16 37 37 37zM90 371h30c5 0 8 -3 8 -8v-556c0 -5 -3 -8 -8 -8h-30c-5 0 -9 3 -9 8v556c0 5 4 8 9 8z" />
    <glyph glyph-name="numbersign" unicode="#" horiz-adv-x="534" 
d="M88 0c-6 0 -8 4 -7 9l41 180h-94c-6 0 -9 3 -7 9l5 23c1 4 5 7 10 7h94l54 233h-94c-5 0 -8 4 -7 9l5 23c1 4 4 7 9 7h96l44 193c1 4 4 7 9 7h26c5 0 8 -4 7 -9l-44 -191h134l44 193c1 4 4 7 9 7h27c5 0 8 -4 7 -9l-44 -191h94c6 0 9 -4 8 -9l-5 -23c-1 -4 -5 -7 -10 -7
h-96l-53 -233h95c5 0 8 -3 7 -9l-6 -23c-1 -4 -4 -7 -9 -7h-96l-41 -182c-1 -4 -4 -7 -9 -7h-27c-5 0 -8 4 -7 9l41 180h-134l-41 -182c-1 -4 -4 -7 -9 -7h-26zM173 228h134l53 233h-134z" />
    <glyph glyph-name="period" unicode="." horiz-adv-x="109" 
d="M55 -9c-22 0 -38 17 -38 38c0 22 16 38 38 38c21 0 38 -16 38 -38c0 -21 -17 -38 -38 -38z" />
    <glyph glyph-name="question" unicode="?" horiz-adv-x="317" 
d="M128 132c-5 0 -8 3 -8 9v61c-1 170 140 191 140 344c0 72 -45 119 -107 119c-60 0 -104 -45 -106 -123c0 -5 -4 -8 -9 -8h-30c-5 0 -8 3 -8 8c3 101 68 167 153 167c89 0 154 -69 154 -163c0 -171 -141 -189 -141 -349l1 -56c0 -6 -4 -9 -9 -9h-30zM145 -9
c-21 0 -36 16 -36 37s15 36 36 36s37 -15 37 -36s-16 -37 -37 -37z" />
    <glyph glyph-name="questiondown" unicode="&#xbf;" horiz-adv-x="317" 
d="M172 508c21 0 36 -16 36 -37s-15 -36 -36 -36s-37 15 -37 36s16 37 37 37zM189 367c5 0 8 -3 8 -9v-61c1 -170 -140 -191 -140 -344c0 -72 45 -119 107 -119c60 0 104 45 106 123c0 5 4 8 9 8h30c5 0 8 -3 8 -8c-3 -101 -68 -167 -153 -167c-89 0 -154 69 -154 163
c0 171 141 189 141 349l-1 56c0 6 4 9 9 9h30z" />
    <glyph glyph-name="quotedbl" unicode="&#x22;" horiz-adv-x="197" 
d="M30 692c0 6 4 8 9 8h35c5 0 8 -3 7 -9l-26 -147c0 -5 -4 -8 -9 -8h-18c-5 0 -7 3 -7 9zM123 692c0 6 4 8 9 8h35c5 0 8 -3 7 -9l-26 -147c0 -5 -4 -8 -9 -8h-18c-5 0 -7 3 -7 9z" />
    <glyph glyph-name="quotesingle" unicode="'" horiz-adv-x="109" 
d="M33 692c0 6 4 8 9 8h35c5 0 8 -4 7 -9l-26 -147c0 -5 -4 -8 -9 -8h-18c-5 0 -7 3 -7 8z" />
    <glyph glyph-name="semicolon" unicode=";" horiz-adv-x="138" 
d="M64 339c-22 0 -38 17 -38 38c0 22 16 38 38 38c21 0 38 -16 38 -38c0 -21 -17 -38 -38 -38zM41 55c0 6 4 8 9 8h35c5 0 8 -3 7 -9l-26 -147c0 -5 -4 -8 -9 -8h-18c-5 0 -7 3 -7 9z" />
    <glyph glyph-name="slash" unicode="/" horiz-adv-x="346" 
d="M280 693c1 5 5 7 9 7h30c6 0 9 -4 7 -10l-260 -683c-1 -5 -5 -7 -9 -7h-30c-6 0 -9 4 -7 10z" />
    <glyph glyph-name="underscore" unicode="_" horiz-adv-x="377" 
d="M13 -17c0 5 4 9 9 9h333c5 0 8 -4 8 -9v-26c0 -5 -3 -8 -8 -8h-333c-5 0 -9 3 -9 8v26z" />
    <glyph glyph-name="braceleft" unicode="{" horiz-adv-x="268" 
d="M152 484c0 -56 -26 -103 -69 -130c43 -27 69 -74 69 -130v-191c0 -61 38 -104 88 -109c6 0 8 -4 8 -9v-27c0 -5 -3 -8 -8 -8c-76 5 -135 68 -135 153v191c0 53 -30 89 -72 105c-5 1 -7 5 -7 9v32c0 4 2 8 7 9c42 16 72 52 72 105v183c0 85 59 148 135 153c5 0 8 -3 8 -8
v-27c0 -5 -2 -9 -8 -9c-50 -5 -88 -48 -88 -109v-183z" />
    <glyph glyph-name="braceright" unicode="}" horiz-adv-x="272" 
d="M239 379c5 -1 7 -5 7 -9v-32c0 -4 -2 -8 -7 -9c-42 -16 -72 -52 -72 -105v-191c0 -85 -59 -148 -135 -153c-5 0 -8 3 -8 8v27c0 5 2 9 8 9c50 5 88 48 88 109v191c0 56 26 103 69 130c-43 27 -69 74 -69 130v183c0 61 -38 104 -88 109c-6 0 -8 4 -8 9v27c0 5 3 8 8 8
c76 -5 135 -68 135 -153v-183c0 -53 30 -89 72 -105z" />
    <glyph glyph-name="bracketleft" unicode="[" horiz-adv-x="246" 
d="M205 785c0 -5 -4 -9 -9 -9h-81v-852h81c5 0 9 -4 9 -9v-27c0 -5 -4 -8 -9 -8h-105c-14 0 -23 9 -23 23v894c0 14 9 23 23 23h105c5 0 9 -3 9 -8v-27z" />
    <glyph glyph-name="bracketright" unicode="]" horiz-adv-x="242" 
d="M37 785v27c0 5 4 8 9 8h105c14 0 23 -9 23 -23v-894c0 -14 -9 -23 -23 -23h-105c-5 0 -9 3 -9 8v27c0 5 4 9 9 9h81v852h-81c-5 0 -9 4 -9 9z" />
    <glyph glyph-name="parenleft" unicode="(" horiz-adv-x="225" 
d="M194 -120c-76 4 -129 64 -129 151v639c0 86 53 146 129 150c5 0 8 -3 8 -8v-27c0 -5 -3 -9 -8 -9c-49 -4 -82 -43 -82 -106v-639c0 -63 33 -103 82 -107c5 0 8 -4 8 -9v-27c0 -5 -3 -8 -8 -8z" />
    <glyph glyph-name="parenright" unicode=")" horiz-adv-x="225" 
d="M31 -120c-5 0 -8 3 -8 8v27c0 5 3 9 8 9c49 4 82 44 82 107v639c0 63 -33 102 -82 106c-5 0 -8 4 -8 9v27c0 5 3 8 8 8c76 -4 129 -64 129 -150v-639c0 -87 -53 -147 -129 -151z" />
    <glyph glyph-name="emdash" unicode="&#x2014;" horiz-adv-x="510" 
d="M22 270c0 5 3 8 8 8h450c5 0 8 -3 8 -8v-27c0 -5 -3 -8 -8 -8h-450c-5 0 -8 3 -8 8v27z" />
    <glyph glyph-name="endash" unicode="&#x2013;" horiz-adv-x="386" 
d="M28 235c-5 0 -8 3 -8 8v27c0 5 3 8 8 8h330c5 0 8 -3 8 -8v-27c0 -5 -3 -8 -8 -8h-330z" />
    <glyph glyph-name="hyphen" unicode="-" horiz-adv-x="286" 
d="M28 235c-5 0 -8 3 -8 8v27c0 5 3 8 8 8h230c5 0 8 -3 8 -8v-27c0 -5 -3 -8 -8 -8h-230z" />
    <glyph glyph-name="emdash.case" horiz-adv-x="506" 
d="M20 370c0 5 3 8 8 8h450c5 0 8 -3 8 -8v-27c0 -5 -3 -8 -8 -8h-450c-5 0 -8 3 -8 8v27z" />
    <glyph glyph-name="endash.case" horiz-adv-x="386" 
d="M28 335c-5 0 -8 3 -8 8v27c0 5 3 8 8 8h330c5 0 8 -3 8 -8v-27c0 -5 -3 -8 -8 -8h-330z" />
    <glyph glyph-name="hyphen.case" horiz-adv-x="286" 
d="M28 335c-5 0 -8 3 -8 8v27c0 5 3 8 8 8h230c5 0 8 -3 8 -8v-27c0 -5 -3 -8 -8 -8h-230z" />
    <glyph glyph-name="guillemotleft" unicode="&#xab;" horiz-adv-x="392" 
d="M157 83c-4 0 -8 1 -10 5l-114 153c-8 10 -8 22 0 32l114 153c2 4 6 5 10 5h30c7 0 9 -5 5 -10l-124 -164l124 -164c4 -5 2 -10 -5 -10h-30zM320 83c-4 0 -8 1 -10 5l-114 153c-8 10 -8 22 0 32l114 153c2 4 6 5 10 5h30c7 0 9 -5 5 -10l-124 -164l124 -164
c4 -5 2 -10 -5 -10h-30z" />
    <glyph glyph-name="guillemotright" unicode="&#xbb;" horiz-adv-x="392" 
d="M72 83h-30c-7 0 -9 5 -5 10l124 164l-124 164c-4 5 -2 10 5 10h30c4 0 8 -1 10 -5l114 -153c8 -10 8 -22 0 -32l-114 -153c-2 -4 -6 -5 -10 -5zM235 83h-30c-7 0 -9 5 -5 10l124 164l-124 164c-4 5 -2 10 5 10h30c4 0 8 -1 10 -5l114 -153c8 -10 8 -22 0 -32l-114 -153
c-2 -4 -6 -5 -10 -5z" />
    <glyph glyph-name="guilsinglleft" unicode="&#x2039;" horiz-adv-x="229" 
d="M157 83c-4 0 -8 1 -10 5l-114 153c-8 10 -8 22 0 32l114 153c2 4 6 5 10 5h30c7 0 9 -5 5 -10l-124 -164l124 -164c4 -5 2 -10 -5 -10h-30z" />
    <glyph glyph-name="guilsinglright" unicode="&#x203a;" horiz-adv-x="229" 
d="M72 83h-30c-7 0 -9 5 -5 10l124 164l-124 164c-4 5 -2 10 5 10h30c4 0 8 -1 10 -5l114 -153c8 -10 8 -22 0 -32l-114 -153c-2 -4 -6 -5 -10 -5z" />
    <glyph glyph-name="quotedblbase" unicode="&#x201e;" horiz-adv-x="104" 
d="M26 55c0 6 4 8 9 8h35c5 0 8 -3 7 -9l-26 -147c0 -5 -4 -8 -9 -8h-18c-5 0 -7 3 -7 9z" />
    <glyph glyph-name="quotedblleft" unicode="&#x201c;" horiz-adv-x="197" 
d="M77 544c0 -6 -4 -8 -9 -8h-35c-5 0 -8 3 -7 9l26 147c0 5 4 8 9 8h18c5 0 7 -3 7 -9zM170 544c0 -6 -4 -8 -9 -8h-35c-5 0 -8 3 -7 9l26 147c0 5 4 8 9 8h18c5 0 7 -3 7 -9z" />
    <glyph glyph-name="quotedblright" unicode="&#x201d;" horiz-adv-x="202" 
d="M28 692c0 6 4 8 9 8h35c5 0 8 -3 7 -9l-26 -147c0 -5 -4 -8 -9 -8h-18c-5 0 -7 3 -7 9zM121 692c0 6 4 8 9 8h35c5 0 8 -3 7 -9l-26 -147c0 -5 -4 -8 -9 -8h-18c-5 0 -7 3 -7 9z" />
    <glyph glyph-name="quoteleft" unicode="&#x2018;" horiz-adv-x="107" 
d="M76 544c0 -6 -4 -8 -9 -8h-35c-5 0 -8 3 -7 9l26 147c0 5 4 8 9 8h18c5 0 7 -3 7 -9z" />
    <glyph glyph-name="quoteright" unicode="&#x2019;" horiz-adv-x="107" 
d="M31 692c0 6 4 8 9 8h35c5 0 8 -3 7 -9l-26 -147c0 -5 -4 -8 -9 -8h-18c-5 0 -7 3 -7 9z" />
    <glyph glyph-name="quotesinglbase" unicode="&#x201a;" horiz-adv-x="102" 
d="M26 55c0 6 4 8 9 8h35c5 0 8 -3 7 -9l-26 -147c0 -5 -4 -8 -9 -8h-18c-5 0 -7 3 -7 9z" />
    <glyph glyph-name="guillemotleft.case" horiz-adv-x="391" 
d="M157 143c-4 0 -8 1 -10 5l-114 153c-8 10 -8 22 0 32l114 153c2 4 6 5 10 5h30c7 0 9 -5 5 -10l-124 -164l124 -164c4 -5 2 -10 -5 -10h-30zM320 143c-4 0 -8 1 -10 5l-114 153c-8 10 -8 22 0 32l114 153c2 4 6 5 10 5h30c7 0 9 -5 5 -10l-124 -164l124 -164
c4 -5 2 -10 -5 -10h-30z" />
    <glyph glyph-name="guillemotright.case" horiz-adv-x="392" 
d="M72 143h-30c-7 0 -9 5 -5 10l124 164l-124 164c-4 5 -2 10 5 10h30c4 0 8 -1 10 -5l114 -153c8 -10 8 -22 0 -32l-114 -153c-2 -4 -6 -5 -10 -5zM235 143h-30c-7 0 -9 5 -5 10l124 164l-124 164c-4 5 -2 10 5 10h30c4 0 8 -1 10 -5l114 -153c8 -10 8 -22 0 -32l-114 -153
c-2 -4 -6 -5 -10 -5z" />
    <glyph glyph-name="guilsinglleft.case" horiz-adv-x="228" 
d="M157 143c-4 0 -8 1 -10 5l-114 153c-8 10 -8 22 0 32l114 153c2 4 6 5 10 5h30c7 0 9 -5 5 -10l-124 -164l124 -164c4 -5 2 -10 -5 -10h-30z" />
    <glyph glyph-name="guilsinglright.case" horiz-adv-x="229" 
d="M72 143h-30c-7 0 -9 5 -5 10l124 164l-124 164c-4 5 -2 10 5 10h30c4 0 8 -1 10 -5l114 -153c8 -10 8 -22 0 -32l-114 -153c-2 -4 -6 -5 -10 -5z" />
    <glyph glyph-name="space" unicode=" " horiz-adv-x="239" 
 />
    <glyph glyph-name="cent" unicode="&#xa2;" horiz-adv-x="386" 
d="M186 -85c-5 0 -9 3 -9 8v70c-76 9 -128 72 -128 153v205c0 86 53 148 128 156v70c0 5 4 8 9 8h19c5 0 8 -3 8 -8v-69c75 -7 128 -65 132 -139c0 -5 -3 -9 -8 -9h-28c-5 0 -8 3 -8 9c-4 56 -45 97 -104 97c-61 0 -103 -46 -103 -115v-205c0 -65 42 -112 104 -112
c60 0 101 43 104 102c0 6 4 9 9 9h27c5 0 9 -4 9 -9c-5 -78 -58 -138 -134 -144v-69c0 -5 -3 -8 -8 -8h-19z" />
    <glyph glyph-name="currency" unicode="&#xa4;" horiz-adv-x="435" 
d="M217 112c-45 0 -82 16 -108 42l-37 -43c-4 -5 -8 -5 -12 -2l-17 15c-4 4 -5 8 -2 12l43 51c-13 24 -20 53 -20 83v82c0 32 7 59 20 83l-43 52c-3 4 -2 8 2 11l17 16c4 3 8 2 12 -2l37 -44c26 27 63 42 108 42c46 0 83 -15 109 -42l37 44c3 4 8 5 12 2l17 -16
c4 -3 5 -7 2 -11l-43 -51c13 -24 20 -52 20 -84v-82c0 -31 -7 -59 -20 -83l43 -51c3 -4 2 -8 -2 -12l-17 -15c-4 -3 -9 -2 -12 2l-37 43c-26 -26 -63 -42 -109 -42zM217 154c68 0 109 48 109 116v82c0 69 -41 116 -109 116c-67 0 -108 -47 -108 -116v-82
c0 -68 41 -116 108 -116z" />
    <glyph glyph-name="dollar" unicode="$" horiz-adv-x="407" 
d="M367 150c0 -88 -58 -152 -147 -158v-69c0 -5 -3 -8 -8 -8h-19c-5 0 -9 3 -9 8v69c-86 9 -141 73 -144 166c0 5 4 8 9 8h30c5 0 8 -3 8 -8c3 -75 46 -123 117 -123c73 0 116 46 116 115c0 179 -275 209 -275 404c0 87 56 146 139 154v69c0 5 4 8 9 8h19c5 0 8 -3 8 -8v-69
c80 -7 136 -67 139 -166c0 -5 -3 -8 -8 -8h-30c-5 0 -9 3 -9 8c-2 82 -44 123 -109 123c-67 0 -111 -42 -111 -111c0 -167 275 -198 275 -404z" />
    <glyph glyph-name="Euro" unicode="&#x20ac;" horiz-adv-x="478" 
d="M431 179c5 0 8 -2 8 -8c-3 -106 -68 -180 -164 -180s-162 70 -162 170v112h-66c-5 0 -9 3 -9 8v21c0 5 4 8 9 8h66v79h-66c-5 0 -9 3 -9 8v21c0 5 4 8 9 8h66v113c0 100 66 170 162 170c92 0 157 -73 159 -177c0 -5 -3 -8 -8 -8h-30c-5 0 -8 3 -8 8
c-3 82 -47 133 -113 133c-70 0 -115 -49 -115 -126v-113h192c5 0 8 -3 8 -8v-21c0 -5 -3 -8 -8 -8h-192v-79h192c5 0 8 -3 8 -8v-21c0 -5 -3 -8 -8 -8h-192v-112c0 -77 45 -126 115 -126c71 0 116 53 118 136c0 6 3 8 8 8h30z" />
    <glyph glyph-name="sterling" unicode="&#xa3;" horiz-adv-x="462" 
d="M420 46c5 0 8 -3 8 -8v-30c0 -5 -3 -8 -8 -8h-383c-5 0 -9 3 -9 8v24c0 9 6 13 15 15c35 5 55 38 55 100v186h-59c-5 0 -9 3 -9 8v27c0 5 4 8 9 8h59v163c0 96 65 170 158 170c94 0 156 -72 160 -167c0 -5 -4 -8 -9 -8h-30c-5 0 -8 3 -8 8c-3 71 -46 123 -113 123
c-66 0 -111 -54 -111 -126v-163h195c5 0 8 -3 8 -8v-27c0 -5 -3 -8 -8 -8h-195v-189c0 -45 -11 -77 -30 -98h305z" />
    <glyph glyph-name="yen" unicode="&#xa5;" horiz-adv-x="502" 
d="M441 230h-168v-69h168c5 0 8 -4 8 -9v-21c0 -5 -3 -9 -8 -9h-168v-114c0 -5 -3 -8 -8 -8h-30c-5 0 -8 3 -8 8v114h-165c-5 0 -9 4 -9 9v21c0 5 4 9 9 9h165v69h-165c-5 0 -9 3 -9 8v22c0 5 4 8 9 8h89c-36 28 -59 71 -59 120v304c0 5 3 8 8 8h30c5 0 9 -3 9 -8v-304
c0 -66 50 -115 111 -115c62 0 111 49 111 115v304c0 5 4 8 9 8h30c5 0 8 -3 8 -8v-304c0 -49 -23 -92 -60 -120h93c5 0 8 -3 8 -8v-22c0 -5 -3 -8 -8 -8z" />
    <glyph glyph-name="approxequal" unicode="&#x2248;" horiz-adv-x="440" 
d="M367 466c3 5 7 6 11 0l14 -20c2 -4 3 -8 0 -12c-25 -39 -53 -55 -86 -55c-59 0 -120 51 -167 51c-31 0 -52 -21 -65 -41c-5 -6 -9 -5 -12 -1l-13 24c-3 4 -3 7 0 11c27 37 55 52 87 52c58 0 120 -51 167 -51c31 0 51 22 64 42zM367 325c3 5 7 6 11 0l14 -21
c2 -3 3 -7 0 -11c-25 -39 -53 -55 -86 -55c-59 0 -120 51 -167 51c-31 0 -52 -21 -65 -42c-5 -5 -9 -5 -12 0l-13 23c-3 4 -3 8 0 12c27 37 55 52 87 52c58 0 120 -51 167 -51c31 0 51 22 64 42z" />
    <glyph glyph-name="asciitilde" unicode="~" horiz-adv-x="417" 
d="M355 399c3 5 7 6 11 0l14 -21c2 -3 3 -7 0 -11c-25 -39 -53 -55 -87 -55c-57 0 -119 51 -166 51c-29 0 -52 -20 -65 -42c-4 -5 -9 -5 -12 0l-13 23c-3 4 -3 8 0 12c27 37 55 52 87 52c58 0 121 -51 167 -51c29 0 51 21 64 42z" />
    <glyph glyph-name="divide" unicode="&#xf7;" horiz-adv-x="440" 
d="M220 456c-22 0 -39 18 -39 39c0 22 17 39 39 39c21 0 39 -17 39 -39c0 -21 -18 -39 -39 -39zM56 338c-5 0 -8 3 -8 8v26c0 5 3 8 8 8h328c5 0 8 -3 8 -8v-26c0 -5 -3 -8 -8 -8h-328zM220 178c-22 0 -39 18 -39 39c0 22 17 39 39 39c21 0 39 -17 39 -39
c0 -21 -18 -39 -39 -39z" />
    <glyph glyph-name="emptyset" unicode="&#x2205;" horiz-adv-x="802" 
d="M744 745c5 0 11 -4 7 -9l-104 -123c64 -63 100 -153 100 -263c0 -215 -140 -358 -349 -358c-86 0 -161 24 -218 68l-83 -98c-3 -4 -6 -7 -11 -7h-28c-5 0 -11 4 -7 9l101 120c-65 62 -103 155 -103 266c0 215 140 358 349 358c88 0 164 -25 222 -71l85 101c3 4 6 7 11 7
h28zM87 350c0 -99 33 -181 89 -238l420 497c-52 40 -120 63 -198 63c-187 0 -311 -129 -311 -322zM709 350c0 97 -31 178 -86 234l-419 -495c51 -39 117 -61 194 -61c187 0 311 129 311 322z" />
    <glyph glyph-name="equal" unicode="=" horiz-adv-x="400" 
d="M36 398c-5 0 -8 3 -8 8v25c0 5 3 9 8 9h328c5 0 8 -4 8 -9v-25c0 -5 -3 -8 -8 -8h-328zM36 266c-5 0 -8 4 -8 9v25c0 5 3 8 8 8h328c5 0 8 -3 8 -8v-25c0 -5 -3 -9 -8 -9h-328z" />
    <glyph glyph-name="greater" unicode="&#x3e;" horiz-adv-x="333" 
d="M293 384c2 -1 4 -4 4 -7v-38c0 -2 -2 -5 -4 -6l-241 -135c-8 -4 -15 1 -15 9v25c0 2 1 6 4 7l214 120l-214 119c-3 1 -4 4 -4 7v25c0 8 7 13 15 9z" />
    <glyph glyph-name="greaterequal" unicode="&#x2265;" horiz-adv-x="420" 
d="M309 415c3 -1 4 -5 4 -7v-38c0 -2 -1 -6 -4 -7l-241 -121c-7 -4 -15 1 -15 9v25c0 2 2 6 4 7l214 106l-214 106c-2 1 -4 5 -4 7v25c0 8 8 13 15 9zM305 191c5 0 8 -3 8 -8v-26c0 -5 -3 -8 -8 -8h-243c-5 0 -9 3 -9 8v26c0 5 4 8 9 8h243z" />
    <glyph glyph-name="infinity" unicode="&#x221e;" horiz-adv-x="621" 
d="M438 396c75 0 134 -59 134 -145c0 -88 -59 -144 -133 -144c-71 0 -104 43 -128 94c-24 -51 -58 -94 -128 -94c-75 0 -134 56 -134 144c0 86 59 145 134 145c69 0 103 -41 128 -89c24 48 58 89 127 89zM183 149c58 0 81 50 104 105c-23 53 -46 100 -104 100
c-53 0 -89 -38 -89 -103c0 -61 36 -102 89 -102zM439 149c52 0 88 41 88 102c0 65 -36 103 -89 103c-58 0 -81 -47 -103 -100c23 -55 45 -105 104 -105z" />
    <glyph glyph-name="integral" unicode="&#x222b;" horiz-adv-x="304" 
d="M283 703c5 0 8 -4 8 -9v-26c0 -5 -3 -8 -8 -8h-2c-74 -2 -107 -47 -107 -117v-588c0 -93 -51 -158 -151 -160h-1c-5 0 -9 3 -9 8v26c0 5 3 9 9 9h1c74 2 107 47 107 117v588c0 93 52 158 151 160h2z" />
    <glyph glyph-name="less" unicode="&#x3c;" horiz-adv-x="367" 
d="M330 485c0 -3 -1 -6 -4 -7l-214 -119l214 -120c3 -1 4 -5 4 -7v-25c0 -8 -7 -13 -15 -9l-241 135c-2 1 -4 4 -4 6v38c0 3 2 6 4 7l241 135c8 4 15 -1 15 -9v-25z" />
    <glyph glyph-name="lessequal" unicode="&#x2264;" horiz-adv-x="367" 
d="M314 502c0 -2 -2 -6 -4 -7l-214 -106l214 -106c2 -1 4 -5 4 -7v-25c0 -8 -8 -13 -15 -9l-241 121c-3 1 -4 5 -4 7v38c0 2 1 6 4 7l241 121c7 4 15 -1 15 -9v-25zM305 191c5 0 9 -3 9 -8v-26c0 -5 -4 -8 -9 -8h-243c-5 0 -8 3 -8 8v26c0 5 3 8 8 8h243z" />
    <glyph glyph-name="logicalnot" unicode="&#xac;" horiz-adv-x="440" 
d="M384 380c5 0 8 -4 8 -9v-110c0 -5 -3 -9 -8 -9h-24c-5 0 -8 4 -8 9v77h-296c-5 0 -8 3 -8 8v25c0 5 3 9 8 9h328z" />
    <glyph glyph-name="minus" unicode="&#x2212;" horiz-adv-x="440" 
d="M56 338c-5 0 -8 3 -8 8v25c0 5 3 9 8 9h328c5 0 8 -4 8 -9v-25c0 -5 -3 -8 -8 -8h-328z" />
    <glyph glyph-name="multiply" unicode="&#xd7;" horiz-adv-x="440" 
d="M72 193l-18 17c-4 4 -4 9 0 13l136 136l-136 136c-4 4 -4 8 0 12l18 18c4 3 8 3 12 0l136 -136l136 136c4 3 8 3 12 0l18 -18c4 -4 4 -8 0 -12l-136 -136l136 -136c4 -4 4 -9 0 -13l-18 -17c-4 -4 -8 -4 -12 0l-136 136l-136 -136c-4 -4 -8 -4 -12 0z" />
    <glyph glyph-name="notequal" unicode="&#x2260;" horiz-adv-x="440" 
d="M384 398h-119l-48 -90h167c5 0 8 -3 8 -8v-25c0 -5 -3 -9 -8 -9h-190l-39 -73c-2 -5 -6 -6 -10 -6h-24c-6 0 -10 4 -7 10l37 69h-95c-5 0 -8 4 -8 9v25c0 5 3 8 8 8h117l49 90h-166c-5 0 -8 3 -8 8v25c0 5 3 9 8 9h188l42 78c1 4 6 6 10 6h24c6 0 10 -4 7 -10l-40 -74h97
c5 0 8 -4 8 -9v-25c0 -5 -3 -8 -8 -8z" />
    <glyph glyph-name="partialdiff" unicode="&#x2202;" horiz-adv-x="409" 
d="M141 708c136 0 210 -84 210 -221v-339c0 -90 -62 -157 -151 -157s-151 67 -151 157v206c0 88 63 155 151 155c43 0 81 -25 106 -59v37c0 113 -56 179 -165 179h-22c-5 0 -8 3 -8 8v26c0 5 3 8 8 8h22zM306 148v206c0 65 -43 112 -106 112s-106 -47 -106 -112v-206
c0 -67 42 -114 106 -114s106 47 106 114z" />
    <glyph glyph-name="percent" unicode="%" horiz-adv-x="579" 
d="M113 395c-48 0 -83 37 -83 86v140c0 49 35 87 83 87c49 0 83 -38 83 -87v-140c0 -49 -34 -86 -83 -86zM39 -3c-6 0 -11 4 -8 10l473 689c3 4 5 7 10 7h27c6 0 11 -4 7 -10l-472 -689c-2 -4 -5 -7 -10 -7h-27zM113 432c28 0 45 21 45 49v140c0 29 -17 50 -45 50
c-27 0 -45 -21 -45 -50v-140c0 -28 18 -49 45 -49zM466 -8c-48 0 -83 37 -83 86v140c0 49 35 87 83 87c49 0 83 -38 83 -87v-140c0 -49 -34 -86 -83 -86zM466 29c28 0 45 21 45 49v140c0 29 -17 50 -45 50c-27 0 -45 -21 -45 -50v-140c0 -28 18 -49 45 -49z" />
    <glyph glyph-name="perthousand" unicode="&#x2030;" horiz-adv-x="845" 
d="M114 395c-48 0 -83 37 -83 86v140c0 49 35 87 83 87c49 0 83 -38 83 -87v-140c0 -49 -34 -86 -83 -86zM39 -3c-5 0 -11 4 -7 10l519 689c3 4 5 7 10 7h27c6 0 12 -4 8 -10l-519 -689c-3 -4 -6 -7 -11 -7h-27zM114 432c27 0 44 21 44 49v140c0 29 -17 50 -44 50
s-45 -21 -45 -50v-140c0 -28 18 -49 45 -49zM514 -8c-49 0 -84 37 -84 86v140c0 49 35 87 84 87c48 0 83 -38 83 -87v-140c0 -49 -35 -86 -83 -86zM744 -8c-49 0 -84 37 -84 86v140c0 49 35 87 84 87c48 0 83 -38 83 -87v-140c0 -49 -35 -86 -83 -86zM514 29
c27 0 44 21 44 49v140c0 29 -17 50 -44 50c-28 0 -45 -21 -45 -50v-140c0 -28 17 -49 45 -49zM744 29c27 0 44 21 44 49v140c0 29 -17 50 -44 50c-28 0 -45 -21 -45 -50v-140c0 -28 17 -49 45 -49z" />
    <glyph glyph-name="plus" unicode="+" horiz-adv-x="440" 
d="M384 380c5 0 8 -4 8 -9v-25c0 -5 -3 -8 -8 -8h-143v-145c0 -5 -3 -9 -8 -9h-26c-5 0 -8 4 -8 9v145h-143c-5 0 -8 3 -8 8v25c0 5 3 9 8 9h143v145c0 5 3 8 8 8h26c5 0 8 -3 8 -8v-145h143z" />
    <glyph glyph-name="plusminus" unicode="&#xb1;" horiz-adv-x="440" 
d="M384 405c5 0 8 -3 8 -8v-26c0 -5 -3 -8 -8 -8h-143v-143c0 -5 -3 -8 -8 -8h-26c-5 0 -8 3 -8 8v143h-143c-5 0 -8 3 -8 8v26c0 5 3 8 8 8h143v143c0 5 3 8 8 8h26c5 0 8 -3 8 -8v-143h143zM384 170c5 0 8 -3 8 -8v-25c0 -5 -3 -9 -8 -9h-328c-5 0 -8 4 -8 9v25
c0 5 3 8 8 8h328z" />
    <glyph glyph-name="product" unicode="&#x220f;" horiz-adv-x="471" 
d="M82 -100c-5 0 -8 3 -8 8v752c0 26 14 40 40 40h243c26 0 40 -14 40 -40v-752c0 -5 -3 -8 -8 -8h-30c-5 0 -8 3 -8 8v748h-230v-748c0 -5 -4 -8 -9 -8h-30z" />
    <glyph glyph-name="radical" unicode="&#x221a;" horiz-adv-x="446" 
d="M438 800c6 0 9 -4 8 -9l-166 -773c-3 -14 -11 -21 -25 -21h-29c-14 0 -21 7 -25 21l-96 438h-80c-5 0 -9 4 -9 9v26c0 5 4 8 9 8h97c14 0 22 -7 25 -21l94 -428l158 743c1 5 4 7 9 7h30z" />
    <glyph glyph-name="summation" unicode="&#x2211;" horiz-adv-x="335" 
d="M51 -3c-12 0 -19 6 -19 17s-1 18 3 26l156 310l-156 310c-4 8 -3 15 -3 26s7 17 19 17h254c5 0 8 -4 8 -9v-27c0 -5 -3 -8 -8 -8h-223l145 -289c2 -4 3 -7 3 -10v-20c0 -3 -1 -6 -3 -10l-145 -289h223c5 0 8 -3 8 -8v-27c0 -5 -3 -9 -8 -9h-254z" />
    <glyph glyph-name="lozenge" unicode="&#x25ca;" horiz-adv-x="448" 
d="M217 -3c-13 0 -21 7 -27 19l-138 318c-4 12 -4 20 0 32l138 318c6 12 14 19 27 19h14c13 0 21 -7 27 -19l138 -318c4 -12 4 -20 0 -32l-138 -318c-6 -12 -14 -19 -27 -19h-14zM224 40l133 310l-133 310l-133 -310z" />
    <glyph glyph-name="bar" unicode="|" horiz-adv-x="183" 
d="M68 792c0 5 3 8 8 8h30c5 0 9 -3 9 -8v-854c0 -5 -4 -8 -9 -8h-30c-5 0 -8 3 -8 8v854z" />
    <glyph glyph-name="brokenbar" unicode="&#xa6;" horiz-adv-x="163" 
d="M66 506c-5 0 -8 3 -8 8v278c0 5 3 8 8 8h30c5 0 9 -3 9 -8v-278c0 -5 -4 -8 -9 -8h-30zM66 -70c-5 0 -8 3 -8 8v278c0 5 3 8 8 8h30c5 0 9 -3 9 -8v-278c0 -5 -4 -8 -9 -8h-30z" />
    <glyph glyph-name="at" unicode="@" horiz-adv-x="613" 
d="M243 -100c-116 0 -194 79 -194 198v242c0 118 78 196 194 196h64c79 0 132 -56 132 -141v-198c0 -80 -52 -133 -129 -133c-84 0 -140 56 -140 142c0 87 56 141 137 141h89v48c0 60 -36 100 -89 100h-64c-91 0 -151 -61 -151 -155v-242c0 -95 60 -157 151 -157h127
c91 0 152 62 152 157v407c0 94 -61 157 -152 157h-175c-5 0 -8 3 -8 8v24c0 5 3 9 8 9h175c116 0 194 -79 194 -198v-407c0 -119 -78 -198 -194 -198h-127zM310 105c52 0 86 37 86 92v109h-89c-55 0 -94 -38 -95 -100c0 -61 39 -101 98 -101z" />
    <glyph glyph-name="ampersand" unicode="&#x26;" horiz-adv-x="468" 
d="M211 -3c-90 0 -158 67 -158 156v72c0 59 30 113 82 135c-51 23 -80 76 -80 135v41c0 92 54 173 159 173c103 0 160 -81 163 -177c0 -5 -4 -8 -9 -8h-30c-5 0 -8 3 -8 8c-2 72 -37 133 -116 133c-80 0 -113 -61 -113 -129v-44c0 -63 46 -110 113 -110h211c5 0 8 -4 8 -9
v-26c0 -5 -3 -9 -8 -9h-54v-317c0 -15 -8 -24 -23 -24h-137zM211 41h114v297h-111c-70 0 -114 -46 -114 -110v-75c0 -65 46 -112 111 -112z" />
    <glyph glyph-name="paragraph" unicode="&#xb6;" horiz-adv-x="462" 
d="M361 701c17 0 27 -10 27 -27v-764c0 -5 -3 -9 -8 -9h-30c-5 0 -9 4 -9 9v747h-124v-747c0 -5 -3 -9 -8 -9h-30c-5 0 -8 4 -8 9v499c-92 0 -152 55 -152 146s60 146 152 146h190z" />
    <glyph glyph-name="copyright" unicode="&#xa9;" horiz-adv-x="618" 
d="M246 -3c-113 0 -188 76 -188 190v322c0 116 75 194 188 194h127c112 0 187 -78 187 -194v-322c0 -114 -75 -190 -187 -190h-127zM246 26h127c97 0 157 61 157 161v322c0 102 -60 165 -157 165h-127c-98 0 -158 -63 -158 -165v-322c0 -100 60 -161 158 -161zM309 136
c-74 0 -123 51 -123 128v169c0 78 49 130 122 130c69 0 118 -48 122 -118c0 -3 -3 -6 -6 -6h-27c-3 0 -6 3 -6 6c-4 49 -36 79 -83 79c-52 0 -83 -35 -83 -91v-169c0 -55 32 -89 84 -89c49 0 81 32 85 84c0 3 2 6 6 6h26c4 0 7 -3 7 -6c-4 -74 -53 -123 -124 -123z" />
    <glyph glyph-name="registered" unicode="&#xae;" horiz-adv-x="443" 
d="M161 264c-59 0 -108 49 -108 107v223c0 60 49 109 108 109h121c59 0 107 -49 107 -109v-223c0 -58 -48 -107 -107 -107h-121zM161 285h121c48 0 87 39 87 86v223c0 50 -39 88 -87 88h-121c-48 0 -87 -38 -87 -88v-223c0 -47 39 -86 87 -86zM155 344c-2 0 -3 2 -3 3v214
c0 42 28 71 70 71c40 0 68 -29 68 -71v-29c0 -36 -20 -61 -47 -69l51 -115c1 -2 -1 -4 -2 -4h-19c-2 0 -4 1 -4 3l-49 112h-44v-112c0 -1 -1 -3 -4 -3h-17zM176 481h46c26 0 44 21 44 51v29c0 29 -18 50 -44 50c-28 0 -46 -21 -46 -50v-80z" />
    <glyph glyph-name="section" unicode="&#xa7;" horiz-adv-x="389" 
d="M267 230c39 -24 71 -58 71 -117c0 -69 -57 -121 -142 -121c-98 0 -146 66 -149 135c0 5 3 8 8 8h30c5 0 8 -3 8 -8c4 -45 27 -92 102 -92c62 0 97 32 97 79c0 130 -252 82 -252 255c0 49 30 89 79 108c-40 23 -70 57 -70 109c0 70 57 122 142 122c91 0 138 -54 141 -123
c0 -5 -4 -8 -9 -8h-29c-5 0 -9 3 -9 8c-4 39 -25 80 -94 80c-56 0 -96 -29 -96 -79c0 -123 254 -88 254 -240c0 -58 -30 -95 -82 -116zM86 365c0 -65 69 -94 131 -111c48 6 86 40 86 90c0 62 -76 90 -137 108c-51 -10 -80 -45 -80 -87z" />
    <glyph glyph-name="trademark" unicode="&#x2122;" horiz-adv-x="501" 
d="M393 703c47 0 75 -34 75 -87v-183c0 -3 -2 -4 -4 -4h-23c-3 0 -5 1 -5 4v182c0 37 -15 57 -43 57c-27 0 -42 -23 -42 -57v-182c0 -3 -2 -4 -4 -4h-23c-2 0 -5 1 -5 4v182c0 34 -14 57 -41 57c-28 0 -43 -20 -43 -57v-182c0 -3 -3 -4 -5 -4h-23c-4 0 -4 1 -4 4v183
c0 53 27 87 75 87c24 0 45 -16 57 -42c13 26 34 42 58 42zM170 700c2 0 4 -1 4 -4v-23c0 -2 -2 -4 -4 -4h-54v-236c0 -2 -2 -4 -4 -4h-24c-3 0 -4 2 -4 4v236h-53c-2 0 -4 2 -4 4v23c0 3 2 4 4 4h139z" />
    <glyph glyph-name="degree" unicode="&#xb0;" horiz-adv-x="301" 
d="M29 581c0 77 49 128 122 128c72 0 121 -51 121 -128s-49 -128 -121 -128c-73 0 -122 51 -122 128zM69 581c0 -55 33 -91 82 -91s82 36 82 91s-33 91 -82 91s-82 -36 -82 -91z" />
    <glyph glyph-name="asciicircum" unicode="^" horiz-adv-x="291" 
d="M281 485c3 -6 0 -10 -6 -10h-32c-4 0 -9 1 -10 6l-84 173l-85 -173c-2 -5 -6 -6 -10 -6h-32c-6 0 -9 4 -6 10l104 209c2 4 6 6 10 6h37c4 0 8 -2 10 -6z" />
    <glyph glyph-name="dagger" unicode="&#x2020;" horiz-adv-x="341" 
d="M309 507c5 0 8 -4 8 -9v-27c0 -5 -3 -8 -8 -8h-115v-555c0 -5 -3 -8 -8 -8h-30c-5 0 -9 3 -9 8v555h-115c-5 0 -8 3 -8 8v27c0 5 3 9 8 9h115v185c0 5 4 8 9 8h30c5 0 8 -3 8 -8v-185h115z" />
    <glyph glyph-name="daggerdbl" unicode="&#x2021;" horiz-adv-x="348" 
d="M312 463h-115v-282h115c5 0 9 -3 9 -8v-27c0 -5 -4 -8 -9 -8h-115v-230c0 -5 -3 -8 -8 -8h-30c-5 0 -8 3 -8 8v230h-115c-5 0 -9 3 -9 8v27c0 5 4 8 9 8h115v282h-115c-5 0 -9 3 -9 8v27c0 5 4 9 9 9h115v185c0 5 3 8 8 8h30c5 0 8 -3 8 -8v-185h115c5 0 9 -4 9 -9v-27
c0 -5 -4 -8 -9 -8z" />
    <glyph glyph-name="uni0308" unicode="&#x308;" 
d="M-131 574c-19 0 -32 13 -32 32s13 32 32 32s32 -13 32 -32s-13 -32 -32 -32zM-32 574c-19 0 -32 13 -32 32s13 32 32 32s32 -13 32 -32s-13 -32 -32 -32z" />
    <glyph glyph-name="uni0307" unicode="&#x307;" 
d="M-36 572c-20 0 -33 14 -33 33c0 20 13 33 33 33c19 0 33 -13 33 -33c0 -18 -14 -33 -33 -33z" />
    <glyph glyph-name="gravecomb" unicode="&#x300;" 
d="M-107 670h34c4 0 8 -2 10 -6l60 -95c4 -6 1 -10 -5 -10h-25c-4 0 -8 1 -10 5l-69 96c-4 5 -2 10 5 10z" />
    <glyph glyph-name="acutecomb" unicode="&#x301;" 
d="M-8 670c7 0 9 -5 5 -10l-69 -96c-2 -4 -6 -5 -10 -5h-25c-6 0 -9 4 -5 10l60 95c2 4 6 6 10 6h34z" />
    <glyph glyph-name="uni030B" unicode="&#x30b;" 
d="M-109 670c7 0 9 -5 5 -10l-69 -96c-2 -4 -6 -5 -10 -5h-21c-7 0 -9 4 -6 10l61 95c2 4 6 6 10 6h30zM-13 670c7 0 9 -5 5 -10l-69 -96c-2 -4 -6 -5 -10 -5h-21c-7 0 -9 4 -6 10l61 95c2 4 6 6 10 6h30z" />
    <glyph glyph-name="uni0302" unicode="&#x302;" 
d="M-200 559c-6 0 -9 5 -5 10l71 96c2 4 6 5 10 5h36c4 0 8 -1 10 -5l71 -96c4 -5 1 -10 -5 -10h-24c-4 0 -9 2 -11 5l-59 73l-59 -73c-2 -3 -7 -5 -11 -5h-24z" />
    <glyph glyph-name="uni030C" unicode="&#x30c;" 
d="M-200 670h24c4 0 9 -2 11 -5l59 -73l59 73c2 3 7 5 11 5h24c6 0 9 -5 5 -10l-71 -96c-2 -4 -6 -5 -10 -5h-36c-4 0 -8 1 -10 5l-71 96c-4 5 -1 10 5 10z" />
    <glyph glyph-name="uni0306" unicode="&#x306;" 
d="M-111 562c-61 0 -103 39 -107 98c0 5 3 8 8 8h25c5 0 8 -2 9 -8c3 -37 27 -58 65 -58c39 0 63 21 66 58c0 6 4 8 9 8h25c5 0 8 -2 8 -8c-4 -58 -45 -98 -108 -98z" />
    <glyph glyph-name="uni030A" unicode="&#x30a;" 
d="M-144 615c0 38 27 64 67 64s66 -26 66 -64c0 -39 -26 -65 -66 -65s-67 26 -67 65zM-111 614c0 -21 12 -34 34 -34c20 0 34 13 34 34s-14 34 -34 34c-22 0 -34 -13 -34 -34z" />
    <glyph glyph-name="tildecomb" unicode="&#x303;" 
d="M-143 617c-14 0 -22 -11 -24 -30c-1 -6 -4 -8 -9 -8h-24c-5 0 -8 3 -8 8c3 42 28 68 62 68c41 0 56 -39 81 -39c14 0 23 11 24 30c1 6 4 8 9 8h24c5 0 8 -3 8 -8c-3 -42 -29 -68 -62 -68c-39 0 -54 39 -81 39z" />
    <glyph glyph-name="uni0304" unicode="&#x304;" 
d="M-159 627c0 5 3 8 8 8h143c5 0 8 -3 8 -8v-24c0 -5 -3 -9 -8 -9h-143c-5 0 -8 4 -8 9v24z" />
    <glyph glyph-name="uni0312" unicode="&#x312;" 
d="M-59 570l-9 147c0 6 2 9 7 9h18c5 0 9 -3 9 -8l26 -147c1 -6 -2 -9 -7 -9h-35c-5 0 -9 2 -9 8z" />
    <glyph glyph-name="uni0326" unicode="&#x326;" 
d="M-63 -70c0 6 4 8 9 8h35c5 0 8 -3 7 -9l-26 -147c0 -5 -4 -8 -9 -8h-18c-5 0 -7 3 -7 9z" />
    <glyph glyph-name="uni0327" unicode="&#x327;" 
d="M-86 -198c-47 0 -82 26 -85 70c-1 5 2 8 7 8h22c5 0 7 -3 8 -8c4 -22 22 -35 48 -35c28 0 48 16 48 42c0 23 -19 40 -43 40c-13 0 -25 -3 -36 -6c-3 -1 -5 0 -7 2l-2 1c-2 2 -3 4 -3 7l15 77h36l-9 -50c4 1 9 1 13 1c42 -2 74 -31 74 -72c0 -48 -36 -77 -86 -77z" />
    <glyph glyph-name="uni0328" unicode="&#x328;" 
d="M0 -187c0 -5 -2 -8 -7 -9c-8 -1 -17 -2 -24 -2c-60 0 -86 38 -86 78s25 79 61 120h45c-39 -34 -64 -75 -64 -109c0 -31 23 -46 56 -46h11c5 0 8 -2 8 -7v-25z" />
    <glyph glyph-name="uni0335" unicode="&#x335;" 
d="M-210 372v37h200v-37h-200z" />
    <glyph glyph-name="uni0336" unicode="&#x336;" 
d="M-330 409h320v-37h-320v37z" />
    <glyph glyph-name="uni0337" unicode="&#x337;" 
d="M-221 -45c-6 0 -9 3 -7 9l159 574c1 4 4 7 9 7h30c5 0 9 -3 7 -9l-160 -574c-1 -4 -4 -7 -9 -7h-29z" />
    <glyph glyph-name="uni0338" unicode="&#x338;" 
d="M-318 -45c-6 0 -9 3 -8 9l216 774c1 4 4 7 9 7h29c6 0 9 -3 7 -9l-215 -774c-1 -4 -4 -7 -9 -7h-29z" />
    <glyph glyph-name="uni0308.case" 
d="M-131 787c-19 0 -32 13 -32 32s13 32 32 32s32 -13 32 -32s-13 -32 -32 -32zM-32 787c-19 0 -32 13 -32 32s13 32 32 32s32 -13 32 -32s-13 -32 -32 -32z" />
    <glyph glyph-name="uni0307.case" 
d="M-36 777c-20 0 -33 14 -33 33c0 20 13 33 33 33c19 0 33 -13 33 -33c0 -18 -14 -33 -33 -33z" />
    <glyph glyph-name="gravecomb.case" 
d="M-13 769h-24c-4 0 -8 2 -10 5l-81 91c-5 5 -2 10 5 10h35c4 0 8 -1 10 -5l70 -91c4 -5 2 -10 -5 -10z" />
    <glyph glyph-name="acutecomb.case" 
d="M-118 769c-7 0 -9 5 -5 10l70 91c2 4 6 5 10 5h35c7 0 10 -5 5 -10l-81 -91c-2 -3 -6 -5 -10 -5h-24z" />
    <glyph glyph-name="uni030B.case" 
d="M-217 769c-7 0 -9 5 -5 10l70 91c2 4 6 5 10 5h35c7 0 10 -5 5 -10l-81 -91c-2 -3 -6 -5 -10 -5h-24zM-117 769c-7 0 -9 5 -5 10l70 91c2 4 6 5 10 5h35c7 0 10 -5 5 -10l-81 -91c-2 -3 -6 -5 -10 -5h-24z" />
    <glyph glyph-name="uni0302.case" 
d="M-8 779c4 -6 1 -10 -5 -10h-25c-4 0 -7 1 -10 4l-65 75l-65 -75c-3 -3 -6 -4 -10 -4h-25c-6 0 -9 4 -5 10l75 91c2 3 6 5 10 5h40c4 0 8 -2 10 -5z" />
    <glyph glyph-name="uni030C.case" 
d="M-11 865l-75 -91c-2 -3 -6 -5 -10 -5h-40c-4 0 -8 2 -10 5l-75 91c-4 6 -1 10 5 10h25c4 0 7 -1 10 -4l65 -75l65 75c3 3 6 4 10 4h25c6 0 9 -4 5 -10z" />
    <glyph glyph-name="uni0306.case" 
d="M-111 768c-61 0 -103 38 -107 96c0 5 3 9 8 9h25c5 0 8 -3 9 -9c3 -35 27 -56 65 -56c39 0 63 21 66 56c0 6 4 9 9 9h25c5 0 8 -3 8 -9c-4 -57 -45 -96 -108 -96z" />
    <glyph glyph-name="uni030A.case" 
d="M-145 821c0 38 27 64 67 64s66 -26 66 -64c0 -39 -26 -65 -66 -65s-67 26 -67 65zM-112 820c0 -21 12 -34 34 -34c20 0 34 13 34 34s-14 34 -34 34c-22 0 -34 -13 -34 -34z" />
    <glyph glyph-name="tildecomb.case" 
d="M-143 814c-14 0 -22 -11 -24 -30c-1 -6 -4 -8 -9 -8h-24c-5 0 -8 3 -8 8c3 42 28 68 62 68c41 0 56 -39 81 -39c14 0 23 11 24 30c1 6 4 8 9 8h24c5 0 8 -3 8 -8c-3 -42 -29 -68 -62 -68c-39 0 -54 39 -81 39z" />
    <glyph glyph-name="uni0304.case" 
d="M-163 828c0 5 3 8 8 8h143c5 0 8 -3 8 -8v-24c0 -5 -3 -9 -8 -9h-143c-5 0 -8 4 -8 9v24z" />
    <glyph glyph-name="uni0312.case" 
d="M-85 765l-9 147c0 6 2 9 7 9h18c5 0 9 -3 9 -8l26 -147c1 -6 -2 -9 -7 -9h-35c-5 0 -9 2 -9 8z" />
    <glyph glyph-name="uni0326.case" 
d="M-63 -70c0 6 4 8 9 8h35c5 0 8 -3 7 -9l-26 -147c0 -5 -4 -8 -9 -8h-18c-5 0 -7 3 -7 9z" />
    <glyph glyph-name="uni0327.case" 
d="M-86 -198c-47 0 -82 26 -85 70c-1 5 2 8 7 8h22c5 0 7 -3 8 -8c4 -22 22 -35 48 -35c28 0 48 16 48 42c0 23 -19 40 -43 40c-13 0 -25 -3 -36 -6c-3 -1 -5 0 -7 2l-2 1c-2 2 -3 4 -3 7l15 77h36l-9 -50c4 1 9 1 13 1c42 -2 74 -31 74 -72c0 -48 -36 -77 -86 -77z" />
    <glyph glyph-name="uni0328.case" 
d="M-46 -187c0 -5 -2 -8 -7 -9c-8 -1 -17 -2 -24 -2c-60 0 -86 38 -86 78s25 79 61 120h45c-39 -34 -64 -75 -64 -109c0 -31 23 -46 56 -46h11c5 0 8 -2 8 -7v-25z" />
    <glyph glyph-name="uni0337.case" 
d="M-199 -45c-6 0 -9 3 -7 9l159 574c1 4 4 7 9 7h30c5 0 9 -3 7 -9l-160 -574c-1 -4 -4 -7 -9 -7h-29z" />
    <glyph glyph-name="uni0338.case" 
d="M-350 -45c-6 0 -9 3 -8 9l216 774c1 4 4 7 9 7h29c6 0 9 -3 7 -9l-215 -774c-1 -4 -4 -7 -9 -7h-29z" />
    <glyph glyph-name="brevecombcy" 
d="M-111 562c-61 0 -103 39 -107 98c0 5 3 8 8 8h25c5 0 8 -2 9 -8c3 -37 27 -58 65 -58c39 0 63 21 66 58c0 6 4 8 9 8h25c5 0 8 -2 8 -8c-4 -58 -45 -98 -108 -98z" />
    <glyph glyph-name="brevecombcy.case" 
d="M-111 768c-61 0 -103 38 -107 96c0 5 3 9 8 9h25c5 0 8 -3 9 -9c3 -35 27 -56 65 -56c39 0 63 21 66 56c0 6 4 9 9 9h25c5 0 8 -3 8 -9c-4 -57 -45 -96 -108 -96z" />
    </font>
</defs>
</svg>
